<mxfile host="Electron" modified="2024-03-22T12:54:13.924Z" agent="Mozilla/5.0 (Windows NT 10.0; Win64; x64) AppleWebKit/537.36 (KHTML, like Gecko) draw.io/23.1.5 Chrome/120.0.6099.109 Electron/28.1.0 Safari/537.36" etag="Z_sjT87dbPygm-J9XOeR" version="23.1.5" type="device">
  <diagram name="Página-1" id="W9Lad2sZQTleYYRNmq25">
    <mxGraphModel dx="778" dy="502" grid="0" gridSize="10" guides="1" tooltips="1" connect="1" arrows="1" fold="1" page="1" pageScale="1" pageWidth="1169" pageHeight="827" math="0" shadow="0">
      <root>
        <mxCell id="0" />
        <mxCell id="1" parent="0" />
        <object placeholders="1" c4Type="Relationship" id="qN1Ej4JGg5tZJFdWOdp4-64">
          <mxCell style="endArrow=blockThin;html=1;fontSize=10;fontColor=#404040;strokeWidth=1;endFill=1;strokeColor=#B09500;elbow=vertical;metaEdit=1;endSize=14;startSize=14;jumpStyle=arc;jumpSize=16;rounded=0;edgeStyle=orthogonalEdgeStyle;entryX=0;entryY=0.25;entryDx=0;entryDy=0;entryPerimeter=0;fillColor=#e3c800;" parent="1" target="qN1Ej4JGg5tZJFdWOdp4-7" edge="1">
            <mxGeometry width="240" relative="1" as="geometry">
              <mxPoint x="309" y="313" as="sourcePoint" />
              <mxPoint x="360" y="315" as="targetPoint" />
            </mxGeometry>
          </mxCell>
        </object>
        <object placeholders="1" c4Type="Relationship" id="qN1Ej4JGg5tZJFdWOdp4-61">
          <mxCell style="endArrow=blockThin;html=1;fontSize=10;fontColor=#404040;strokeWidth=1;endFill=1;strokeColor=#B09500;elbow=vertical;metaEdit=1;endSize=14;startSize=14;jumpStyle=arc;jumpSize=16;rounded=0;edgeStyle=orthogonalEdgeStyle;entryX=0;entryY=0.75;entryDx=0;entryDy=0;entryPerimeter=0;fillColor=#e3c800;" parent="1" target="qN1Ej4JGg5tZJFdWOdp4-23" edge="1">
            <mxGeometry width="240" relative="1" as="geometry">
              <mxPoint x="309" y="246" as="sourcePoint" />
              <mxPoint x="361" y="242" as="targetPoint" />
            </mxGeometry>
          </mxCell>
        </object>
        <object placeholders="1" c4Name="Usuario" c4Type="Person" c4Description="Gerçon" label="&lt;font style=&quot;font-size: 16px&quot;&gt;&lt;b&gt;%c4Name%&lt;/b&gt;&lt;/font&gt;&lt;div&gt;[%c4Type%]&lt;/div&gt;&lt;br&gt;&lt;div&gt;&lt;font style=&quot;font-size: 11px&quot;&gt;&lt;font color=&quot;#cccccc&quot;&gt;%c4Description%&lt;/font&gt;&lt;/div&gt;" id="qN1Ej4JGg5tZJFdWOdp4-1">
          <mxCell style="html=1;fontSize=11;dashed=0;whiteSpace=wrap;fillColor=#182E3E;strokeColor=#FFFFFF;fontColor=#FFFFFF;shape=mxgraph.c4.person2;align=center;metaEdit=1;points=[[0.5,0,0],[1,0.5,0],[1,0.75,0],[0.75,1,0],[0.5,1,0],[0.25,1,0],[0,0.75,0],[0,0.5,0]];resizable=0;labelBackgroundColor=none;rounded=1;" parent="1" vertex="1">
            <mxGeometry x="10" y="29" width="200" height="180" as="geometry" />
          </mxCell>
        </object>
        <mxCell id="qN1Ej4JGg5tZJFdWOdp4-45" style="edgeStyle=orthogonalEdgeStyle;rounded=0;orthogonalLoop=1;jettySize=auto;html=1;exitX=1;exitY=0.5;exitDx=0;exitDy=0;exitPerimeter=0;entryX=0;entryY=0.5;entryDx=0;entryDy=0;entryPerimeter=0;fillColor=#008a00;strokeColor=#005700;" parent="1" source="qN1Ej4JGg5tZJFdWOdp4-2" target="qN1Ej4JGg5tZJFdWOdp4-5" edge="1">
          <mxGeometry relative="1" as="geometry">
            <mxPoint x="317" y="81" as="targetPoint" />
            <Array as="points">
              <mxPoint x="318" y="340" />
              <mxPoint x="318" y="87" />
            </Array>
          </mxGeometry>
        </mxCell>
        <mxCell id="qN1Ej4JGg5tZJFdWOdp4-47" value="&lt;font color=&quot;#00ff00&quot;&gt;Request&lt;br&gt;JSON&lt;/font&gt;" style="edgeLabel;html=1;align=center;verticalAlign=middle;resizable=0;points=[];" parent="qN1Ej4JGg5tZJFdWOdp4-45" vertex="1" connectable="0">
          <mxGeometry x="-0.6174" y="4" relative="1" as="geometry">
            <mxPoint as="offset" />
          </mxGeometry>
        </mxCell>
        <mxCell id="qN1Ej4JGg5tZJFdWOdp4-52" style="edgeStyle=orthogonalEdgeStyle;rounded=0;orthogonalLoop=1;jettySize=auto;html=1;exitX=0.5;exitY=0;exitDx=0;exitDy=0;exitPerimeter=0;entryX=0;entryY=0.25;entryDx=0;entryDy=0;entryPerimeter=0;fillColor=#008a00;strokeColor=#005700;" parent="1" source="qN1Ej4JGg5tZJFdWOdp4-2" target="qN1Ej4JGg5tZJFdWOdp4-23" edge="1">
          <mxGeometry relative="1" as="geometry">
            <mxPoint x="270" y="185" as="targetPoint" />
            <Array as="points">
              <mxPoint x="108" y="219" />
              <mxPoint x="271" y="219" />
              <mxPoint x="271" y="186" />
            </Array>
          </mxGeometry>
        </mxCell>
        <mxCell id="qN1Ej4JGg5tZJFdWOdp4-53" value="&lt;font color=&quot;#00ff00&quot;&gt;Request&lt;br&gt;JSON&lt;/font&gt;" style="edgeLabel;html=1;align=center;verticalAlign=middle;resizable=0;points=[];" parent="qN1Ej4JGg5tZJFdWOdp4-52" vertex="1" connectable="0">
          <mxGeometry x="-0.2049" y="-1" relative="1" as="geometry">
            <mxPoint as="offset" />
          </mxGeometry>
        </mxCell>
        <object placeholders="1" c4Name="Usuario" c4Type="Person" c4Description="Cozinha" label="&lt;font style=&quot;font-size: 16px&quot;&gt;&lt;b&gt;%c4Name%&lt;/b&gt;&lt;/font&gt;&lt;div&gt;[%c4Type%]&lt;/div&gt;&lt;br&gt;&lt;div&gt;&lt;font style=&quot;font-size: 11px&quot;&gt;&lt;font color=&quot;#cccccc&quot;&gt;%c4Description%&lt;/font&gt;&lt;/div&gt;" id="qN1Ej4JGg5tZJFdWOdp4-2">
          <mxCell style="html=1;fontSize=11;dashed=0;whiteSpace=wrap;fillColor=#182E3E;strokeColor=#FFFFFF;fontColor=#FFFFFF;shape=mxgraph.c4.person2;align=center;metaEdit=1;points=[[0.5,0,0],[1,0.5,0],[1,0.75,0],[0.75,1,0],[0.5,1,0],[0.25,1,0],[0,0.75,0],[0,0.5,0]];resizable=0;labelBackgroundColor=none;rounded=1;" parent="1" vertex="1">
            <mxGeometry x="8" y="251" width="200" height="180" as="geometry" />
          </mxCell>
        </object>
        <mxCell id="qN1Ej4JGg5tZJFdWOdp4-50" style="edgeStyle=orthogonalEdgeStyle;rounded=0;orthogonalLoop=1;jettySize=auto;html=1;exitX=0.5;exitY=0;exitDx=0;exitDy=0;exitPerimeter=0;fillColor=#e3c800;strokeColor=#B09500;entryX=0;entryY=0.75;entryDx=0;entryDy=0;entryPerimeter=0;" parent="1" source="qN1Ej4JGg5tZJFdWOdp4-3" target="qN1Ej4JGg5tZJFdWOdp4-5" edge="1">
          <mxGeometry relative="1" as="geometry">
            <mxPoint x="308" y="69" as="targetPoint" />
            <Array as="points">
              <mxPoint x="110" y="458" />
              <mxPoint x="309" y="458" />
              <mxPoint x="309" y="117" />
            </Array>
          </mxGeometry>
        </mxCell>
        <mxCell id="qN1Ej4JGg5tZJFdWOdp4-51" value="&lt;font color=&quot;#ffff00&quot;&gt;Request&lt;br&gt;JSON&lt;/font&gt;" style="edgeLabel;html=1;align=center;verticalAlign=middle;resizable=0;points=[];" parent="qN1Ej4JGg5tZJFdWOdp4-50" vertex="1" connectable="0">
          <mxGeometry x="0.1577" relative="1" as="geometry">
            <mxPoint x="-92" y="138" as="offset" />
          </mxGeometry>
        </mxCell>
        <object placeholders="1" c4Name="Usuario" c4Type="Person" c4Description="Admin" label="&lt;font style=&quot;font-size: 16px&quot;&gt;&lt;b&gt;%c4Name%&lt;/b&gt;&lt;/font&gt;&lt;div&gt;[%c4Type%]&lt;/div&gt;&lt;br&gt;&lt;div&gt;&lt;font style=&quot;font-size: 11px&quot;&gt;&lt;font color=&quot;#cccccc&quot;&gt;%c4Description%&lt;/font&gt;&lt;/div&gt;" id="qN1Ej4JGg5tZJFdWOdp4-3">
          <mxCell style="html=1;fontSize=11;dashed=0;whiteSpace=wrap;fillColor=#182E3E;strokeColor=#FFFFFF;fontColor=#FFFFFF;shape=mxgraph.c4.person2;align=center;metaEdit=1;points=[[0.5,0,0],[1,0.5,0],[1,0.75,0],[0.75,1,0],[0.5,1,0],[0.25,1,0],[0,0.75,0],[0,0.5,0]];resizable=0;labelBackgroundColor=none;rounded=1;" parent="1" vertex="1">
            <mxGeometry x="10" y="480" width="200" height="180" as="geometry" />
          </mxCell>
        </object>
        <mxCell id="qN1Ej4JGg5tZJFdWOdp4-54" style="edgeStyle=orthogonalEdgeStyle;rounded=0;orthogonalLoop=1;jettySize=auto;html=1;exitX=0.25;exitY=0;exitDx=0;exitDy=0;exitPerimeter=0;fillColor=#0050ef;strokeColor=#001DBC;" parent="1" source="qN1Ej4JGg5tZJFdWOdp4-5" target="qN1Ej4JGg5tZJFdWOdp4-1" edge="1">
          <mxGeometry relative="1" as="geometry">
            <Array as="points">
              <mxPoint x="430" y="7" />
              <mxPoint x="269" y="7" />
              <mxPoint x="269" y="119" />
            </Array>
          </mxGeometry>
        </mxCell>
        <mxCell id="qN1Ej4JGg5tZJFdWOdp4-55" value="&lt;font color=&quot;#001dbc&quot;&gt;Responset&lt;br&gt;JSON&lt;/font&gt;" style="edgeLabel;html=1;align=center;verticalAlign=middle;resizable=0;points=[];" parent="qN1Ej4JGg5tZJFdWOdp4-54" vertex="1" connectable="0">
          <mxGeometry x="0.3807" y="3" relative="1" as="geometry">
            <mxPoint as="offset" />
          </mxGeometry>
        </mxCell>
        <mxCell id="qN1Ej4JGg5tZJFdWOdp4-59" style="edgeStyle=orthogonalEdgeStyle;rounded=0;orthogonalLoop=1;jettySize=auto;html=1;exitX=0.5;exitY=0;exitDx=0;exitDy=0;exitPerimeter=0;fillColor=#fad7ac;strokeColor=#b46504;" parent="1" source="qN1Ej4JGg5tZJFdWOdp4-5" target="qN1Ej4JGg5tZJFdWOdp4-3" edge="1">
          <mxGeometry relative="1" as="geometry">
            <mxPoint x="267" y="617" as="targetPoint" />
            <Array as="points">
              <mxPoint x="490" y="7" />
              <mxPoint x="268" y="7" />
              <mxPoint x="268" y="570" />
            </Array>
          </mxGeometry>
        </mxCell>
        <mxCell id="qN1Ej4JGg5tZJFdWOdp4-70" value="&lt;font color=&quot;#b46504&quot;&gt;Request&lt;br&gt;JSON&lt;/font&gt;" style="edgeLabel;html=1;align=center;verticalAlign=middle;resizable=0;points=[];" parent="qN1Ej4JGg5tZJFdWOdp4-59" vertex="1" connectable="0">
          <mxGeometry x="-0.117" y="1" relative="1" as="geometry">
            <mxPoint as="offset" />
          </mxGeometry>
        </mxCell>
        <object placeholders="1" c4Name="AtendimentoController" c4Type="Spring boot 3" c4Description="Controller" label="&lt;font style=&quot;font-size: 16px&quot;&gt;&lt;b&gt;%c4Name%&lt;/b&gt;&lt;/font&gt;&lt;div&gt;[%c4Type%]&lt;/div&gt;&lt;br&gt;&lt;div&gt;&lt;font style=&quot;font-size: 11px&quot;&gt;&lt;font color=&quot;#cccccc&quot;&gt;%c4Description%&lt;/font&gt;&lt;/div&gt;" id="qN1Ej4JGg5tZJFdWOdp4-5">
          <mxCell style="rounded=1;whiteSpace=wrap;html=1;labelBackgroundColor=none;fillColor=#182E3E;fontColor=#FFFFFF;align=center;arcSize=10;strokeColor=#FFFFFF;metaEdit=1;resizable=0;points=[[0.25,0,0],[0.5,0,0],[0.75,0,0],[1,0.25,0],[1,0.5,0],[1,0.75,0],[0.75,1,0],[0.5,1,0],[0.25,1,0],[0,0.75,0],[0,0.5,0],[0,0.25,0]];" parent="1" vertex="1">
            <mxGeometry x="370" y="27" width="240" height="120" as="geometry" />
          </mxCell>
        </object>
        <mxCell id="qN1Ej4JGg5tZJFdWOdp4-77" style="edgeStyle=orthogonalEdgeStyle;rounded=0;orthogonalLoop=1;jettySize=auto;html=1;exitX=0;exitY=0.75;exitDx=0;exitDy=0;exitPerimeter=0;fillColor=#fad7ac;strokeColor=#b46504;entryX=0.75;entryY=1;entryDx=0;entryDy=0;entryPerimeter=0;" parent="1" source="qN1Ej4JGg5tZJFdWOdp4-6" target="qN1Ej4JGg5tZJFdWOdp4-3" edge="1">
          <mxGeometry relative="1" as="geometry">
            <mxPoint x="79" y="757" as="targetPoint" />
            <Array as="points">
              <mxPoint x="160" y="756" />
            </Array>
          </mxGeometry>
        </mxCell>
        <mxCell id="qN1Ej4JGg5tZJFdWOdp4-78" value="&lt;font color=&quot;#b46504&quot;&gt;Request&lt;br&gt;JSON&lt;/font&gt;" style="edgeLabel;html=1;align=center;verticalAlign=middle;resizable=0;points=[];" parent="qN1Ej4JGg5tZJFdWOdp4-77" vertex="1" connectable="0">
          <mxGeometry x="-0.281" y="-3" relative="1" as="geometry">
            <mxPoint as="offset" />
          </mxGeometry>
        </mxCell>
        <object placeholders="1" c4Name="FornecedorController" c4Type="Spring boot 3" c4Description="Controller" label="&lt;font style=&quot;font-size: 16px&quot;&gt;&lt;b&gt;%c4Name%&lt;/b&gt;&lt;/font&gt;&lt;div&gt;[%c4Type%]&lt;/div&gt;&lt;br&gt;&lt;div&gt;&lt;font style=&quot;font-size: 11px&quot;&gt;&lt;font color=&quot;#cccccc&quot;&gt;%c4Description%&lt;/font&gt;&lt;/div&gt;" id="qN1Ej4JGg5tZJFdWOdp4-6">
          <mxCell style="rounded=1;whiteSpace=wrap;html=1;labelBackgroundColor=none;fillColor=#182E3E;fontColor=#FFFFFF;align=center;arcSize=10;strokeColor=#FFFFFF;metaEdit=1;resizable=0;points=[[0.25,0,0],[0.5,0,0],[0.75,0,0],[1,0.25,0],[1,0.5,0],[1,0.75,0],[0.75,1,0],[0.5,1,0],[0.25,1,0],[0,0.75,0],[0,0.5,0],[0,0.25,0]];" parent="1" vertex="1">
            <mxGeometry x="370" y="666" width="240" height="120" as="geometry" />
          </mxCell>
        </object>
        <object placeholders="1" c4Name="IngredienteController" c4Type="Spring boot 3" c4Description="Controller" label="&lt;font style=&quot;font-size: 16px&quot;&gt;&lt;b&gt;%c4Name%&lt;/b&gt;&lt;/font&gt;&lt;div&gt;[%c4Type%]&lt;/div&gt;&lt;br&gt;&lt;div&gt;&lt;font style=&quot;font-size: 11px&quot;&gt;&lt;font color=&quot;#cccccc&quot;&gt;%c4Description%&lt;/font&gt;&lt;/div&gt;" id="qN1Ej4JGg5tZJFdWOdp4-7">
          <mxCell style="rounded=1;whiteSpace=wrap;html=1;labelBackgroundColor=none;fillColor=#182E3E;fontColor=#FFFFFF;align=center;arcSize=10;strokeColor=#FFFFFF;metaEdit=1;resizable=0;points=[[0.25,0,0],[0.5,0,0],[0.75,0,0],[1,0.25,0],[1,0.5,0],[1,0.75,0],[0.75,1,0],[0.5,1,0],[0.25,1,0],[0,0.75,0],[0,0.5,0],[0,0.25,0]];" parent="1" vertex="1">
            <mxGeometry x="370" y="283" width="240" height="120" as="geometry" />
          </mxCell>
        </object>
        <mxCell id="qN1Ej4JGg5tZJFdWOdp4-75" style="edgeStyle=orthogonalEdgeStyle;rounded=0;orthogonalLoop=1;jettySize=auto;html=1;exitX=0.25;exitY=0;exitDx=0;exitDy=0;exitPerimeter=0;fillColor=#fad7ac;strokeColor=#b46504;entryX=1;entryY=0.5;entryDx=0;entryDy=0;entryPerimeter=0;" parent="1" source="qN1Ej4JGg5tZJFdWOdp4-20" target="qN1Ej4JGg5tZJFdWOdp4-3" edge="1">
          <mxGeometry relative="1" as="geometry">
            <mxPoint x="269" y="652" as="targetPoint" />
            <Array as="points">
              <mxPoint x="430" y="390" />
              <mxPoint x="270" y="390" />
              <mxPoint x="270" y="570" />
            </Array>
          </mxGeometry>
        </mxCell>
        <object placeholders="1" c4Name="NotaController" c4Type="Spring boot 3" c4Description="Controller" label="&lt;font style=&quot;font-size: 16px&quot;&gt;&lt;b&gt;%c4Name%&lt;/b&gt;&lt;/font&gt;&lt;div&gt;[%c4Type%]&lt;/div&gt;&lt;br&gt;&lt;div&gt;&lt;font style=&quot;font-size: 11px&quot;&gt;&lt;font color=&quot;#cccccc&quot;&gt;%c4Description%&lt;/font&gt;&lt;/div&gt;" id="qN1Ej4JGg5tZJFdWOdp4-20">
          <mxCell style="rounded=1;whiteSpace=wrap;html=1;labelBackgroundColor=none;fillColor=#182E3E;fontColor=#FFFFFF;align=center;arcSize=10;strokeColor=#FFFFFF;metaEdit=1;resizable=0;points=[[0.25,0,0],[0.5,0,0],[0.75,0,0],[1,0.25,0],[1,0.5,0],[1,0.75,0],[0.75,1,0],[0.5,1,0],[0.25,1,0],[0,0.75,0],[0,0.5,0],[0,0.25,0]];" parent="1" vertex="1">
            <mxGeometry x="370" y="410" width="240" height="120" as="geometry" />
          </mxCell>
        </object>
        <object placeholders="1" c4Name="ProdutoController" c4Type="Spring boot 3" c4Description="Controller" label="&lt;font style=&quot;font-size: 16px&quot;&gt;&lt;b&gt;%c4Name%&lt;/b&gt;&lt;/font&gt;&lt;div&gt;[%c4Type%]&lt;/div&gt;&lt;br&gt;&lt;div&gt;&lt;font style=&quot;font-size: 11px&quot;&gt;&lt;font color=&quot;#cccccc&quot;&gt;%c4Description%&lt;/font&gt;&lt;/div&gt;" id="qN1Ej4JGg5tZJFdWOdp4-21">
          <mxCell style="rounded=1;whiteSpace=wrap;html=1;labelBackgroundColor=none;fillColor=#182E3E;fontColor=#FFFFFF;align=center;arcSize=10;strokeColor=#FFFFFF;metaEdit=1;resizable=0;points=[[0.25,0,0],[0.5,0,0],[0.75,0,0],[1,0.25,0],[1,0.5,0],[1,0.75,0],[0.75,1,0],[0.5,1,0],[0.25,1,0],[0,0.75,0],[0,0.5,0],[0,0.25,0]];" parent="1" vertex="1">
            <mxGeometry x="370" y="537" width="240" height="120" as="geometry" />
          </mxCell>
        </object>
        <mxCell id="qN1Ej4JGg5tZJFdWOdp4-56" style="edgeStyle=orthogonalEdgeStyle;rounded=0;orthogonalLoop=1;jettySize=auto;html=1;exitX=0;exitY=0.5;exitDx=0;exitDy=0;exitPerimeter=0;entryX=1;entryY=0.75;entryDx=0;entryDy=0;entryPerimeter=0;fillColor=#60a917;strokeColor=#2D7600;" parent="1" source="qN1Ej4JGg5tZJFdWOdp4-23" target="qN1Ej4JGg5tZJFdWOdp4-2" edge="1">
          <mxGeometry relative="1" as="geometry">
            <mxPoint x="249" y="397" as="targetPoint" />
            <Array as="points">
              <mxPoint x="250" y="216" />
              <mxPoint x="250" y="386" />
            </Array>
          </mxGeometry>
        </mxCell>
        <mxCell id="qN1Ej4JGg5tZJFdWOdp4-57" value="&lt;font color=&quot;#66ff66&quot;&gt;Responset&lt;br&gt;JSON&lt;/font&gt;" style="edgeLabel;html=1;align=center;verticalAlign=middle;resizable=0;points=[];" parent="qN1Ej4JGg5tZJFdWOdp4-56" vertex="1" connectable="0">
          <mxGeometry x="-0.0723" relative="1" as="geometry">
            <mxPoint as="offset" />
          </mxGeometry>
        </mxCell>
        <object placeholders="1" c4Name="ItemCardapioController" c4Type="Spring boot 3" c4Description="Controller" label="&lt;font style=&quot;font-size: 16px&quot;&gt;&lt;b&gt;%c4Name%&lt;/b&gt;&lt;/font&gt;&lt;div&gt;[%c4Type%]&lt;/div&gt;&lt;br&gt;&lt;div&gt;&lt;font style=&quot;font-size: 11px&quot;&gt;&lt;font color=&quot;#cccccc&quot;&gt;%c4Description%&lt;/font&gt;&lt;/div&gt;" id="qN1Ej4JGg5tZJFdWOdp4-23">
          <mxCell style="rounded=1;whiteSpace=wrap;html=1;labelBackgroundColor=none;fillColor=#182E3E;fontColor=#FFFFFF;align=center;arcSize=10;strokeColor=#FFFFFF;metaEdit=1;resizable=0;points=[[0.25,0,0],[0.5,0,0],[0.75,0,0],[1,0.25,0],[1,0.5,0],[1,0.75,0],[0.75,1,0],[0.5,1,0],[0.25,1,0],[0,0.75,0],[0,0.5,0],[0,0.25,0]];" parent="1" vertex="1">
            <mxGeometry x="370" y="156" width="240" height="120" as="geometry" />
          </mxCell>
        </object>
        <object placeholders="1" c4Name="API_Restaurante" c4Type="Spring boot 3.2.2 PostgreSQL" c4Application="API_Restaurante" label="&lt;font style=&quot;font-size: 16px&quot;&gt;&lt;b&gt;&lt;div style=&quot;text-align: left&quot;&gt;%c4Name%&lt;/div&gt;&lt;/b&gt;&lt;/font&gt;&lt;div style=&quot;text-align: left&quot;&gt;[%c4Application%]&lt;/div&gt;" id="qN1Ej4JGg5tZJFdWOdp4-41">
          <mxCell style="rounded=1;fontSize=11;whiteSpace=wrap;html=1;dashed=1;arcSize=20;fillColor=none;strokeColor=#FFFFFF;fontColor=#FFFFFF;labelBackgroundColor=none;align=left;verticalAlign=bottom;labelBorderColor=none;spacingTop=0;spacing=10;dashPattern=8 4;metaEdit=1;rotatable=0;perimeter=rectanglePerimeter;noLabel=0;labelPadding=0;allowArrows=0;connectable=0;expand=0;recursiveResize=0;editable=1;pointerEvents=0;absoluteArcSize=1;points=[[0.25,0,0],[0.5,0,0],[0.75,0,0],[1,0.25,0],[1,0.5,0],[1,0.75,0],[0.75,1,0],[0.5,1,0],[0.25,1,0],[0,0.75,0],[0,0.5,0],[0,0.25,0]];" parent="1" vertex="1">
            <mxGeometry x="330" y="10" width="810" height="810" as="geometry" />
          </mxCell>
        </object>
        <object placeholders="1" c4Name="IngredienteService" c4Type="Spring boot 3" c4Description="Service" label="&lt;font style=&quot;font-size: 16px&quot;&gt;&lt;b&gt;%c4Name%&lt;/b&gt;&lt;/font&gt;&lt;div&gt;[%c4Type%]&lt;/div&gt;&lt;br&gt;&lt;div&gt;&lt;font style=&quot;font-size: 11px&quot;&gt;&lt;font color=&quot;#cccccc&quot;&gt;%c4Description%&lt;/font&gt;&lt;/div&gt;" id="qN1Ej4JGg5tZJFdWOdp4-19">
          <mxCell style="rounded=1;whiteSpace=wrap;html=1;labelBackgroundColor=none;fillColor=#182E3E;fontColor=#FFFFFF;align=center;arcSize=10;strokeColor=#FFFFFF;metaEdit=1;resizable=0;points=[[0.25,0,0],[0.5,0,0],[0.75,0,0],[1,0.25,0],[1,0.5,0],[1,0.75,0],[0.75,1,0],[0.5,1,0],[0.25,1,0],[0,0.75,0],[0,0.5,0],[0,0.25,0]];" parent="1" vertex="1">
            <mxGeometry x="880" y="295" width="240" height="120" as="geometry" />
          </mxCell>
        </object>
        <object placeholders="1" c4Name="Service" c4Type="Spring boot 3.2.2" c4Application="Service" label="&lt;font style=&quot;font-size: 16px&quot;&gt;&lt;b&gt;&lt;div style=&quot;text-align: left&quot;&gt;%c4Name%&lt;/div&gt;&lt;/b&gt;&lt;/font&gt;&lt;div style=&quot;text-align: left&quot;&gt;[%c4Application%]&lt;/div&gt;" id="qN1Ej4JGg5tZJFdWOdp4-13">
          <mxCell style="rounded=1;fontSize=11;whiteSpace=wrap;html=1;dashed=1;arcSize=20;fillColor=none;strokeColor=#FFFFFF;fontColor=#FFFFFF;labelBackgroundColor=none;align=left;verticalAlign=bottom;labelBorderColor=none;spacingTop=0;spacing=10;dashPattern=8 4;metaEdit=1;rotatable=0;perimeter=rectanglePerimeter;noLabel=0;labelPadding=0;allowArrows=0;connectable=0;expand=0;recursiveResize=0;editable=1;pointerEvents=0;absoluteArcSize=1;points=[[0.25,0,0],[0.5,0,0],[0.75,0,0],[1,0.25,0],[1,0.5,0],[1,0.75,0],[0.75,1,0],[0.5,1,0],[0.25,1,0],[0,0.75,0],[0,0.5,0],[0,0.25,0]];" parent="1" vertex="1">
            <mxGeometry x="680" y="27" width="440" height="783" as="geometry" />
          </mxCell>
        </object>
        <object placeholders="1" c4Name="AtendimentoService" c4Type="Spring boot 3" c4Description="Service" label="&lt;font style=&quot;font-size: 16px&quot;&gt;&lt;b&gt;%c4Name%&lt;/b&gt;&lt;/font&gt;&lt;div&gt;[%c4Type%]&lt;/div&gt;&lt;br&gt;&lt;div&gt;&lt;font style=&quot;font-size: 11px&quot;&gt;&lt;font color=&quot;#cccccc&quot;&gt;%c4Description%&lt;/font&gt;&lt;/div&gt;" id="qN1Ej4JGg5tZJFdWOdp4-14">
          <mxCell style="rounded=1;whiteSpace=wrap;html=1;labelBackgroundColor=none;fillColor=#182E3E;fontColor=#FFFFFF;align=center;arcSize=10;strokeColor=#FFFFFF;metaEdit=1;resizable=0;points=[[0.25,0,0],[0.5,0,0],[0.75,0,0],[1,0.25,0],[1,0.5,0],[1,0.75,0],[0.75,1,0],[0.5,1,0],[0.25,1,0],[0,0.75,0],[0,0.5,0],[0,0.25,0]];" parent="1" vertex="1">
            <mxGeometry x="880.0033333333333" y="34" width="240" height="120" as="geometry" />
          </mxCell>
        </object>
        <object placeholders="1" c4Name="NotaService" c4Type="Software System" c4Description="Service" label="&lt;font style=&quot;font-size: 16px&quot;&gt;&lt;b&gt;%c4Name%&lt;/b&gt;&lt;/font&gt;&lt;div&gt;[%c4Type%]&lt;/div&gt;&lt;br&gt;&lt;div&gt;&lt;font style=&quot;font-size: 11px&quot;&gt;&lt;font color=&quot;#cccccc&quot;&gt;%c4Description%&lt;/font&gt;&lt;/div&gt;" id="qN1Ej4JGg5tZJFdWOdp4-24">
          <mxCell style="rounded=1;whiteSpace=wrap;html=1;labelBackgroundColor=none;fillColor=#182E3E;fontColor=#FFFFFF;align=center;arcSize=10;strokeColor=#FFFFFF;metaEdit=1;resizable=0;points=[[0.25,0,0],[0.5,0,0],[0.75,0,0],[1,0.25,0],[1,0.5,0],[1,0.75,0],[0.75,1,0],[0.5,1,0],[0.25,1,0],[0,0.75,0],[0,0.5,0],[0,0.25,0]];" parent="1" vertex="1">
            <mxGeometry x="880" y="424" width="240" height="120" as="geometry" />
          </mxCell>
        </object>
        <object placeholders="1" c4Name="ItemCardapioService" c4Type="Software System" c4Description="Service" label="&lt;font style=&quot;font-size: 16px&quot;&gt;&lt;b&gt;%c4Name%&lt;/b&gt;&lt;/font&gt;&lt;div&gt;[%c4Type%]&lt;/div&gt;&lt;br&gt;&lt;div&gt;&lt;font style=&quot;font-size: 11px&quot;&gt;&lt;font color=&quot;#cccccc&quot;&gt;%c4Description%&lt;/font&gt;&lt;/div&gt;" id="qN1Ej4JGg5tZJFdWOdp4-25">
          <mxCell style="rounded=1;whiteSpace=wrap;html=1;labelBackgroundColor=none;fillColor=#182E3E;fontColor=#FFFFFF;align=center;arcSize=10;strokeColor=#FFFFFF;metaEdit=1;resizable=0;points=[[0.25,0,0],[0.5,0,0],[0.75,0,0],[1,0.25,0],[1,0.5,0],[1,0.75,0],[0.75,1,0],[0.5,1,0],[0.25,1,0],[0,0.75,0],[0,0.5,0],[0,0.25,0]];" parent="1" vertex="1">
            <mxGeometry x="880" y="164" width="240" height="120" as="geometry" />
          </mxCell>
        </object>
        <object placeholders="1" c4Name="ProdutoService" c4Type="Software System" c4Description="Service" label="&lt;font style=&quot;font-size: 16px&quot;&gt;&lt;b&gt;%c4Name%&lt;/b&gt;&lt;/font&gt;&lt;div&gt;[%c4Type%]&lt;/div&gt;&lt;br&gt;&lt;div&gt;&lt;font style=&quot;font-size: 11px&quot;&gt;&lt;font color=&quot;#cccccc&quot;&gt;%c4Description%&lt;/font&gt;&lt;/div&gt;" id="qN1Ej4JGg5tZJFdWOdp4-31">
          <mxCell style="rounded=1;whiteSpace=wrap;html=1;labelBackgroundColor=none;fillColor=#182E3E;fontColor=#FFFFFF;align=center;arcSize=10;strokeColor=#FFFFFF;metaEdit=1;resizable=0;points=[[0.25,0,0],[0.5,0,0],[0.75,0,0],[1,0.25,0],[1,0.5,0],[1,0.75,0],[0.75,1,0],[0.5,1,0],[0.25,1,0],[0,0.75,0],[0,0.5,0],[0,0.25,0]];" parent="1" vertex="1">
            <mxGeometry x="880" y="552" width="240" height="120" as="geometry" />
          </mxCell>
        </object>
        <object placeholders="1" c4Name="FornecedorService" c4Type="Software System" c4Description="Service" label="&lt;font style=&quot;font-size: 16px&quot;&gt;&lt;b&gt;%c4Name%&lt;/b&gt;&lt;/font&gt;&lt;div&gt;[%c4Type%]&lt;/div&gt;&lt;br&gt;&lt;div&gt;&lt;font style=&quot;font-size: 11px&quot;&gt;&lt;font color=&quot;#cccccc&quot;&gt;%c4Description%&lt;/font&gt;&lt;/div&gt;" id="qN1Ej4JGg5tZJFdWOdp4-40">
          <mxCell style="rounded=1;whiteSpace=wrap;html=1;labelBackgroundColor=none;fillColor=#182E3E;fontColor=#FFFFFF;align=center;arcSize=10;strokeColor=#FFFFFF;metaEdit=1;resizable=0;points=[[0.25,0,0],[0.5,0,0],[0.75,0,0],[1,0.25,0],[1,0.5,0],[1,0.75,0],[0.75,1,0],[0.5,1,0],[0.25,1,0],[0,0.75,0],[0,0.5,0],[0,0.25,0]];" parent="1" vertex="1">
            <mxGeometry x="881" y="679" width="240" height="120" as="geometry" />
          </mxCell>
        </object>
        <mxCell id="qN1Ej4JGg5tZJFdWOdp4-42" style="edgeStyle=orthogonalEdgeStyle;rounded=0;orthogonalLoop=1;jettySize=auto;html=1;exitX=0.5;exitY=0;exitDx=0;exitDy=0;exitPerimeter=0;entryX=0;entryY=0.25;entryDx=0;entryDy=0;entryPerimeter=0;fillColor=#1ba1e2;strokeColor=#006EAF;" parent="1" source="qN1Ej4JGg5tZJFdWOdp4-1" target="qN1Ej4JGg5tZJFdWOdp4-5" edge="1">
          <mxGeometry relative="1" as="geometry" />
        </mxCell>
        <mxCell id="qN1Ej4JGg5tZJFdWOdp4-46" value="&lt;font color=&quot;#3399ff&quot;&gt;Request&lt;br&gt;JSON&lt;/font&gt;" style="edgeLabel;html=1;align=center;verticalAlign=middle;resizable=0;points=[];" parent="qN1Ej4JGg5tZJFdWOdp4-42" vertex="1" connectable="0">
          <mxGeometry x="-0.372" y="4" relative="1" as="geometry">
            <mxPoint x="7" y="10" as="offset" />
          </mxGeometry>
        </mxCell>
        <object placeholders="1" c4Type="Relationship" id="qN1Ej4JGg5tZJFdWOdp4-65">
          <mxCell style="endArrow=blockThin;html=1;fontSize=10;fontColor=#404040;strokeWidth=1;endFill=1;strokeColor=#B09500;elbow=vertical;metaEdit=1;endSize=14;startSize=14;jumpStyle=arc;jumpSize=16;rounded=0;edgeStyle=orthogonalEdgeStyle;entryX=0;entryY=0.25;entryDx=0;entryDy=0;entryPerimeter=0;fillColor=#e3c800;" parent="1" target="qN1Ej4JGg5tZJFdWOdp4-20" edge="1">
            <mxGeometry width="240" relative="1" as="geometry">
              <mxPoint x="311" y="440" as="sourcePoint" />
              <mxPoint x="352" y="433" as="targetPoint" />
            </mxGeometry>
          </mxCell>
        </object>
        <object placeholders="1" c4Type="Relationship" id="qN1Ej4JGg5tZJFdWOdp4-67">
          <mxCell style="endArrow=blockThin;html=1;fontSize=10;fontColor=#404040;strokeWidth=1;endFill=1;strokeColor=#B09500;elbow=vertical;metaEdit=1;endSize=14;startSize=14;jumpStyle=arc;jumpSize=16;rounded=0;edgeStyle=orthogonalEdgeStyle;entryX=0;entryY=0.25;entryDx=0;entryDy=0;entryPerimeter=0;fillColor=#e3c800;" parent="1" target="qN1Ej4JGg5tZJFdWOdp4-6" edge="1">
            <mxGeometry width="240" relative="1" as="geometry">
              <mxPoint x="309" y="451" as="sourcePoint" />
              <mxPoint x="343" y="696" as="targetPoint" />
              <Array as="points">
                <mxPoint x="309" y="697" />
                <mxPoint x="306" y="697" />
                <mxPoint x="306" y="696" />
              </Array>
            </mxGeometry>
          </mxCell>
        </object>
        <object placeholders="1" c4Type="Relationship" id="qN1Ej4JGg5tZJFdWOdp4-68">
          <mxCell style="endArrow=blockThin;html=1;fontSize=10;fontColor=#404040;strokeWidth=1;endFill=1;strokeColor=#B09500;elbow=vertical;metaEdit=1;endSize=14;startSize=14;jumpStyle=arc;jumpSize=16;rounded=0;edgeStyle=orthogonalEdgeStyle;entryX=0;entryY=0.25;entryDx=0;entryDy=0;entryPerimeter=0;fillColor=#e3c800;" parent="1" target="qN1Ej4JGg5tZJFdWOdp4-21" edge="1">
            <mxGeometry width="240" relative="1" as="geometry">
              <mxPoint x="307" y="567" as="sourcePoint" />
              <mxPoint x="340" y="569.5" as="targetPoint" />
            </mxGeometry>
          </mxCell>
        </object>
        <mxCell id="qN1Ej4JGg5tZJFdWOdp4-72" style="edgeStyle=orthogonalEdgeStyle;rounded=0;orthogonalLoop=1;jettySize=auto;html=1;exitX=0.25;exitY=0;exitDx=0;exitDy=0;exitPerimeter=0;fillColor=#fad7ac;strokeColor=#b46504;entryX=1;entryY=0.5;entryDx=0;entryDy=0;entryPerimeter=0;" parent="1" source="qN1Ej4JGg5tZJFdWOdp4-23" target="qN1Ej4JGg5tZJFdWOdp4-3" edge="1">
          <mxGeometry relative="1" as="geometry">
            <mxPoint x="267" y="653" as="targetPoint" />
            <Array as="points">
              <mxPoint x="430" y="136" />
              <mxPoint x="267" y="136" />
              <mxPoint x="267" y="570" />
            </Array>
          </mxGeometry>
        </mxCell>
        <mxCell id="qN1Ej4JGg5tZJFdWOdp4-74" style="edgeStyle=orthogonalEdgeStyle;rounded=0;orthogonalLoop=1;jettySize=auto;html=1;exitX=0.25;exitY=0;exitDx=0;exitDy=0;exitPerimeter=0;fillColor=#fad7ac;strokeColor=#b46504;entryX=1;entryY=0.5;entryDx=0;entryDy=0;entryPerimeter=0;" parent="1" source="qN1Ej4JGg5tZJFdWOdp4-7" target="qN1Ej4JGg5tZJFdWOdp4-3" edge="1">
          <mxGeometry relative="1" as="geometry">
            <mxPoint x="267" y="647" as="targetPoint" />
            <Array as="points">
              <mxPoint x="430" y="263" />
              <mxPoint x="268" y="263" />
              <mxPoint x="268" y="570" />
            </Array>
          </mxGeometry>
        </mxCell>
        <mxCell id="qN1Ej4JGg5tZJFdWOdp4-76" style="edgeStyle=orthogonalEdgeStyle;rounded=0;orthogonalLoop=1;jettySize=auto;html=1;exitX=0.25;exitY=0;exitDx=0;exitDy=0;exitPerimeter=0;entryX=1;entryY=0.5;entryDx=0;entryDy=0;entryPerimeter=0;fillColor=#fad7ac;strokeColor=#b46504;" parent="1" source="qN1Ej4JGg5tZJFdWOdp4-21" target="qN1Ej4JGg5tZJFdWOdp4-3" edge="1">
          <mxGeometry relative="1" as="geometry">
            <Array as="points">
              <mxPoint x="430" y="517" />
              <mxPoint x="268" y="517" />
              <mxPoint x="268" y="570" />
            </Array>
          </mxGeometry>
        </mxCell>
        <mxCell id="qN1Ej4JGg5tZJFdWOdp4-79" style="edgeStyle=orthogonalEdgeStyle;rounded=0;orthogonalLoop=1;jettySize=auto;html=1;exitX=1;exitY=0.25;exitDx=0;exitDy=0;exitPerimeter=0;entryX=-0.004;entryY=0.192;entryDx=0;entryDy=0;entryPerimeter=0;" parent="1" source="qN1Ej4JGg5tZJFdWOdp4-5" target="qN1Ej4JGg5tZJFdWOdp4-14" edge="1">
          <mxGeometry relative="1" as="geometry" />
        </mxCell>
        <mxCell id="qN1Ej4JGg5tZJFdWOdp4-80" value="Request&lt;br&gt;JSON" style="edgeLabel;html=1;align=center;verticalAlign=middle;resizable=0;points=[];" parent="qN1Ej4JGg5tZJFdWOdp4-79" vertex="1" connectable="0">
          <mxGeometry x="-0.4053" y="1" relative="1" as="geometry">
            <mxPoint x="-37" y="-2" as="offset" />
          </mxGeometry>
        </mxCell>
        <mxCell id="qN1Ej4JGg5tZJFdWOdp4-81" style="edgeStyle=orthogonalEdgeStyle;rounded=0;orthogonalLoop=1;jettySize=auto;html=1;exitX=1;exitY=0.25;exitDx=0;exitDy=0;exitPerimeter=0;entryX=0;entryY=0.183;entryDx=0;entryDy=0;entryPerimeter=0;" parent="1" source="qN1Ej4JGg5tZJFdWOdp4-23" target="qN1Ej4JGg5tZJFdWOdp4-25" edge="1">
          <mxGeometry relative="1" as="geometry" />
        </mxCell>
        <mxCell id="qN1Ej4JGg5tZJFdWOdp4-82" value="Request&lt;br&gt;JSON" style="edgeLabel;html=1;align=center;verticalAlign=middle;resizable=0;points=[];" parent="qN1Ej4JGg5tZJFdWOdp4-81" vertex="1" connectable="0">
          <mxGeometry x="-0.7343" y="1" relative="1" as="geometry">
            <mxPoint as="offset" />
          </mxGeometry>
        </mxCell>
        <mxCell id="qN1Ej4JGg5tZJFdWOdp4-83" style="edgeStyle=orthogonalEdgeStyle;rounded=0;orthogonalLoop=1;jettySize=auto;html=1;exitX=1;exitY=0.25;exitDx=0;exitDy=0;exitPerimeter=0;entryX=0;entryY=0.25;entryDx=0;entryDy=0;entryPerimeter=0;" parent="1" source="qN1Ej4JGg5tZJFdWOdp4-7" target="qN1Ej4JGg5tZJFdWOdp4-19" edge="1">
          <mxGeometry relative="1" as="geometry" />
        </mxCell>
        <mxCell id="qN1Ej4JGg5tZJFdWOdp4-84" value="Request&lt;br&gt;JSON" style="edgeLabel;html=1;align=center;verticalAlign=middle;resizable=0;points=[];" parent="qN1Ej4JGg5tZJFdWOdp4-83" vertex="1" connectable="0">
          <mxGeometry x="-0.7305" y="3" relative="1" as="geometry">
            <mxPoint as="offset" />
          </mxGeometry>
        </mxCell>
        <mxCell id="qN1Ej4JGg5tZJFdWOdp4-85" style="edgeStyle=orthogonalEdgeStyle;rounded=0;orthogonalLoop=1;jettySize=auto;html=1;exitX=1;exitY=0.25;exitDx=0;exitDy=0;exitPerimeter=0;entryX=0;entryY=0.25;entryDx=0;entryDy=0;entryPerimeter=0;" parent="1" source="qN1Ej4JGg5tZJFdWOdp4-20" target="qN1Ej4JGg5tZJFdWOdp4-24" edge="1">
          <mxGeometry relative="1" as="geometry" />
        </mxCell>
        <mxCell id="qN1Ej4JGg5tZJFdWOdp4-86" value="Request&lt;br&gt;JSON" style="edgeLabel;html=1;align=center;verticalAlign=middle;resizable=0;points=[];" parent="qN1Ej4JGg5tZJFdWOdp4-85" vertex="1" connectable="0">
          <mxGeometry x="-0.8028" y="3" relative="1" as="geometry">
            <mxPoint as="offset" />
          </mxGeometry>
        </mxCell>
        <mxCell id="qN1Ej4JGg5tZJFdWOdp4-87" style="edgeStyle=orthogonalEdgeStyle;rounded=0;orthogonalLoop=1;jettySize=auto;html=1;exitX=1;exitY=0.25;exitDx=0;exitDy=0;exitPerimeter=0;entryX=0;entryY=0.25;entryDx=0;entryDy=0;entryPerimeter=0;" parent="1" source="qN1Ej4JGg5tZJFdWOdp4-21" target="qN1Ej4JGg5tZJFdWOdp4-31" edge="1">
          <mxGeometry relative="1" as="geometry" />
        </mxCell>
        <mxCell id="qN1Ej4JGg5tZJFdWOdp4-88" value="Request&lt;br&gt;JSON" style="edgeLabel;html=1;align=center;verticalAlign=middle;resizable=0;points=[];" parent="qN1Ej4JGg5tZJFdWOdp4-87" vertex="1" connectable="0">
          <mxGeometry x="-0.7404" y="-3" relative="1" as="geometry">
            <mxPoint as="offset" />
          </mxGeometry>
        </mxCell>
        <mxCell id="qN1Ej4JGg5tZJFdWOdp4-89" style="edgeStyle=orthogonalEdgeStyle;rounded=0;orthogonalLoop=1;jettySize=auto;html=1;exitX=1;exitY=0.25;exitDx=0;exitDy=0;exitPerimeter=0;entryX=0.008;entryY=0.317;entryDx=0;entryDy=0;entryPerimeter=0;" parent="1" source="qN1Ej4JGg5tZJFdWOdp4-6" target="qN1Ej4JGg5tZJFdWOdp4-40" edge="1">
          <mxGeometry relative="1" as="geometry" />
        </mxCell>
        <mxCell id="qN1Ej4JGg5tZJFdWOdp4-90" value="Request&lt;br&gt;JSON" style="edgeLabel;html=1;align=center;verticalAlign=middle;resizable=0;points=[];" parent="qN1Ej4JGg5tZJFdWOdp4-89" vertex="1" connectable="0">
          <mxGeometry x="-0.8231" y="3" relative="1" as="geometry">
            <mxPoint as="offset" />
          </mxGeometry>
        </mxCell>
        <mxCell id="qN1Ej4JGg5tZJFdWOdp4-91" style="edgeStyle=orthogonalEdgeStyle;rounded=0;orthogonalLoop=1;jettySize=auto;html=1;exitX=0;exitY=0.75;exitDx=0;exitDy=0;exitPerimeter=0;entryX=1;entryY=0.75;entryDx=0;entryDy=0;entryPerimeter=0;" parent="1" source="qN1Ej4JGg5tZJFdWOdp4-14" target="qN1Ej4JGg5tZJFdWOdp4-5" edge="1">
          <mxGeometry relative="1" as="geometry" />
        </mxCell>
        <mxCell id="qN1Ej4JGg5tZJFdWOdp4-92" value="Response&lt;br&gt;JSON" style="edgeLabel;html=1;align=center;verticalAlign=middle;resizable=0;points=[];" parent="qN1Ej4JGg5tZJFdWOdp4-91" vertex="1" connectable="0">
          <mxGeometry x="-0.2924" y="-2" relative="1" as="geometry">
            <mxPoint as="offset" />
          </mxGeometry>
        </mxCell>
        <mxCell id="qN1Ej4JGg5tZJFdWOdp4-93" style="edgeStyle=orthogonalEdgeStyle;rounded=0;orthogonalLoop=1;jettySize=auto;html=1;exitX=0;exitY=0.75;exitDx=0;exitDy=0;exitPerimeter=0;entryX=1;entryY=0.75;entryDx=0;entryDy=0;entryPerimeter=0;" parent="1" source="qN1Ej4JGg5tZJFdWOdp4-25" target="qN1Ej4JGg5tZJFdWOdp4-23" edge="1">
          <mxGeometry relative="1" as="geometry" />
        </mxCell>
        <mxCell id="qN1Ej4JGg5tZJFdWOdp4-94" value="Response&lt;br&gt;JSON" style="edgeLabel;html=1;align=center;verticalAlign=middle;resizable=0;points=[];" parent="qN1Ej4JGg5tZJFdWOdp4-93" vertex="1" connectable="0">
          <mxGeometry x="-0.3885" y="1" relative="1" as="geometry">
            <mxPoint as="offset" />
          </mxGeometry>
        </mxCell>
        <mxCell id="qN1Ej4JGg5tZJFdWOdp4-95" style="edgeStyle=orthogonalEdgeStyle;rounded=0;orthogonalLoop=1;jettySize=auto;html=1;exitX=0;exitY=0.75;exitDx=0;exitDy=0;exitPerimeter=0;entryX=1;entryY=0.75;entryDx=0;entryDy=0;entryPerimeter=0;" parent="1" source="qN1Ej4JGg5tZJFdWOdp4-19" target="qN1Ej4JGg5tZJFdWOdp4-7" edge="1">
          <mxGeometry relative="1" as="geometry" />
        </mxCell>
        <mxCell id="qN1Ej4JGg5tZJFdWOdp4-96" value="Response&lt;br&gt;JSON" style="edgeLabel;html=1;align=center;verticalAlign=middle;resizable=0;points=[];" parent="qN1Ej4JGg5tZJFdWOdp4-95" vertex="1" connectable="0">
          <mxGeometry x="-0.3546" y="-2" relative="1" as="geometry">
            <mxPoint as="offset" />
          </mxGeometry>
        </mxCell>
        <mxCell id="qN1Ej4JGg5tZJFdWOdp4-97" style="edgeStyle=orthogonalEdgeStyle;rounded=0;orthogonalLoop=1;jettySize=auto;html=1;exitX=0;exitY=0.75;exitDx=0;exitDy=0;exitPerimeter=0;entryX=1;entryY=0.75;entryDx=0;entryDy=0;entryPerimeter=0;" parent="1" source="qN1Ej4JGg5tZJFdWOdp4-24" target="qN1Ej4JGg5tZJFdWOdp4-20" edge="1">
          <mxGeometry relative="1" as="geometry" />
        </mxCell>
        <mxCell id="qN1Ej4JGg5tZJFdWOdp4-98" value="Response&lt;br&gt;JSON" style="edgeLabel;html=1;align=center;verticalAlign=middle;resizable=0;points=[];" parent="qN1Ej4JGg5tZJFdWOdp4-97" vertex="1" connectable="0">
          <mxGeometry x="-0.3451" y="-2" relative="1" as="geometry">
            <mxPoint as="offset" />
          </mxGeometry>
        </mxCell>
        <mxCell id="qN1Ej4JGg5tZJFdWOdp4-99" style="edgeStyle=orthogonalEdgeStyle;rounded=0;orthogonalLoop=1;jettySize=auto;html=1;exitX=0;exitY=0.75;exitDx=0;exitDy=0;exitPerimeter=0;entryX=1;entryY=0.75;entryDx=0;entryDy=0;entryPerimeter=0;" parent="1" source="qN1Ej4JGg5tZJFdWOdp4-31" target="qN1Ej4JGg5tZJFdWOdp4-21" edge="1">
          <mxGeometry relative="1" as="geometry" />
        </mxCell>
        <mxCell id="qN1Ej4JGg5tZJFdWOdp4-100" value="Response&lt;br&gt;JSON" style="edgeLabel;html=1;align=center;verticalAlign=middle;resizable=0;points=[];" parent="qN1Ej4JGg5tZJFdWOdp4-99" vertex="1" connectable="0">
          <mxGeometry x="-0.3404" y="-2" relative="1" as="geometry">
            <mxPoint as="offset" />
          </mxGeometry>
        </mxCell>
        <mxCell id="qN1Ej4JGg5tZJFdWOdp4-101" style="edgeStyle=orthogonalEdgeStyle;rounded=0;orthogonalLoop=1;jettySize=auto;html=1;exitX=0;exitY=0.75;exitDx=0;exitDy=0;exitPerimeter=0;entryX=1;entryY=0.5;entryDx=0;entryDy=0;entryPerimeter=0;" parent="1" source="qN1Ej4JGg5tZJFdWOdp4-40" target="qN1Ej4JGg5tZJFdWOdp4-6" edge="1">
          <mxGeometry relative="1" as="geometry" />
        </mxCell>
        <mxCell id="qN1Ej4JGg5tZJFdWOdp4-102" value="Response&lt;br&gt;JSON" style="edgeLabel;html=1;align=center;verticalAlign=middle;resizable=0;points=[];" parent="qN1Ej4JGg5tZJFdWOdp4-101" vertex="1" connectable="0">
          <mxGeometry x="-0.758" relative="1" as="geometry">
            <mxPoint as="offset" />
          </mxGeometry>
        </mxCell>
        <mxCell id="qN1Ej4JGg5tZJFdWOdp4-128" value="" style="group" parent="1" vertex="1" connectable="0">
          <mxGeometry x="1471" y="295" width="119.46" height="144" as="geometry" />
        </mxCell>
        <mxCell id="qN1Ej4JGg5tZJFdWOdp4-126" value="" style="image;sketch=0;aspect=fixed;html=1;points=[];align=center;fontSize=12;image=img/lib/mscae/Database_General.svg;" parent="qN1Ej4JGg5tZJFdWOdp4-128" vertex="1">
          <mxGeometry x="13.910949532710319" width="89.54181818181817" height="117.81818181818181" as="geometry" />
        </mxCell>
        <mxCell id="qN1Ej4JGg5tZJFdWOdp4-127" value="DB_Restaurante" style="text;html=1;align=center;verticalAlign=middle;resizable=0;points=[];autosize=1;strokeColor=none;fillColor=none;" parent="qN1Ej4JGg5tZJFdWOdp4-128" vertex="1">
          <mxGeometry y="115.63636363636363" width="107" height="26" as="geometry" />
        </mxCell>
        <object placeholders="1" c4Name="AtendimentoController" c4Type="JSON" c4Description="Controller responsavel pelo trafego de informação" label="&lt;font style=&quot;font-size: 16px&quot;&gt;&lt;b&gt;%c4Name%&lt;/b&gt;&lt;/font&gt;&lt;div&gt;[%c4Type%]&lt;/div&gt;&lt;br&gt;&lt;div&gt;&lt;font style=&quot;font-size: 11px&quot;&gt;&lt;font color=&quot;#cccccc&quot;&gt;%c4Description%&lt;/font&gt;&lt;/div&gt;" id="qN1Ej4JGg5tZJFdWOdp4-214">
          <mxCell style="rounded=1;whiteSpace=wrap;html=1;labelBackgroundColor=none;fillColor=#1061B0;fontColor=#ffffff;align=center;arcSize=10;strokeColor=#0D5091;metaEdit=1;resizable=0;points=[[0.25,0,0],[0.5,0,0],[0.75,0,0],[1,0.25,0],[1,0.5,0],[1,0.75,0],[0.75,1,0],[0.5,1,0],[0.25,1,0],[0,0.75,0],[0,0.5,0],[0,0.25,0]];" parent="1" vertex="1">
            <mxGeometry x="2352" y="186" width="240" height="120" as="geometry" />
          </mxCell>
        </object>
        <object placeholders="1" c4Name="ItemCardapioService" c4Type="JSON" c4Application="Service" label="&lt;font style=&quot;font-size: 16px&quot;&gt;&lt;b&gt;&lt;div style=&quot;text-align: left&quot;&gt;%c4Name%&lt;/div&gt;&lt;/b&gt;&lt;/font&gt;&lt;div style=&quot;text-align: left&quot;&gt;[%c4Application%]&lt;/div&gt;" id="qN1Ej4JGg5tZJFdWOdp4-215">
          <mxCell style="rounded=1;fontSize=11;whiteSpace=wrap;html=1;dashed=1;arcSize=20;fillColor=none;strokeColor=#666666;fontColor=#333333;labelBackgroundColor=none;align=left;verticalAlign=bottom;labelBorderColor=none;spacingTop=0;spacing=10;dashPattern=8 4;metaEdit=1;rotatable=0;perimeter=rectanglePerimeter;noLabel=0;labelPadding=0;allowArrows=0;connectable=0;expand=0;recursiveResize=0;editable=1;pointerEvents=0;absoluteArcSize=1;points=[[0.25,0,0],[0.5,0,0],[0.75,0,0],[1,0.25,0],[1,0.5,0],[1,0.75,0],[0.75,1,0],[0.5,1,0],[0.25,1,0],[0,0.75,0],[0,0.5,0],[0,0.25,0]];" parent="1" vertex="1">
            <mxGeometry x="2621" y="37" width="860" height="760" as="geometry" />
          </mxCell>
        </object>
        <mxCell id="qN1Ej4JGg5tZJFdWOdp4-216" style="edgeStyle=orthogonalEdgeStyle;rounded=0;orthogonalLoop=1;jettySize=auto;html=1;exitX=0;exitY=0.75;exitDx=0;exitDy=0;exitPerimeter=0;entryX=0.5;entryY=0;entryDx=0;entryDy=0;entryPerimeter=0;" parent="1" source="qN1Ej4JGg5tZJFdWOdp4-218" target="qN1Ej4JGg5tZJFdWOdp4-214" edge="1">
          <mxGeometry relative="1" as="geometry">
            <mxPoint x="2466" y="138" as="targetPoint" />
            <Array as="points">
              <mxPoint x="2488" y="138" />
              <mxPoint x="2488" y="139" />
              <mxPoint x="2472" y="139" />
            </Array>
          </mxGeometry>
        </mxCell>
        <mxCell id="qN1Ej4JGg5tZJFdWOdp4-217" value="Response&lt;br&gt;JSON" style="edgeLabel;html=1;align=center;verticalAlign=middle;resizable=0;points=[];" parent="qN1Ej4JGg5tZJFdWOdp4-216" vertex="1" connectable="0">
          <mxGeometry x="-0.1366" y="3" relative="1" as="geometry">
            <mxPoint x="-70" y="-8" as="offset" />
          </mxGeometry>
        </mxCell>
        <object placeholders="1" c4Name="ItemCardapioService" c4Type="JSON" c4Description="Service responsavel pelo Processamento e retorno da informação" label="&lt;font style=&quot;font-size: 16px&quot;&gt;&lt;b&gt;%c4Name%&lt;/b&gt;&lt;/font&gt;&lt;div&gt;[%c4Type%]&lt;/div&gt;&lt;br&gt;&lt;div&gt;&lt;font style=&quot;font-size: 11px&quot;&gt;&lt;font color=&quot;#cccccc&quot;&gt;%c4Description%&lt;/font&gt;&lt;/div&gt;" id="qN1Ej4JGg5tZJFdWOdp4-218">
          <mxCell style="rounded=1;whiteSpace=wrap;html=1;labelBackgroundColor=none;fillColor=#1061B0;fontColor=#ffffff;align=center;arcSize=10;strokeColor=#0D5091;metaEdit=1;resizable=0;points=[[0.25,0,0],[0.5,0,0],[0.75,0,0],[1,0.25,0],[1,0.5,0],[1,0.75,0],[0.75,1,0],[0.5,1,0],[0.25,1,0],[0,0.75,0],[0,0.5,0],[0,0.25,0]];" parent="1" vertex="1">
            <mxGeometry x="2651" y="48" width="240" height="120" as="geometry" />
          </mxCell>
        </object>
        <mxCell id="qN1Ej4JGg5tZJFdWOdp4-219" style="edgeStyle=orthogonalEdgeStyle;rounded=0;orthogonalLoop=1;jettySize=auto;html=1;exitX=0.25;exitY=0;exitDx=0;exitDy=0;exitPerimeter=0;entryX=0;entryY=0.25;entryDx=0;entryDy=0;entryPerimeter=0;" parent="1" source="qN1Ej4JGg5tZJFdWOdp4-214" target="qN1Ej4JGg5tZJFdWOdp4-218" edge="1">
          <mxGeometry relative="1" as="geometry">
            <mxPoint x="2412" y="48" as="targetPoint" />
            <Array as="points">
              <mxPoint x="2412" y="68" />
              <mxPoint x="2413" y="68" />
              <mxPoint x="2413" y="78" />
            </Array>
          </mxGeometry>
        </mxCell>
        <mxCell id="qN1Ej4JGg5tZJFdWOdp4-220" value="Request&lt;br&gt;JSON" style="edgeLabel;html=1;align=center;verticalAlign=middle;resizable=0;points=[];" parent="qN1Ej4JGg5tZJFdWOdp4-219" vertex="1" connectable="0">
          <mxGeometry x="-0.4005" y="2" relative="1" as="geometry">
            <mxPoint as="offset" />
          </mxGeometry>
        </mxCell>
        <mxCell id="qN1Ej4JGg5tZJFdWOdp4-221" style="edgeStyle=orthogonalEdgeStyle;rounded=0;orthogonalLoop=1;jettySize=auto;html=1;exitX=0.5;exitY=0;exitDx=0;exitDy=0;entryX=1;entryY=0.25;entryDx=0;entryDy=0;entryPerimeter=0;" parent="1" source="qN1Ej4JGg5tZJFdWOdp4-223" target="qN1Ej4JGg5tZJFdWOdp4-218" edge="1">
          <mxGeometry relative="1" as="geometry">
            <mxPoint x="3103" y="57" as="targetPoint" />
            <Array as="points">
              <mxPoint x="3103" y="72" />
              <mxPoint x="3104" y="72" />
              <mxPoint x="3104" y="78" />
            </Array>
          </mxGeometry>
        </mxCell>
        <mxCell id="qN1Ej4JGg5tZJFdWOdp4-222" value="Response&lt;br&gt;JSON" style="edgeLabel;html=1;align=center;verticalAlign=middle;resizable=0;points=[];" parent="qN1Ej4JGg5tZJFdWOdp4-221" vertex="1" connectable="0">
          <mxGeometry x="-0.4257" relative="1" as="geometry">
            <mxPoint as="offset" />
          </mxGeometry>
        </mxCell>
        <mxCell id="qN1Ej4JGg5tZJFdWOdp4-223" value="Metodos" style="shape=table;startSize=30;container=1;collapsible=0;childLayout=tableLayout;fontSize=16;align=left;verticalAlign=top;fillColor=none;strokeColor=none;fontColor=#4D4D4D;fontStyle=1;spacingLeft=6;spacing=0;resizable=0;" parent="1" vertex="1">
          <mxGeometry x="3013" y="148" width="180" height="210" as="geometry" />
        </mxCell>
        <mxCell id="qN1Ej4JGg5tZJFdWOdp4-224" value="" style="shape=tableRow;horizontal=0;startSize=0;swimlaneHead=0;swimlaneBody=0;strokeColor=inherit;top=0;left=0;bottom=0;right=0;collapsible=0;dropTarget=0;fillColor=none;points=[[0,0.5],[1,0.5]];portConstraint=eastwest;fontSize=12;" parent="qN1Ej4JGg5tZJFdWOdp4-223" vertex="1">
          <mxGeometry y="30" width="180" height="30" as="geometry" />
        </mxCell>
        <mxCell id="qN1Ej4JGg5tZJFdWOdp4-225" value="ListarItemCardapio" style="shape=partialRectangle;html=1;whiteSpace=wrap;connectable=0;strokeColor=inherit;overflow=hidden;fillColor=#1E4074;top=0;left=0;bottom=0;right=0;pointerEvents=1;fontSize=12;align=left;fontColor=#FFFFFF;gradientColor=none;spacingLeft=10;spacingRight=4;" parent="qN1Ej4JGg5tZJFdWOdp4-224" vertex="1">
          <mxGeometry width="180" height="30" as="geometry">
            <mxRectangle width="180" height="30" as="alternateBounds" />
          </mxGeometry>
        </mxCell>
        <mxCell id="qN1Ej4JGg5tZJFdWOdp4-226" value="" style="shape=tableRow;horizontal=0;startSize=0;swimlaneHead=0;swimlaneBody=0;strokeColor=inherit;top=0;left=0;bottom=0;right=0;collapsible=0;dropTarget=0;fillColor=none;points=[[0,0.5],[1,0.5]];portConstraint=eastwest;fontSize=12;" parent="qN1Ej4JGg5tZJFdWOdp4-223" vertex="1">
          <mxGeometry y="60" width="180" height="30" as="geometry" />
        </mxCell>
        <mxCell id="qN1Ej4JGg5tZJFdWOdp4-227" value="BuscarItemCardapioPorId" style="shape=partialRectangle;html=1;whiteSpace=wrap;connectable=0;strokeColor=inherit;overflow=hidden;fillColor=#3162AF;top=0;left=0;bottom=0;right=0;pointerEvents=1;fontSize=12;align=left;fontColor=#FFFFFF;gradientColor=none;spacingLeft=10;spacingRight=4;" parent="qN1Ej4JGg5tZJFdWOdp4-226" vertex="1">
          <mxGeometry width="180" height="30" as="geometry">
            <mxRectangle width="180" height="30" as="alternateBounds" />
          </mxGeometry>
        </mxCell>
        <mxCell id="qN1Ej4JGg5tZJFdWOdp4-228" value="" style="shape=tableRow;horizontal=0;startSize=0;swimlaneHead=0;swimlaneBody=0;strokeColor=inherit;top=0;left=0;bottom=0;right=0;collapsible=0;dropTarget=0;fillColor=none;points=[[0,0.5],[1,0.5]];portConstraint=eastwest;fontSize=12;" parent="qN1Ej4JGg5tZJFdWOdp4-223" vertex="1">
          <mxGeometry y="90" width="180" height="30" as="geometry" />
        </mxCell>
        <mxCell id="qN1Ej4JGg5tZJFdWOdp4-229" value="NovoItemCardapio" style="shape=partialRectangle;html=1;whiteSpace=wrap;connectable=0;strokeColor=inherit;overflow=hidden;fillColor=#52a2d8;top=0;left=0;bottom=0;right=0;pointerEvents=1;fontSize=12;align=left;fontColor=#FFFFFF;gradientColor=none;spacingLeft=10;spacingRight=4;" parent="qN1Ej4JGg5tZJFdWOdp4-228" vertex="1">
          <mxGeometry width="180" height="30" as="geometry">
            <mxRectangle width="180" height="30" as="alternateBounds" />
          </mxGeometry>
        </mxCell>
        <mxCell id="qN1Ej4JGg5tZJFdWOdp4-230" value="" style="shape=tableRow;horizontal=0;startSize=0;swimlaneHead=0;swimlaneBody=0;strokeColor=inherit;top=0;left=0;bottom=0;right=0;collapsible=0;dropTarget=0;fillColor=none;points=[[0,0.5],[1,0.5]];portConstraint=eastwest;fontSize=12;" parent="qN1Ej4JGg5tZJFdWOdp4-223" vertex="1">
          <mxGeometry y="120" width="180" height="30" as="geometry" />
        </mxCell>
        <mxCell id="qN1Ej4JGg5tZJFdWOdp4-231" value="EditarItemCardapio" style="shape=partialRectangle;html=1;whiteSpace=wrap;connectable=0;strokeColor=inherit;overflow=hidden;fillColor=#7dbef2;top=0;left=0;bottom=0;right=0;pointerEvents=1;fontSize=12;align=left;fontColor=#FFFFFF;gradientColor=none;spacingLeft=10;spacingRight=4;" parent="qN1Ej4JGg5tZJFdWOdp4-230" vertex="1">
          <mxGeometry width="180" height="30" as="geometry">
            <mxRectangle width="180" height="30" as="alternateBounds" />
          </mxGeometry>
        </mxCell>
        <mxCell id="qN1Ej4JGg5tZJFdWOdp4-232" value="" style="shape=tableRow;horizontal=0;startSize=0;swimlaneHead=0;swimlaneBody=0;strokeColor=inherit;top=0;left=0;bottom=0;right=0;collapsible=0;dropTarget=0;fillColor=none;points=[[0,0.5],[1,0.5]];portConstraint=eastwest;fontSize=12;" parent="qN1Ej4JGg5tZJFdWOdp4-223" vertex="1">
          <mxGeometry y="150" width="180" height="30" as="geometry" />
        </mxCell>
        <mxCell id="qN1Ej4JGg5tZJFdWOdp4-233" value="AlterarIngredientes" style="shape=partialRectangle;html=1;whiteSpace=wrap;connectable=0;strokeColor=inherit;overflow=hidden;fillColor=#6b6477;top=0;left=0;bottom=0;right=0;pointerEvents=1;fontSize=12;align=left;fontColor=#FFFFFF;gradientColor=none;spacingLeft=10;spacingRight=4;" parent="qN1Ej4JGg5tZJFdWOdp4-232" vertex="1">
          <mxGeometry width="180" height="30" as="geometry">
            <mxRectangle width="180" height="30" as="alternateBounds" />
          </mxGeometry>
        </mxCell>
        <mxCell id="qN1Ej4JGg5tZJFdWOdp4-234" value="" style="shape=tableRow;horizontal=0;startSize=0;swimlaneHead=0;swimlaneBody=0;strokeColor=inherit;top=0;left=0;bottom=0;right=0;collapsible=0;dropTarget=0;fillColor=none;points=[[0,0.5],[1,0.5]];portConstraint=eastwest;fontSize=12;" parent="qN1Ej4JGg5tZJFdWOdp4-223" vertex="1">
          <mxGeometry y="180" width="180" height="30" as="geometry" />
        </mxCell>
        <mxCell id="qN1Ej4JGg5tZJFdWOdp4-235" value="ExcluirItemCardapio" style="shape=partialRectangle;html=1;whiteSpace=wrap;connectable=0;strokeColor=inherit;overflow=hidden;fillColor=#8b8496;top=0;left=0;bottom=0;right=0;pointerEvents=1;fontSize=12;align=left;fontColor=#FFFFFF;gradientColor=none;spacingLeft=10;spacingRight=4;" parent="qN1Ej4JGg5tZJFdWOdp4-234" vertex="1">
          <mxGeometry width="180" height="30" as="geometry">
            <mxRectangle width="180" height="30" as="alternateBounds" />
          </mxGeometry>
        </mxCell>
        <mxCell id="qN1Ej4JGg5tZJFdWOdp4-242" style="edgeStyle=orthogonalEdgeStyle;rounded=0;orthogonalLoop=1;jettySize=auto;html=1;exitX=1;exitY=0.75;exitDx=0;exitDy=0;exitPerimeter=0;entryX=0;entryY=0;entryDx=0;entryDy=0;" parent="1" source="qN1Ej4JGg5tZJFdWOdp4-218" target="qN1Ej4JGg5tZJFdWOdp4-223" edge="1">
          <mxGeometry relative="1" as="geometry" />
        </mxCell>
        <mxCell id="qN1Ej4JGg5tZJFdWOdp4-243" value="Request&lt;br&gt;JSON" style="edgeLabel;html=1;align=center;verticalAlign=middle;resizable=0;points=[];" parent="qN1Ej4JGg5tZJFdWOdp4-242" vertex="1" connectable="0">
          <mxGeometry x="-0.3684" relative="1" as="geometry">
            <mxPoint as="offset" />
          </mxGeometry>
        </mxCell>
        <mxCell id="qN1Ej4JGg5tZJFdWOdp4-244" style="edgeStyle=orthogonalEdgeStyle;rounded=0;orthogonalLoop=1;jettySize=auto;html=1;exitX=0;exitY=0.5;exitDx=0;exitDy=0;" parent="1" source="qN1Ej4JGg5tZJFdWOdp4-224" edge="1">
          <mxGeometry relative="1" as="geometry" />
        </mxCell>
        <mxCell id="qN1Ej4JGg5tZJFdWOdp4-245" value="Request&lt;br&gt;JSON" style="edgeLabel;html=1;align=center;verticalAlign=middle;resizable=0;points=[];" parent="qN1Ej4JGg5tZJFdWOdp4-244" vertex="1" connectable="0">
          <mxGeometry x="-0.6157" y="-1" relative="1" as="geometry">
            <mxPoint as="offset" />
          </mxGeometry>
        </mxCell>
        <mxCell id="qN1Ej4JGg5tZJFdWOdp4-246" style="edgeStyle=orthogonalEdgeStyle;rounded=0;orthogonalLoop=1;jettySize=auto;html=1;exitX=0;exitY=0.5;exitDx=0;exitDy=0;entryX=0.034;entryY=0;entryDx=0;entryDy=0;entryPerimeter=0;" parent="1" source="qN1Ej4JGg5tZJFdWOdp4-226" edge="1">
          <mxGeometry relative="1" as="geometry" />
        </mxCell>
        <mxCell id="qN1Ej4JGg5tZJFdWOdp4-247" value="Request&lt;br&gt;JSON" style="edgeLabel;html=1;align=center;verticalAlign=middle;resizable=0;points=[];" parent="qN1Ej4JGg5tZJFdWOdp4-246" vertex="1" connectable="0">
          <mxGeometry x="-0.3543" y="1" relative="1" as="geometry">
            <mxPoint as="offset" />
          </mxGeometry>
        </mxCell>
        <mxCell id="qN1Ej4JGg5tZJFdWOdp4-252" style="edgeStyle=orthogonalEdgeStyle;rounded=0;orthogonalLoop=1;jettySize=auto;html=1;exitX=0;exitY=0.5;exitDx=0;exitDy=0;entryX=0.995;entryY=0.187;entryDx=0;entryDy=0;entryPerimeter=0;" parent="1" source="qN1Ej4JGg5tZJFdWOdp4-232" edge="1">
          <mxGeometry relative="1" as="geometry" />
        </mxCell>
        <mxCell id="qN1Ej4JGg5tZJFdWOdp4-253" value="Request&lt;br&gt;JSON" style="edgeLabel;html=1;align=center;verticalAlign=middle;resizable=0;points=[];" parent="qN1Ej4JGg5tZJFdWOdp4-252" vertex="1" connectable="0">
          <mxGeometry x="-0.4183" y="2" relative="1" as="geometry">
            <mxPoint as="offset" />
          </mxGeometry>
        </mxCell>
        <mxCell id="qN1Ej4JGg5tZJFdWOdp4-254" style="edgeStyle=orthogonalEdgeStyle;rounded=0;orthogonalLoop=1;jettySize=auto;html=1;exitX=0;exitY=0.5;exitDx=0;exitDy=0;entryX=0.928;entryY=0.441;entryDx=0;entryDy=0;entryPerimeter=0;" parent="1" source="qN1Ej4JGg5tZJFdWOdp4-234" edge="1">
          <mxGeometry relative="1" as="geometry" />
        </mxCell>
        <mxCell id="qN1Ej4JGg5tZJFdWOdp4-255" value="Request&lt;br&gt;JSON" style="edgeLabel;html=1;align=center;verticalAlign=middle;resizable=0;points=[];" parent="qN1Ej4JGg5tZJFdWOdp4-254" vertex="1" connectable="0">
          <mxGeometry x="-0.0495" y="2" relative="1" as="geometry">
            <mxPoint as="offset" />
          </mxGeometry>
        </mxCell>
        <mxCell id="qN1Ej4JGg5tZJFdWOdp4-264" value="" style="group" parent="1" vertex="1" connectable="0">
          <mxGeometry x="2623" y="359" width="137.46" height="184" as="geometry" />
        </mxCell>
        <mxCell id="qN1Ej4JGg5tZJFdWOdp4-265" value="" style="image;sketch=0;aspect=fixed;html=1;points=[];align=center;fontSize=12;image=img/lib/mscae/Database_General.svg;" parent="qN1Ej4JGg5tZJFdWOdp4-264" vertex="1">
          <mxGeometry x="16.007024299065467" width="103.03380484909364" height="135.57079585407058" as="geometry" />
        </mxCell>
        <mxCell id="qN1Ej4JGg5tZJFdWOdp4-266" value="DB_Restaurante" style="text;html=1;align=center;verticalAlign=middle;resizable=0;points=[];autosize=1;strokeColor=none;fillColor=none;" parent="qN1Ej4JGg5tZJFdWOdp4-264" vertex="1">
          <mxGeometry y="147.75757575757572" width="107" height="26" as="geometry" />
        </mxCell>
        <object placeholders="1" c4Type="Relationship" id="qN1Ej4JGg5tZJFdWOdp4-274">
          <mxCell style="endArrow=blockThin;html=1;fontSize=10;fontColor=#404040;strokeWidth=1;endFill=1;strokeColor=#828282;elbow=vertical;metaEdit=1;endSize=14;startSize=14;jumpStyle=arc;jumpSize=16;rounded=0;edgeStyle=orthogonalEdgeStyle;exitX=0.692;exitY=0.971;exitDx=0;exitDy=0;exitPerimeter=0;" parent="1" source="qN1Ej4JGg5tZJFdWOdp4-266" target="qN1Ej4JGg5tZJFdWOdp4-223" edge="1">
            <mxGeometry width="240" relative="1" as="geometry">
              <mxPoint x="2651" y="650" as="sourcePoint" />
              <mxPoint x="3331" y="65" as="targetPoint" />
              <Array as="points">
                <mxPoint x="2697" y="650" />
                <mxPoint x="3334" y="650" />
                <mxPoint x="3334" y="65" />
                <mxPoint x="3154" y="65" />
              </Array>
            </mxGeometry>
          </mxCell>
        </object>
        <mxCell id="qN1Ej4JGg5tZJFdWOdp4-275" value="Response&lt;br&gt;JSON" style="edgeLabel;html=1;align=center;verticalAlign=middle;resizable=0;points=[];" parent="qN1Ej4JGg5tZJFdWOdp4-274" vertex="1" connectable="0">
          <mxGeometry x="0.8644" y="1" relative="1" as="geometry">
            <mxPoint as="offset" />
          </mxGeometry>
        </mxCell>
        <mxCell id="qN1Ej4JGg5tZJFdWOdp4-276" style="edgeStyle=orthogonalEdgeStyle;rounded=0;orthogonalLoop=1;jettySize=auto;html=1;exitX=0;exitY=0.5;exitDx=0;exitDy=0;entryX=0.505;entryY=0;entryDx=0;entryDy=0;entryPerimeter=0;" parent="1" source="qN1Ej4JGg5tZJFdWOdp4-224" target="qN1Ej4JGg5tZJFdWOdp4-265" edge="1">
          <mxGeometry relative="1" as="geometry" />
        </mxCell>
        <mxCell id="qN1Ej4JGg5tZJFdWOdp4-278" value="Request&lt;br&gt;JSON" style="edgeLabel;html=1;align=center;verticalAlign=middle;resizable=0;points=[];" parent="qN1Ej4JGg5tZJFdWOdp4-276" vertex="1" connectable="0">
          <mxGeometry x="-0.5574" y="1" relative="1" as="geometry">
            <mxPoint as="offset" />
          </mxGeometry>
        </mxCell>
        <mxCell id="qN1Ej4JGg5tZJFdWOdp4-277" style="edgeStyle=orthogonalEdgeStyle;rounded=0;orthogonalLoop=1;jettySize=auto;html=1;exitX=0;exitY=0.5;exitDx=0;exitDy=0;" parent="1" source="qN1Ej4JGg5tZJFdWOdp4-226" edge="1">
          <mxGeometry relative="1" as="geometry">
            <mxPoint x="2713" y="358" as="targetPoint" />
          </mxGeometry>
        </mxCell>
        <mxCell id="qN1Ej4JGg5tZJFdWOdp4-279" value="Request&lt;br&gt;JSON" style="edgeLabel;html=1;align=center;verticalAlign=middle;resizable=0;points=[];" parent="qN1Ej4JGg5tZJFdWOdp4-277" vertex="1" connectable="0">
          <mxGeometry x="-0.6594" y="-2" relative="1" as="geometry">
            <mxPoint as="offset" />
          </mxGeometry>
        </mxCell>
        <mxCell id="qN1Ej4JGg5tZJFdWOdp4-280" style="edgeStyle=orthogonalEdgeStyle;rounded=0;orthogonalLoop=1;jettySize=auto;html=1;exitX=0;exitY=0.75;exitDx=0;exitDy=0;entryX=0.873;entryY=-0.007;entryDx=0;entryDy=0;entryPerimeter=0;" parent="1" source="qN1Ej4JGg5tZJFdWOdp4-223" target="qN1Ej4JGg5tZJFdWOdp4-265" edge="1">
          <mxGeometry relative="1" as="geometry" />
        </mxCell>
        <mxCell id="qN1Ej4JGg5tZJFdWOdp4-281" value="Request&lt;br&gt;JSON" style="edgeLabel;html=1;align=center;verticalAlign=middle;resizable=0;points=[];" parent="qN1Ej4JGg5tZJFdWOdp4-280" vertex="1" connectable="0">
          <mxGeometry x="-0.2572" y="5" relative="1" as="geometry">
            <mxPoint as="offset" />
          </mxGeometry>
        </mxCell>
        <mxCell id="qN1Ej4JGg5tZJFdWOdp4-282" style="edgeStyle=orthogonalEdgeStyle;rounded=0;orthogonalLoop=1;jettySize=auto;html=1;exitX=0;exitY=0.5;exitDx=0;exitDy=0;" parent="1" source="qN1Ej4JGg5tZJFdWOdp4-234" edge="1">
          <mxGeometry relative="1" as="geometry">
            <mxPoint x="2744" y="377" as="targetPoint" />
          </mxGeometry>
        </mxCell>
        <mxCell id="qN1Ej4JGg5tZJFdWOdp4-283" value="Request&lt;br&gt;JSON" style="edgeLabel;html=1;align=center;verticalAlign=middle;resizable=0;points=[];" parent="qN1Ej4JGg5tZJFdWOdp4-282" vertex="1" connectable="0">
          <mxGeometry x="-0.557" y="-4" relative="1" as="geometry">
            <mxPoint as="offset" />
          </mxGeometry>
        </mxCell>
        <mxCell id="qN1Ej4JGg5tZJFdWOdp4-284" value="" style="group" parent="1" vertex="1" connectable="0">
          <mxGeometry x="3519" y="31" width="1149" height="768" as="geometry" />
        </mxCell>
        <object placeholders="1" c4Name="AtendimentoController" c4Type="JSON" c4Description="Controller responsavel pelo trafego de informação" label="&lt;font style=&quot;font-size: 16px&quot;&gt;&lt;b&gt;%c4Name%&lt;/b&gt;&lt;/font&gt;&lt;div&gt;[%c4Type%]&lt;/div&gt;&lt;br&gt;&lt;div&gt;&lt;font style=&quot;font-size: 11px&quot;&gt;&lt;font color=&quot;#cccccc&quot;&gt;%c4Description%&lt;/font&gt;&lt;/div&gt;" id="qN1Ej4JGg5tZJFdWOdp4-285">
          <mxCell style="rounded=1;whiteSpace=wrap;html=1;labelBackgroundColor=none;fillColor=#1061B0;fontColor=#ffffff;align=center;arcSize=10;strokeColor=#0D5091;metaEdit=1;resizable=0;points=[[0.25,0,0],[0.5,0,0],[0.75,0,0],[1,0.25,0],[1,0.5,0],[1,0.75,0],[0.75,1,0],[0.5,1,0],[0.25,1,0],[0,0.75,0],[0,0.5,0],[0,0.25,0]];" parent="qN1Ej4JGg5tZJFdWOdp4-284" vertex="1">
            <mxGeometry y="149" width="240" height="120" as="geometry" />
          </mxCell>
        </object>
        <object placeholders="1" c4Name="IngredienteService" c4Type="JSON" c4Application="Service" label="&lt;font style=&quot;font-size: 16px&quot;&gt;&lt;b&gt;&lt;div style=&quot;text-align: left&quot;&gt;%c4Name%&lt;/div&gt;&lt;/b&gt;&lt;/font&gt;&lt;div style=&quot;text-align: left&quot;&gt;[%c4Application%]&lt;/div&gt;" id="qN1Ej4JGg5tZJFdWOdp4-286">
          <mxCell style="rounded=1;fontSize=11;whiteSpace=wrap;html=1;dashed=1;arcSize=20;fillColor=none;strokeColor=#666666;fontColor=#333333;labelBackgroundColor=none;align=left;verticalAlign=bottom;labelBorderColor=none;spacingTop=0;spacing=10;dashPattern=8 4;metaEdit=1;rotatable=0;perimeter=rectanglePerimeter;noLabel=0;labelPadding=0;allowArrows=0;connectable=0;expand=0;recursiveResize=0;editable=1;pointerEvents=0;absoluteArcSize=1;points=[[0.25,0,0],[0.5,0,0],[0.75,0,0],[1,0.25,0],[1,0.5,0],[1,0.75,0],[0.75,1,0],[0.5,1,0],[0.25,1,0],[0,0.75,0],[0,0.5,0],[0,0.25,0]];" parent="qN1Ej4JGg5tZJFdWOdp4-284" vertex="1">
            <mxGeometry x="269" width="860" height="760" as="geometry" />
          </mxCell>
        </object>
        <mxCell id="qN1Ej4JGg5tZJFdWOdp4-287" style="edgeStyle=orthogonalEdgeStyle;rounded=0;orthogonalLoop=1;jettySize=auto;html=1;exitX=0;exitY=0.75;exitDx=0;exitDy=0;exitPerimeter=0;entryX=0.5;entryY=0;entryDx=0;entryDy=0;entryPerimeter=0;" parent="qN1Ej4JGg5tZJFdWOdp4-284" source="qN1Ej4JGg5tZJFdWOdp4-289" target="qN1Ej4JGg5tZJFdWOdp4-285" edge="1">
          <mxGeometry relative="1" as="geometry">
            <mxPoint x="114" y="101" as="targetPoint" />
            <Array as="points">
              <mxPoint x="136" y="101" />
              <mxPoint x="136" y="102" />
              <mxPoint x="120" y="102" />
            </Array>
          </mxGeometry>
        </mxCell>
        <mxCell id="qN1Ej4JGg5tZJFdWOdp4-288" value="Response&lt;br&gt;JSON" style="edgeLabel;html=1;align=center;verticalAlign=middle;resizable=0;points=[];" parent="qN1Ej4JGg5tZJFdWOdp4-287" vertex="1" connectable="0">
          <mxGeometry x="-0.1366" y="3" relative="1" as="geometry">
            <mxPoint x="-70" y="-8" as="offset" />
          </mxGeometry>
        </mxCell>
        <object placeholders="1" c4Name="IngredienteService" c4Type="JSON" c4Description="Service responsavel pelo Processamento e retorno da informação" label="&lt;font style=&quot;font-size: 16px&quot;&gt;&lt;b&gt;%c4Name%&lt;/b&gt;&lt;/font&gt;&lt;div&gt;[%c4Type%]&lt;/div&gt;&lt;br&gt;&lt;div&gt;&lt;font style=&quot;font-size: 11px&quot;&gt;&lt;font color=&quot;#cccccc&quot;&gt;%c4Description%&lt;/font&gt;&lt;/div&gt;" id="qN1Ej4JGg5tZJFdWOdp4-289">
          <mxCell style="rounded=1;whiteSpace=wrap;html=1;labelBackgroundColor=none;fillColor=#1061B0;fontColor=#ffffff;align=center;arcSize=10;strokeColor=#0D5091;metaEdit=1;resizable=0;points=[[0.25,0,0],[0.5,0,0],[0.75,0,0],[1,0.25,0],[1,0.5,0],[1,0.75,0],[0.75,1,0],[0.5,1,0],[0.25,1,0],[0,0.75,0],[0,0.5,0],[0,0.25,0]];" parent="qN1Ej4JGg5tZJFdWOdp4-284" vertex="1">
            <mxGeometry x="299" y="11" width="240" height="120" as="geometry" />
          </mxCell>
        </object>
        <mxCell id="qN1Ej4JGg5tZJFdWOdp4-290" style="edgeStyle=orthogonalEdgeStyle;rounded=0;orthogonalLoop=1;jettySize=auto;html=1;exitX=0.25;exitY=0;exitDx=0;exitDy=0;exitPerimeter=0;entryX=0;entryY=0.25;entryDx=0;entryDy=0;entryPerimeter=0;" parent="qN1Ej4JGg5tZJFdWOdp4-284" source="qN1Ej4JGg5tZJFdWOdp4-285" target="qN1Ej4JGg5tZJFdWOdp4-289" edge="1">
          <mxGeometry relative="1" as="geometry">
            <mxPoint x="60" y="11" as="targetPoint" />
            <Array as="points">
              <mxPoint x="60" y="31" />
              <mxPoint x="61" y="31" />
              <mxPoint x="61" y="41" />
            </Array>
          </mxGeometry>
        </mxCell>
        <mxCell id="qN1Ej4JGg5tZJFdWOdp4-291" value="Request&lt;br&gt;JSON" style="edgeLabel;html=1;align=center;verticalAlign=middle;resizable=0;points=[];" parent="qN1Ej4JGg5tZJFdWOdp4-290" vertex="1" connectable="0">
          <mxGeometry x="-0.4005" y="2" relative="1" as="geometry">
            <mxPoint as="offset" />
          </mxGeometry>
        </mxCell>
        <mxCell id="qN1Ej4JGg5tZJFdWOdp4-292" style="edgeStyle=orthogonalEdgeStyle;rounded=0;orthogonalLoop=1;jettySize=auto;html=1;exitX=0.5;exitY=0;exitDx=0;exitDy=0;entryX=1;entryY=0.25;entryDx=0;entryDy=0;entryPerimeter=0;" parent="qN1Ej4JGg5tZJFdWOdp4-284" source="qN1Ej4JGg5tZJFdWOdp4-294" target="qN1Ej4JGg5tZJFdWOdp4-289" edge="1">
          <mxGeometry relative="1" as="geometry">
            <mxPoint x="751" y="20" as="targetPoint" />
            <Array as="points">
              <mxPoint x="751" y="35" />
              <mxPoint x="752" y="35" />
              <mxPoint x="752" y="41" />
            </Array>
          </mxGeometry>
        </mxCell>
        <mxCell id="qN1Ej4JGg5tZJFdWOdp4-293" value="Response&lt;br&gt;JSON" style="edgeLabel;html=1;align=center;verticalAlign=middle;resizable=0;points=[];" parent="qN1Ej4JGg5tZJFdWOdp4-292" vertex="1" connectable="0">
          <mxGeometry x="-0.4257" relative="1" as="geometry">
            <mxPoint as="offset" />
          </mxGeometry>
        </mxCell>
        <mxCell id="vqnwjUkODfAe8_d5qlSY-38" style="edgeStyle=orthogonalEdgeStyle;rounded=0;orthogonalLoop=1;jettySize=auto;html=1;exitX=0;exitY=0.75;exitDx=0;exitDy=0;" edge="1" parent="qN1Ej4JGg5tZJFdWOdp4-284" source="qN1Ej4JGg5tZJFdWOdp4-294" target="qN1Ej4JGg5tZJFdWOdp4-337">
          <mxGeometry relative="1" as="geometry">
            <mxPoint x="427" y="246" as="targetPoint" />
            <Array as="points">
              <mxPoint x="473" y="246" />
              <mxPoint x="473" y="323" />
            </Array>
          </mxGeometry>
        </mxCell>
        <mxCell id="vqnwjUkODfAe8_d5qlSY-39" value="Request&lt;br&gt;JSON" style="edgeLabel;html=1;align=center;verticalAlign=middle;resizable=0;points=[];" vertex="1" connectable="0" parent="vqnwjUkODfAe8_d5qlSY-38">
          <mxGeometry x="0.2587" y="2" relative="1" as="geometry">
            <mxPoint as="offset" />
          </mxGeometry>
        </mxCell>
        <mxCell id="qN1Ej4JGg5tZJFdWOdp4-294" value="Metodos" style="shape=table;startSize=30;container=1;collapsible=0;childLayout=tableLayout;fontSize=16;align=left;verticalAlign=top;fillColor=none;strokeColor=none;fontColor=#4D4D4D;fontStyle=1;spacingLeft=6;spacing=0;resizable=0;" parent="qN1Ej4JGg5tZJFdWOdp4-284" vertex="1">
          <mxGeometry x="661" y="111" width="180" height="180" as="geometry" />
        </mxCell>
        <mxCell id="qN1Ej4JGg5tZJFdWOdp4-295" value="" style="shape=tableRow;horizontal=0;startSize=0;swimlaneHead=0;swimlaneBody=0;strokeColor=inherit;top=0;left=0;bottom=0;right=0;collapsible=0;dropTarget=0;fillColor=none;points=[[0,0.5],[1,0.5]];portConstraint=eastwest;fontSize=12;" parent="qN1Ej4JGg5tZJFdWOdp4-294" vertex="1">
          <mxGeometry y="30" width="180" height="30" as="geometry" />
        </mxCell>
        <mxCell id="qN1Ej4JGg5tZJFdWOdp4-296" value="ListarIngredientes" style="shape=partialRectangle;html=1;whiteSpace=wrap;connectable=0;strokeColor=inherit;overflow=hidden;fillColor=#1E4074;top=0;left=0;bottom=0;right=0;pointerEvents=1;fontSize=12;align=left;fontColor=#FFFFFF;gradientColor=none;spacingLeft=10;spacingRight=4;" parent="qN1Ej4JGg5tZJFdWOdp4-295" vertex="1">
          <mxGeometry width="180" height="30" as="geometry">
            <mxRectangle width="180" height="30" as="alternateBounds" />
          </mxGeometry>
        </mxCell>
        <mxCell id="qN1Ej4JGg5tZJFdWOdp4-297" value="" style="shape=tableRow;horizontal=0;startSize=0;swimlaneHead=0;swimlaneBody=0;strokeColor=inherit;top=0;left=0;bottom=0;right=0;collapsible=0;dropTarget=0;fillColor=none;points=[[0,0.5],[1,0.5]];portConstraint=eastwest;fontSize=12;" parent="qN1Ej4JGg5tZJFdWOdp4-294" vertex="1">
          <mxGeometry y="60" width="180" height="30" as="geometry" />
        </mxCell>
        <mxCell id="qN1Ej4JGg5tZJFdWOdp4-298" value="BuscaIngredientePorId" style="shape=partialRectangle;html=1;whiteSpace=wrap;connectable=0;strokeColor=inherit;overflow=hidden;fillColor=#3162AF;top=0;left=0;bottom=0;right=0;pointerEvents=1;fontSize=12;align=left;fontColor=#FFFFFF;gradientColor=none;spacingLeft=10;spacingRight=4;" parent="qN1Ej4JGg5tZJFdWOdp4-297" vertex="1">
          <mxGeometry width="180" height="30" as="geometry">
            <mxRectangle width="180" height="30" as="alternateBounds" />
          </mxGeometry>
        </mxCell>
        <mxCell id="qN1Ej4JGg5tZJFdWOdp4-299" value="" style="shape=tableRow;horizontal=0;startSize=0;swimlaneHead=0;swimlaneBody=0;strokeColor=inherit;top=0;left=0;bottom=0;right=0;collapsible=0;dropTarget=0;fillColor=none;points=[[0,0.5],[1,0.5]];portConstraint=eastwest;fontSize=12;" parent="qN1Ej4JGg5tZJFdWOdp4-294" vertex="1">
          <mxGeometry y="90" width="180" height="30" as="geometry" />
        </mxCell>
        <mxCell id="qN1Ej4JGg5tZJFdWOdp4-300" value="NovoIngrediente" style="shape=partialRectangle;html=1;whiteSpace=wrap;connectable=0;strokeColor=inherit;overflow=hidden;fillColor=#52a2d8;top=0;left=0;bottom=0;right=0;pointerEvents=1;fontSize=12;align=left;fontColor=#FFFFFF;gradientColor=none;spacingLeft=10;spacingRight=4;" parent="qN1Ej4JGg5tZJFdWOdp4-299" vertex="1">
          <mxGeometry width="180" height="30" as="geometry">
            <mxRectangle width="180" height="30" as="alternateBounds" />
          </mxGeometry>
        </mxCell>
        <mxCell id="qN1Ej4JGg5tZJFdWOdp4-301" value="" style="shape=tableRow;horizontal=0;startSize=0;swimlaneHead=0;swimlaneBody=0;strokeColor=inherit;top=0;left=0;bottom=0;right=0;collapsible=0;dropTarget=0;fillColor=none;points=[[0,0.5],[1,0.5]];portConstraint=eastwest;fontSize=12;" parent="qN1Ej4JGg5tZJFdWOdp4-294" vertex="1">
          <mxGeometry y="120" width="180" height="30" as="geometry" />
        </mxCell>
        <mxCell id="qN1Ej4JGg5tZJFdWOdp4-302" value="ALterarIngrediente" style="shape=partialRectangle;html=1;whiteSpace=wrap;connectable=0;strokeColor=inherit;overflow=hidden;fillColor=#7dbef2;top=0;left=0;bottom=0;right=0;pointerEvents=1;fontSize=12;align=left;fontColor=#FFFFFF;gradientColor=none;spacingLeft=10;spacingRight=4;" parent="qN1Ej4JGg5tZJFdWOdp4-301" vertex="1">
          <mxGeometry width="180" height="30" as="geometry">
            <mxRectangle width="180" height="30" as="alternateBounds" />
          </mxGeometry>
        </mxCell>
        <mxCell id="qN1Ej4JGg5tZJFdWOdp4-303" value="" style="shape=tableRow;horizontal=0;startSize=0;swimlaneHead=0;swimlaneBody=0;strokeColor=inherit;top=0;left=0;bottom=0;right=0;collapsible=0;dropTarget=0;fillColor=none;points=[[0,0.5],[1,0.5]];portConstraint=eastwest;fontSize=12;" parent="qN1Ej4JGg5tZJFdWOdp4-294" vertex="1">
          <mxGeometry y="150" width="180" height="30" as="geometry" />
        </mxCell>
        <mxCell id="qN1Ej4JGg5tZJFdWOdp4-304" value="DeletarIngrediente" style="shape=partialRectangle;html=1;whiteSpace=wrap;connectable=0;strokeColor=inherit;overflow=hidden;fillColor=#6b6477;top=0;left=0;bottom=0;right=0;pointerEvents=1;fontSize=12;align=left;fontColor=#FFFFFF;gradientColor=none;spacingLeft=10;spacingRight=4;" parent="qN1Ej4JGg5tZJFdWOdp4-303" vertex="1">
          <mxGeometry width="180" height="30" as="geometry">
            <mxRectangle width="180" height="30" as="alternateBounds" />
          </mxGeometry>
        </mxCell>
        <mxCell id="qN1Ej4JGg5tZJFdWOdp4-313" style="edgeStyle=orthogonalEdgeStyle;rounded=0;orthogonalLoop=1;jettySize=auto;html=1;exitX=1;exitY=0.75;exitDx=0;exitDy=0;exitPerimeter=0;entryX=0;entryY=0;entryDx=0;entryDy=0;" parent="qN1Ej4JGg5tZJFdWOdp4-284" source="qN1Ej4JGg5tZJFdWOdp4-289" target="qN1Ej4JGg5tZJFdWOdp4-294" edge="1">
          <mxGeometry relative="1" as="geometry" />
        </mxCell>
        <mxCell id="qN1Ej4JGg5tZJFdWOdp4-314" value="Request&lt;br&gt;JSON" style="edgeLabel;html=1;align=center;verticalAlign=middle;resizable=0;points=[];" parent="qN1Ej4JGg5tZJFdWOdp4-313" vertex="1" connectable="0">
          <mxGeometry x="-0.3684" relative="1" as="geometry">
            <mxPoint as="offset" />
          </mxGeometry>
        </mxCell>
        <mxCell id="qN1Ej4JGg5tZJFdWOdp4-315" style="edgeStyle=orthogonalEdgeStyle;rounded=0;orthogonalLoop=1;jettySize=auto;html=1;exitX=0;exitY=0.5;exitDx=0;exitDy=0;" parent="qN1Ej4JGg5tZJFdWOdp4-284" source="qN1Ej4JGg5tZJFdWOdp4-295" edge="1">
          <mxGeometry relative="1" as="geometry" />
        </mxCell>
        <mxCell id="qN1Ej4JGg5tZJFdWOdp4-316" value="Request&lt;br&gt;JSON" style="edgeLabel;html=1;align=center;verticalAlign=middle;resizable=0;points=[];" parent="qN1Ej4JGg5tZJFdWOdp4-315" vertex="1" connectable="0">
          <mxGeometry x="-0.6157" y="-1" relative="1" as="geometry">
            <mxPoint as="offset" />
          </mxGeometry>
        </mxCell>
        <mxCell id="qN1Ej4JGg5tZJFdWOdp4-317" style="edgeStyle=orthogonalEdgeStyle;rounded=0;orthogonalLoop=1;jettySize=auto;html=1;exitX=0;exitY=0.5;exitDx=0;exitDy=0;entryX=0.034;entryY=0;entryDx=0;entryDy=0;entryPerimeter=0;" parent="qN1Ej4JGg5tZJFdWOdp4-284" source="qN1Ej4JGg5tZJFdWOdp4-297" edge="1">
          <mxGeometry relative="1" as="geometry" />
        </mxCell>
        <mxCell id="qN1Ej4JGg5tZJFdWOdp4-318" value="Request&lt;br&gt;JSON" style="edgeLabel;html=1;align=center;verticalAlign=middle;resizable=0;points=[];" parent="qN1Ej4JGg5tZJFdWOdp4-317" vertex="1" connectable="0">
          <mxGeometry x="-0.3543" y="1" relative="1" as="geometry">
            <mxPoint as="offset" />
          </mxGeometry>
        </mxCell>
        <mxCell id="qN1Ej4JGg5tZJFdWOdp4-323" style="edgeStyle=orthogonalEdgeStyle;rounded=0;orthogonalLoop=1;jettySize=auto;html=1;exitX=0;exitY=0.5;exitDx=0;exitDy=0;entryX=0.995;entryY=0.187;entryDx=0;entryDy=0;entryPerimeter=0;" parent="qN1Ej4JGg5tZJFdWOdp4-284" source="qN1Ej4JGg5tZJFdWOdp4-303" edge="1">
          <mxGeometry relative="1" as="geometry" />
        </mxCell>
        <mxCell id="qN1Ej4JGg5tZJFdWOdp4-324" value="Request&lt;br&gt;JSON" style="edgeLabel;html=1;align=center;verticalAlign=middle;resizable=0;points=[];" parent="qN1Ej4JGg5tZJFdWOdp4-323" vertex="1" connectable="0">
          <mxGeometry x="-0.4183" y="2" relative="1" as="geometry">
            <mxPoint as="offset" />
          </mxGeometry>
        </mxCell>
        <object placeholders="1" c4Type="Relationship" id="qN1Ej4JGg5tZJFdWOdp4-333">
          <mxCell style="endArrow=blockThin;html=1;fontSize=10;fontColor=#404040;strokeWidth=1;endFill=1;strokeColor=#828282;elbow=vertical;metaEdit=1;endSize=14;startSize=14;jumpStyle=arc;jumpSize=16;rounded=0;edgeStyle=orthogonalEdgeStyle;exitX=0.355;exitY=1.129;exitDx=0;exitDy=0;exitPerimeter=0;" parent="qN1Ej4JGg5tZJFdWOdp4-284" target="qN1Ej4JGg5tZJFdWOdp4-294" edge="1">
            <mxGeometry width="240" relative="1" as="geometry">
              <mxPoint x="420.9950000000001" y="391.99036363636367" as="sourcePoint" />
              <mxPoint x="772.01" y="104" as="targetPoint" />
              <Array as="points">
                <mxPoint x="421" y="455" />
                <mxPoint x="1022" y="455" />
                <mxPoint x="1022" y="43" />
                <mxPoint x="772" y="43" />
              </Array>
            </mxGeometry>
          </mxCell>
        </object>
        <mxCell id="qN1Ej4JGg5tZJFdWOdp4-334" value="Response&lt;br&gt;JSON" style="edgeLabel;html=1;align=center;verticalAlign=middle;resizable=0;points=[];" parent="qN1Ej4JGg5tZJFdWOdp4-333" vertex="1" connectable="0">
          <mxGeometry x="0.7191" y="-1" relative="1" as="geometry">
            <mxPoint as="offset" />
          </mxGeometry>
        </mxCell>
        <mxCell id="qN1Ej4JGg5tZJFdWOdp4-336" value="" style="group" parent="qN1Ej4JGg5tZJFdWOdp4-284" vertex="1" connectable="0">
          <mxGeometry x="325" y="255" width="137.46" height="184" as="geometry" />
        </mxCell>
        <mxCell id="qN1Ej4JGg5tZJFdWOdp4-337" value="" style="image;sketch=0;aspect=fixed;html=1;points=[];align=center;fontSize=12;image=img/lib/mscae/Database_General.svg;" parent="qN1Ej4JGg5tZJFdWOdp4-336" vertex="1">
          <mxGeometry x="16.007024299065467" width="103.03380484909364" height="135.57079585407058" as="geometry" />
        </mxCell>
        <mxCell id="qN1Ej4JGg5tZJFdWOdp4-338" value="DB_Restaurante" style="text;html=1;align=center;verticalAlign=middle;resizable=0;points=[];autosize=1;strokeColor=none;fillColor=none;" parent="qN1Ej4JGg5tZJFdWOdp4-336" vertex="1">
          <mxGeometry y="147.75757575757572" width="107" height="26" as="geometry" />
        </mxCell>
        <mxCell id="qN1Ej4JGg5tZJFdWOdp4-339" style="edgeStyle=orthogonalEdgeStyle;rounded=0;orthogonalLoop=1;jettySize=auto;html=1;exitX=0;exitY=0.5;exitDx=0;exitDy=0;" parent="qN1Ej4JGg5tZJFdWOdp4-284" source="qN1Ej4JGg5tZJFdWOdp4-295" target="qN1Ej4JGg5tZJFdWOdp4-337" edge="1">
          <mxGeometry relative="1" as="geometry" />
        </mxCell>
        <mxCell id="qN1Ej4JGg5tZJFdWOdp4-345" value="Request&lt;br style=&quot;font-size: 12px; background-color: rgb(27, 29, 30);&quot;&gt;&lt;span style=&quot;font-size: 12px; background-color: rgb(27, 29, 30);&quot;&gt;JSON&lt;/span&gt;" style="edgeLabel;html=1;align=center;verticalAlign=middle;resizable=0;points=[];" parent="qN1Ej4JGg5tZJFdWOdp4-339" vertex="1" connectable="0">
          <mxGeometry x="-0.6735" y="-2" relative="1" as="geometry">
            <mxPoint as="offset" />
          </mxGeometry>
        </mxCell>
        <mxCell id="qN1Ej4JGg5tZJFdWOdp4-340" style="edgeStyle=orthogonalEdgeStyle;rounded=0;orthogonalLoop=1;jettySize=auto;html=1;exitX=0;exitY=0.5;exitDx=0;exitDy=0;entryX=-0.01;entryY=0.044;entryDx=0;entryDy=0;entryPerimeter=0;" parent="qN1Ej4JGg5tZJFdWOdp4-284" source="qN1Ej4JGg5tZJFdWOdp4-297" target="qN1Ej4JGg5tZJFdWOdp4-337" edge="1">
          <mxGeometry relative="1" as="geometry" />
        </mxCell>
        <mxCell id="qN1Ej4JGg5tZJFdWOdp4-346" value="Request&lt;br style=&quot;font-size: 12px; background-color: rgb(27, 29, 30);&quot;&gt;&lt;span style=&quot;font-size: 12px; background-color: rgb(27, 29, 30);&quot;&gt;JSON&lt;/span&gt;" style="edgeLabel;html=1;align=center;verticalAlign=middle;resizable=0;points=[];" parent="qN1Ej4JGg5tZJFdWOdp4-340" vertex="1" connectable="0">
          <mxGeometry x="-0.5991" y="2" relative="1" as="geometry">
            <mxPoint as="offset" />
          </mxGeometry>
        </mxCell>
        <mxCell id="qN1Ej4JGg5tZJFdWOdp4-343" value="Request&lt;br style=&quot;font-size: 12px; background-color: rgb(27, 29, 30);&quot;&gt;&lt;span style=&quot;font-size: 12px; background-color: rgb(27, 29, 30);&quot;&gt;JSON&lt;/span&gt;" style="edgeStyle=orthogonalEdgeStyle;rounded=0;orthogonalLoop=1;jettySize=auto;html=1;exitX=0;exitY=0.5;exitDx=0;exitDy=0;entryX=1;entryY=0.715;entryDx=0;entryDy=0;entryPerimeter=0;" parent="qN1Ej4JGg5tZJFdWOdp4-284" source="qN1Ej4JGg5tZJFdWOdp4-303" target="qN1Ej4JGg5tZJFdWOdp4-337" edge="1">
          <mxGeometry relative="1" as="geometry">
            <mxPoint x="584" y="424" as="targetPoint" />
            <Array as="points">
              <mxPoint x="585" y="276" />
              <mxPoint x="585" y="352" />
            </Array>
          </mxGeometry>
        </mxCell>
        <mxCell id="vqnwjUkODfAe8_d5qlSY-25" value="" style="shape=link;html=1;rounded=0;" edge="1" parent="qN1Ej4JGg5tZJFdWOdp4-284">
          <mxGeometry width="100" relative="1" as="geometry">
            <mxPoint x="499" y="405.5" as="sourcePoint" />
            <mxPoint x="599" y="405.5" as="targetPoint" />
          </mxGeometry>
        </mxCell>
        <mxCell id="vqnwjUkODfAe8_d5qlSY-26" value="Produto&lt;br&gt;Repository" style="edgeLabel;html=1;align=center;verticalAlign=middle;resizable=0;points=[];" vertex="1" connectable="0" parent="vqnwjUkODfAe8_d5qlSY-25">
          <mxGeometry x="-0.08" relative="1" as="geometry">
            <mxPoint as="offset" />
          </mxGeometry>
        </mxCell>
        <mxCell id="vqnwjUkODfAe8_d5qlSY-30" style="edgeStyle=orthogonalEdgeStyle;rounded=0;orthogonalLoop=1;jettySize=auto;html=1;exitX=0.5;exitY=0;exitDx=0;exitDy=0;" edge="1" parent="qN1Ej4JGg5tZJFdWOdp4-284" source="vqnwjUkODfAe8_d5qlSY-27">
          <mxGeometry relative="1" as="geometry">
            <mxPoint x="657" y="209" as="targetPoint" />
            <Array as="points">
              <mxPoint x="548" y="209" />
            </Array>
          </mxGeometry>
        </mxCell>
        <mxCell id="vqnwjUkODfAe8_d5qlSY-31" value="Response_DB&lt;br&gt;JSON" style="edgeLabel;html=1;align=center;verticalAlign=middle;resizable=0;points=[];" vertex="1" connectable="0" parent="vqnwjUkODfAe8_d5qlSY-30">
          <mxGeometry x="-0.4412" y="1" relative="1" as="geometry">
            <mxPoint x="1" as="offset" />
          </mxGeometry>
        </mxCell>
        <mxCell id="vqnwjUkODfAe8_d5qlSY-27" value="" style="swimlane;startSize=0;" vertex="1" parent="qN1Ej4JGg5tZJFdWOdp4-284">
          <mxGeometry x="497" y="393" width="101" height="30" as="geometry" />
        </mxCell>
        <mxCell id="vqnwjUkODfAe8_d5qlSY-32" value="" style="endArrow=classic;html=1;rounded=0;entryX=0.109;entryY=0;entryDx=0;entryDy=0;entryPerimeter=0;exitX=-0.006;exitY=0.733;exitDx=0;exitDy=0;exitPerimeter=0;" edge="1" parent="qN1Ej4JGg5tZJFdWOdp4-284" source="qN1Ej4JGg5tZJFdWOdp4-299" target="vqnwjUkODfAe8_d5qlSY-27">
          <mxGeometry width="50" height="50" relative="1" as="geometry">
            <mxPoint x="656" y="215" as="sourcePoint" />
            <mxPoint x="508" y="374" as="targetPoint" />
            <Array as="points">
              <mxPoint x="508" y="218" />
            </Array>
          </mxGeometry>
        </mxCell>
        <mxCell id="vqnwjUkODfAe8_d5qlSY-33" value="Request_DB&lt;br&gt;JSON" style="edgeLabel;html=1;align=center;verticalAlign=middle;resizable=0;points=[];" vertex="1" connectable="0" parent="vqnwjUkODfAe8_d5qlSY-32">
          <mxGeometry x="0.3499" y="2" relative="1" as="geometry">
            <mxPoint as="offset" />
          </mxGeometry>
        </mxCell>
        <mxCell id="vqnwjUkODfAe8_d5qlSY-34" style="edgeStyle=orthogonalEdgeStyle;rounded=0;orthogonalLoop=1;jettySize=auto;html=1;exitX=0;exitY=0.5;exitDx=0;exitDy=0;" edge="1" parent="qN1Ej4JGg5tZJFdWOdp4-284" source="qN1Ej4JGg5tZJFdWOdp4-299">
          <mxGeometry relative="1" as="geometry">
            <mxPoint x="411" y="252" as="targetPoint" />
          </mxGeometry>
        </mxCell>
        <mxCell id="vqnwjUkODfAe8_d5qlSY-35" value="Request&lt;br&gt;JSON" style="edgeLabel;html=1;align=center;verticalAlign=middle;resizable=0;points=[];" vertex="1" connectable="0" parent="vqnwjUkODfAe8_d5qlSY-34">
          <mxGeometry x="0.422" y="-3" relative="1" as="geometry">
            <mxPoint as="offset" />
          </mxGeometry>
        </mxCell>
        <mxCell id="vqnwjUkODfAe8_d5qlSY-36" value="" style="endArrow=classic;html=1;rounded=0;" edge="1" parent="qN1Ej4JGg5tZJFdWOdp4-284">
          <mxGeometry width="50" height="50" relative="1" as="geometry">
            <mxPoint x="542" y="240" as="sourcePoint" />
            <mxPoint x="661" y="240" as="targetPoint" />
          </mxGeometry>
        </mxCell>
        <mxCell id="vqnwjUkODfAe8_d5qlSY-37" value="" style="endArrow=none;html=1;rounded=0;" edge="1" parent="qN1Ej4JGg5tZJFdWOdp4-284">
          <mxGeometry width="50" height="50" relative="1" as="geometry">
            <mxPoint x="507" y="252" as="sourcePoint" />
            <mxPoint x="659" y="252" as="targetPoint" />
          </mxGeometry>
        </mxCell>
        <object placeholders="1" c4Name="AtendimentoController" c4Type="JSON" c4Description="Controller responsavel pelo trafego de informação" label="&lt;font style=&quot;font-size: 16px&quot;&gt;&lt;b&gt;%c4Name%&lt;/b&gt;&lt;/font&gt;&lt;div&gt;[%c4Type%]&lt;/div&gt;&lt;br&gt;&lt;div&gt;&lt;font style=&quot;font-size: 11px&quot;&gt;&lt;font color=&quot;#cccccc&quot;&gt;%c4Description%&lt;/font&gt;&lt;/div&gt;" id="qN1Ej4JGg5tZJFdWOdp4-103">
          <mxCell style="rounded=1;whiteSpace=wrap;html=1;labelBackgroundColor=none;fillColor=#1061B0;fontColor=#ffffff;align=center;arcSize=10;strokeColor=#0D5091;metaEdit=1;resizable=0;points=[[0.25,0,0],[0.5,0,0],[0.75,0,0],[1,0.25,0],[1,0.5,0],[1,0.75,0],[0.75,1,0],[0.5,1,0],[0.25,1,0],[0,0.75,0],[0,0.5,0],[0,0.25,0]];" parent="1" vertex="1">
            <mxGeometry x="1185" y="190" width="240" height="120" as="geometry" />
          </mxCell>
        </object>
        <object placeholders="1" c4Name="AtendimentoService" c4Type="JSON" c4Application="Service" label="&lt;font style=&quot;font-size: 16px&quot;&gt;&lt;b&gt;&lt;div style=&quot;text-align: left&quot;&gt;%c4Name%&lt;/div&gt;&lt;/b&gt;&lt;/font&gt;&lt;div style=&quot;text-align: left&quot;&gt;[%c4Application%]&lt;/div&gt;" id="qN1Ej4JGg5tZJFdWOdp4-104">
          <mxCell style="rounded=1;fontSize=11;whiteSpace=wrap;html=1;dashed=1;arcSize=20;fillColor=none;strokeColor=#666666;fontColor=#333333;labelBackgroundColor=none;align=left;verticalAlign=bottom;labelBorderColor=none;spacingTop=0;spacing=10;dashPattern=8 4;metaEdit=1;rotatable=0;perimeter=rectanglePerimeter;noLabel=0;labelPadding=0;allowArrows=0;connectable=0;expand=0;recursiveResize=0;editable=1;pointerEvents=0;absoluteArcSize=1;points=[[0.25,0,0],[0.5,0,0],[0.75,0,0],[1,0.25,0],[1,0.5,0],[1,0.75,0],[0.75,1,0],[0.5,1,0],[0.25,1,0],[0,0.75,0],[0,0.5,0],[0,0.25,0]];" parent="1" vertex="1">
            <mxGeometry x="1454" y="41" width="860" height="760" as="geometry" />
          </mxCell>
        </object>
        <mxCell id="qN1Ej4JGg5tZJFdWOdp4-157" style="edgeStyle=orthogonalEdgeStyle;rounded=0;orthogonalLoop=1;jettySize=auto;html=1;exitX=0;exitY=0.75;exitDx=0;exitDy=0;exitPerimeter=0;entryX=0.5;entryY=0;entryDx=0;entryDy=0;entryPerimeter=0;" parent="1" source="qN1Ej4JGg5tZJFdWOdp4-105" target="qN1Ej4JGg5tZJFdWOdp4-103" edge="1">
          <mxGeometry relative="1" as="geometry">
            <mxPoint x="1299" y="142" as="targetPoint" />
            <Array as="points">
              <mxPoint x="1321" y="142" />
              <mxPoint x="1321" y="143" />
              <mxPoint x="1305" y="143" />
            </Array>
          </mxGeometry>
        </mxCell>
        <mxCell id="qN1Ej4JGg5tZJFdWOdp4-158" value="Response&lt;br&gt;JSON" style="edgeLabel;html=1;align=center;verticalAlign=middle;resizable=0;points=[];" parent="qN1Ej4JGg5tZJFdWOdp4-157" vertex="1" connectable="0">
          <mxGeometry x="-0.1366" y="3" relative="1" as="geometry">
            <mxPoint x="-70" y="-8" as="offset" />
          </mxGeometry>
        </mxCell>
        <object placeholders="1" c4Name="AtendimentoService" c4Type="JSON" c4Description="Service responsavel pelo Processamento e retorno da informação" label="&lt;font style=&quot;font-size: 16px&quot;&gt;&lt;b&gt;%c4Name%&lt;/b&gt;&lt;/font&gt;&lt;div&gt;[%c4Type%]&lt;/div&gt;&lt;br&gt;&lt;div&gt;&lt;font style=&quot;font-size: 11px&quot;&gt;&lt;font color=&quot;#cccccc&quot;&gt;%c4Description%&lt;/font&gt;&lt;/div&gt;" id="qN1Ej4JGg5tZJFdWOdp4-105">
          <mxCell style="rounded=1;whiteSpace=wrap;html=1;labelBackgroundColor=none;fillColor=#1061B0;fontColor=#ffffff;align=center;arcSize=10;strokeColor=#0D5091;metaEdit=1;resizable=0;points=[[0.25,0,0],[0.5,0,0],[0.75,0,0],[1,0.25,0],[1,0.5,0],[1,0.75,0],[0.75,1,0],[0.5,1,0],[0.25,1,0],[0,0.75,0],[0,0.5,0],[0,0.25,0]];" parent="1" vertex="1">
            <mxGeometry x="1484" y="52" width="240" height="120" as="geometry" />
          </mxCell>
        </object>
        <mxCell id="qN1Ej4JGg5tZJFdWOdp4-155" style="edgeStyle=orthogonalEdgeStyle;rounded=0;orthogonalLoop=1;jettySize=auto;html=1;exitX=0.25;exitY=0;exitDx=0;exitDy=0;exitPerimeter=0;entryX=0;entryY=0.25;entryDx=0;entryDy=0;entryPerimeter=0;" parent="1" source="qN1Ej4JGg5tZJFdWOdp4-103" target="qN1Ej4JGg5tZJFdWOdp4-105" edge="1">
          <mxGeometry relative="1" as="geometry">
            <mxPoint x="1245" y="52" as="targetPoint" />
            <Array as="points">
              <mxPoint x="1245" y="72" />
              <mxPoint x="1246" y="72" />
              <mxPoint x="1246" y="82" />
            </Array>
          </mxGeometry>
        </mxCell>
        <mxCell id="qN1Ej4JGg5tZJFdWOdp4-156" value="Request&lt;br&gt;JSON" style="edgeLabel;html=1;align=center;verticalAlign=middle;resizable=0;points=[];" parent="qN1Ej4JGg5tZJFdWOdp4-155" vertex="1" connectable="0">
          <mxGeometry x="-0.4005" y="2" relative="1" as="geometry">
            <mxPoint as="offset" />
          </mxGeometry>
        </mxCell>
        <mxCell id="qN1Ej4JGg5tZJFdWOdp4-153" style="edgeStyle=orthogonalEdgeStyle;rounded=0;orthogonalLoop=1;jettySize=auto;html=1;exitX=0.5;exitY=0;exitDx=0;exitDy=0;entryX=1;entryY=0.25;entryDx=0;entryDy=0;entryPerimeter=0;" parent="1" source="qN1Ej4JGg5tZJFdWOdp4-106" target="qN1Ej4JGg5tZJFdWOdp4-105" edge="1">
          <mxGeometry relative="1" as="geometry">
            <mxPoint x="1936" y="61" as="targetPoint" />
            <Array as="points">
              <mxPoint x="1936" y="76" />
              <mxPoint x="1937" y="76" />
              <mxPoint x="1937" y="82" />
            </Array>
          </mxGeometry>
        </mxCell>
        <mxCell id="qN1Ej4JGg5tZJFdWOdp4-154" value="Response&lt;br&gt;JSON" style="edgeLabel;html=1;align=center;verticalAlign=middle;resizable=0;points=[];" parent="qN1Ej4JGg5tZJFdWOdp4-153" vertex="1" connectable="0">
          <mxGeometry x="-0.4257" relative="1" as="geometry">
            <mxPoint as="offset" />
          </mxGeometry>
        </mxCell>
        <mxCell id="qN1Ej4JGg5tZJFdWOdp4-106" value="Metodos" style="shape=table;startSize=30;container=1;collapsible=0;childLayout=tableLayout;fontSize=16;align=left;verticalAlign=top;fillColor=none;strokeColor=none;fontColor=#4D4D4D;fontStyle=1;spacingLeft=6;spacing=0;resizable=0;" parent="1" vertex="1">
          <mxGeometry x="1846" y="152" width="180" height="300" as="geometry" />
        </mxCell>
        <mxCell id="qN1Ej4JGg5tZJFdWOdp4-107" value="" style="shape=tableRow;horizontal=0;startSize=0;swimlaneHead=0;swimlaneBody=0;strokeColor=inherit;top=0;left=0;bottom=0;right=0;collapsible=0;dropTarget=0;fillColor=none;points=[[0,0.5],[1,0.5]];portConstraint=eastwest;fontSize=12;" parent="qN1Ej4JGg5tZJFdWOdp4-106" vertex="1">
          <mxGeometry y="30" width="180" height="30" as="geometry" />
        </mxCell>
        <mxCell id="qN1Ej4JGg5tZJFdWOdp4-108" value="ListarAtendimentos" style="shape=partialRectangle;html=1;whiteSpace=wrap;connectable=0;strokeColor=inherit;overflow=hidden;fillColor=#1E4074;top=0;left=0;bottom=0;right=0;pointerEvents=1;fontSize=12;align=left;fontColor=#FFFFFF;gradientColor=none;spacingLeft=10;spacingRight=4;" parent="qN1Ej4JGg5tZJFdWOdp4-107" vertex="1">
          <mxGeometry width="180" height="30" as="geometry">
            <mxRectangle width="180" height="30" as="alternateBounds" />
          </mxGeometry>
        </mxCell>
        <mxCell id="qN1Ej4JGg5tZJFdWOdp4-109" value="" style="shape=tableRow;horizontal=0;startSize=0;swimlaneHead=0;swimlaneBody=0;strokeColor=inherit;top=0;left=0;bottom=0;right=0;collapsible=0;dropTarget=0;fillColor=none;points=[[0,0.5],[1,0.5]];portConstraint=eastwest;fontSize=12;" parent="qN1Ej4JGg5tZJFdWOdp4-106" vertex="1">
          <mxGeometry y="60" width="180" height="30" as="geometry" />
        </mxCell>
        <mxCell id="qN1Ej4JGg5tZJFdWOdp4-110" value="BuscarAtendimentoPorId" style="shape=partialRectangle;html=1;whiteSpace=wrap;connectable=0;strokeColor=inherit;overflow=hidden;fillColor=#3162AF;top=0;left=0;bottom=0;right=0;pointerEvents=1;fontSize=12;align=left;fontColor=#FFFFFF;gradientColor=none;spacingLeft=10;spacingRight=4;" parent="qN1Ej4JGg5tZJFdWOdp4-109" vertex="1">
          <mxGeometry width="180" height="30" as="geometry">
            <mxRectangle width="180" height="30" as="alternateBounds" />
          </mxGeometry>
        </mxCell>
        <mxCell id="qN1Ej4JGg5tZJFdWOdp4-111" value="" style="shape=tableRow;horizontal=0;startSize=0;swimlaneHead=0;swimlaneBody=0;strokeColor=inherit;top=0;left=0;bottom=0;right=0;collapsible=0;dropTarget=0;fillColor=none;points=[[0,0.5],[1,0.5]];portConstraint=eastwest;fontSize=12;" parent="qN1Ej4JGg5tZJFdWOdp4-106" vertex="1">
          <mxGeometry y="90" width="180" height="30" as="geometry" />
        </mxCell>
        <mxCell id="qN1Ej4JGg5tZJFdWOdp4-112" value="NovoAtendimento" style="shape=partialRectangle;html=1;whiteSpace=wrap;connectable=0;strokeColor=inherit;overflow=hidden;fillColor=#52a2d8;top=0;left=0;bottom=0;right=0;pointerEvents=1;fontSize=12;align=left;fontColor=#FFFFFF;gradientColor=none;spacingLeft=10;spacingRight=4;" parent="qN1Ej4JGg5tZJFdWOdp4-111" vertex="1">
          <mxGeometry width="180" height="30" as="geometry">
            <mxRectangle width="180" height="30" as="alternateBounds" />
          </mxGeometry>
        </mxCell>
        <mxCell id="qN1Ej4JGg5tZJFdWOdp4-113" value="" style="shape=tableRow;horizontal=0;startSize=0;swimlaneHead=0;swimlaneBody=0;strokeColor=inherit;top=0;left=0;bottom=0;right=0;collapsible=0;dropTarget=0;fillColor=none;points=[[0,0.5],[1,0.5]];portConstraint=eastwest;fontSize=12;" parent="qN1Ej4JGg5tZJFdWOdp4-106" vertex="1">
          <mxGeometry y="120" width="180" height="30" as="geometry" />
        </mxCell>
        <mxCell id="qN1Ej4JGg5tZJFdWOdp4-114" value="AdicionarItemCardapio" style="shape=partialRectangle;html=1;whiteSpace=wrap;connectable=0;strokeColor=inherit;overflow=hidden;fillColor=#7dbef2;top=0;left=0;bottom=0;right=0;pointerEvents=1;fontSize=12;align=left;fontColor=#FFFFFF;gradientColor=none;spacingLeft=10;spacingRight=4;" parent="qN1Ej4JGg5tZJFdWOdp4-113" vertex="1">
          <mxGeometry width="180" height="30" as="geometry">
            <mxRectangle width="180" height="30" as="alternateBounds" />
          </mxGeometry>
        </mxCell>
        <mxCell id="qN1Ej4JGg5tZJFdWOdp4-115" value="" style="shape=tableRow;horizontal=0;startSize=0;swimlaneHead=0;swimlaneBody=0;strokeColor=inherit;top=0;left=0;bottom=0;right=0;collapsible=0;dropTarget=0;fillColor=none;points=[[0,0.5],[1,0.5]];portConstraint=eastwest;fontSize=12;" parent="qN1Ej4JGg5tZJFdWOdp4-106" vertex="1">
          <mxGeometry y="150" width="180" height="30" as="geometry" />
        </mxCell>
        <mxCell id="qN1Ej4JGg5tZJFdWOdp4-116" value="PedidoPronto" style="shape=partialRectangle;html=1;whiteSpace=wrap;connectable=0;strokeColor=inherit;overflow=hidden;fillColor=#6b6477;top=0;left=0;bottom=0;right=0;pointerEvents=1;fontSize=12;align=left;fontColor=#FFFFFF;gradientColor=none;spacingLeft=10;spacingRight=4;" parent="qN1Ej4JGg5tZJFdWOdp4-115" vertex="1">
          <mxGeometry width="180" height="30" as="geometry">
            <mxRectangle width="180" height="30" as="alternateBounds" />
          </mxGeometry>
        </mxCell>
        <mxCell id="qN1Ej4JGg5tZJFdWOdp4-117" value="" style="shape=tableRow;horizontal=0;startSize=0;swimlaneHead=0;swimlaneBody=0;strokeColor=inherit;top=0;left=0;bottom=0;right=0;collapsible=0;dropTarget=0;fillColor=none;points=[[0,0.5],[1,0.5]];portConstraint=eastwest;fontSize=12;" parent="qN1Ej4JGg5tZJFdWOdp4-106" vertex="1">
          <mxGeometry y="180" width="180" height="30" as="geometry" />
        </mxCell>
        <mxCell id="qN1Ej4JGg5tZJFdWOdp4-118" value="PedidoEntregue" style="shape=partialRectangle;html=1;whiteSpace=wrap;connectable=0;strokeColor=inherit;overflow=hidden;fillColor=#8b8496;top=0;left=0;bottom=0;right=0;pointerEvents=1;fontSize=12;align=left;fontColor=#FFFFFF;gradientColor=none;spacingLeft=10;spacingRight=4;" parent="qN1Ej4JGg5tZJFdWOdp4-117" vertex="1">
          <mxGeometry width="180" height="30" as="geometry">
            <mxRectangle width="180" height="30" as="alternateBounds" />
          </mxGeometry>
        </mxCell>
        <mxCell id="qN1Ej4JGg5tZJFdWOdp4-119" value="" style="shape=tableRow;horizontal=0;startSize=0;swimlaneHead=0;swimlaneBody=0;strokeColor=inherit;top=0;left=0;bottom=0;right=0;collapsible=0;dropTarget=0;fillColor=none;points=[[0,0.5],[1,0.5]];portConstraint=eastwest;fontSize=12;" parent="qN1Ej4JGg5tZJFdWOdp4-106" vertex="1">
          <mxGeometry y="210" width="180" height="30" as="geometry" />
        </mxCell>
        <mxCell id="qN1Ej4JGg5tZJFdWOdp4-120" value="PedidoFinalizado" style="shape=partialRectangle;html=1;whiteSpace=wrap;connectable=0;strokeColor=inherit;overflow=hidden;fillColor=#8b8496;top=0;left=0;bottom=0;right=0;pointerEvents=1;fontSize=12;align=left;fontColor=#FFFFFF;gradientColor=none;spacingLeft=10;spacingRight=4;" parent="qN1Ej4JGg5tZJFdWOdp4-119" vertex="1">
          <mxGeometry width="180" height="30" as="geometry">
            <mxRectangle width="180" height="30" as="alternateBounds" />
          </mxGeometry>
        </mxCell>
        <mxCell id="qN1Ej4JGg5tZJFdWOdp4-121" value="" style="shape=tableRow;horizontal=0;startSize=0;swimlaneHead=0;swimlaneBody=0;strokeColor=inherit;top=0;left=0;bottom=0;right=0;collapsible=0;dropTarget=0;fillColor=none;points=[[0,0.5],[1,0.5]];portConstraint=eastwest;fontSize=12;" parent="qN1Ej4JGg5tZJFdWOdp4-106" vertex="1">
          <mxGeometry y="240" width="180" height="30" as="geometry" />
        </mxCell>
        <mxCell id="qN1Ej4JGg5tZJFdWOdp4-122" value="CancelarPedido" style="shape=partialRectangle;html=1;whiteSpace=wrap;connectable=0;strokeColor=inherit;overflow=hidden;fillColor=#8b8496;top=0;left=0;bottom=0;right=0;pointerEvents=1;fontSize=12;align=left;fontColor=#FFFFFF;gradientColor=none;spacingLeft=10;spacingRight=4;" parent="qN1Ej4JGg5tZJFdWOdp4-121" vertex="1">
          <mxGeometry width="180" height="30" as="geometry">
            <mxRectangle width="180" height="30" as="alternateBounds" />
          </mxGeometry>
        </mxCell>
        <mxCell id="qN1Ej4JGg5tZJFdWOdp4-123" value="" style="shape=tableRow;horizontal=0;startSize=0;swimlaneHead=0;swimlaneBody=0;strokeColor=inherit;top=0;left=0;bottom=0;right=0;collapsible=0;dropTarget=0;fillColor=none;points=[[0,0.5],[1,0.5]];portConstraint=eastwest;fontSize=12;" parent="qN1Ej4JGg5tZJFdWOdp4-106" vertex="1">
          <mxGeometry y="270" width="180" height="30" as="geometry" />
        </mxCell>
        <mxCell id="qN1Ej4JGg5tZJFdWOdp4-124" value="DeletarAtendimento" style="shape=partialRectangle;html=1;whiteSpace=wrap;connectable=0;strokeColor=inherit;overflow=hidden;fillColor=#8b8496;top=0;left=0;bottom=0;right=0;pointerEvents=1;fontSize=12;align=left;fontColor=#FFFFFF;gradientColor=none;spacingLeft=10;spacingRight=4;" parent="qN1Ej4JGg5tZJFdWOdp4-123" vertex="1">
          <mxGeometry width="180" height="30" as="geometry">
            <mxRectangle width="180" height="30" as="alternateBounds" />
          </mxGeometry>
        </mxCell>
        <mxCell id="qN1Ej4JGg5tZJFdWOdp4-151" style="edgeStyle=orthogonalEdgeStyle;rounded=0;orthogonalLoop=1;jettySize=auto;html=1;exitX=1;exitY=0.75;exitDx=0;exitDy=0;exitPerimeter=0;entryX=0;entryY=0;entryDx=0;entryDy=0;" parent="1" source="qN1Ej4JGg5tZJFdWOdp4-105" target="qN1Ej4JGg5tZJFdWOdp4-106" edge="1">
          <mxGeometry relative="1" as="geometry" />
        </mxCell>
        <mxCell id="qN1Ej4JGg5tZJFdWOdp4-152" value="Request&lt;br&gt;JSON" style="edgeLabel;html=1;align=center;verticalAlign=middle;resizable=0;points=[];" parent="qN1Ej4JGg5tZJFdWOdp4-151" vertex="1" connectable="0">
          <mxGeometry x="-0.3684" relative="1" as="geometry">
            <mxPoint as="offset" />
          </mxGeometry>
        </mxCell>
        <mxCell id="qN1Ej4JGg5tZJFdWOdp4-129" style="edgeStyle=orthogonalEdgeStyle;rounded=0;orthogonalLoop=1;jettySize=auto;html=1;exitX=0;exitY=0.5;exitDx=0;exitDy=0;" parent="1" source="qN1Ej4JGg5tZJFdWOdp4-107" target="qN1Ej4JGg5tZJFdWOdp4-126" edge="1">
          <mxGeometry relative="1" as="geometry" />
        </mxCell>
        <mxCell id="qN1Ej4JGg5tZJFdWOdp4-141" value="Request&lt;br&gt;JSON" style="edgeLabel;html=1;align=center;verticalAlign=middle;resizable=0;points=[];" parent="qN1Ej4JGg5tZJFdWOdp4-129" vertex="1" connectable="0">
          <mxGeometry x="-0.6157" y="-1" relative="1" as="geometry">
            <mxPoint as="offset" />
          </mxGeometry>
        </mxCell>
        <mxCell id="qN1Ej4JGg5tZJFdWOdp4-130" style="edgeStyle=orthogonalEdgeStyle;rounded=0;orthogonalLoop=1;jettySize=auto;html=1;exitX=0;exitY=0.5;exitDx=0;exitDy=0;entryX=0.034;entryY=0;entryDx=0;entryDy=0;entryPerimeter=0;" parent="1" source="qN1Ej4JGg5tZJFdWOdp4-109" target="qN1Ej4JGg5tZJFdWOdp4-126" edge="1">
          <mxGeometry relative="1" as="geometry" />
        </mxCell>
        <mxCell id="qN1Ej4JGg5tZJFdWOdp4-142" value="Request&lt;br&gt;JSON" style="edgeLabel;html=1;align=center;verticalAlign=middle;resizable=0;points=[];" parent="qN1Ej4JGg5tZJFdWOdp4-130" vertex="1" connectable="0">
          <mxGeometry x="-0.3543" y="1" relative="1" as="geometry">
            <mxPoint x="-145" y="-5" as="offset" />
          </mxGeometry>
        </mxCell>
        <mxCell id="qN1Ej4JGg5tZJFdWOdp4-135" style="edgeStyle=orthogonalEdgeStyle;rounded=0;orthogonalLoop=1;jettySize=auto;html=1;exitX=0;exitY=0.5;exitDx=0;exitDy=0;entryX=0.984;entryY=0.688;entryDx=0;entryDy=0;entryPerimeter=0;" parent="1" source="qN1Ej4JGg5tZJFdWOdp4-119" target="qN1Ej4JGg5tZJFdWOdp4-126" edge="1">
          <mxGeometry relative="1" as="geometry" />
        </mxCell>
        <mxCell id="qN1Ej4JGg5tZJFdWOdp4-148" value="Request&lt;br&gt;JSON" style="edgeLabel;html=1;align=center;verticalAlign=middle;resizable=0;points=[];" parent="qN1Ej4JGg5tZJFdWOdp4-135" vertex="1" connectable="0">
          <mxGeometry x="-0.7979" relative="1" as="geometry">
            <mxPoint as="offset" />
          </mxGeometry>
        </mxCell>
        <object placeholders="1" c4Type="Relationship" id="qN1Ej4JGg5tZJFdWOdp4-268">
          <mxCell style="endArrow=blockThin;html=1;fontSize=10;fontColor=#404040;strokeWidth=1;endFill=1;strokeColor=#828282;elbow=vertical;metaEdit=1;endSize=14;startSize=14;jumpStyle=arc;jumpSize=16;rounded=0;edgeStyle=orthogonalEdgeStyle;exitX=0.355;exitY=1.129;exitDx=0;exitDy=0;exitPerimeter=0;" parent="1" target="qN1Ej4JGg5tZJFdWOdp4-106" edge="1">
            <mxGeometry width="240" relative="1" as="geometry">
              <mxPoint x="1605.9950000000001" y="432.99036363636367" as="sourcePoint" />
              <mxPoint x="1957.01" y="145" as="targetPoint" />
              <Array as="points">
                <mxPoint x="1606" y="496" />
                <mxPoint x="2207" y="496" />
                <mxPoint x="2207" y="84" />
                <mxPoint x="1957" y="84" />
              </Array>
            </mxGeometry>
          </mxCell>
        </object>
        <mxCell id="qN1Ej4JGg5tZJFdWOdp4-269" value="Response&lt;br&gt;JSON" style="edgeLabel;html=1;align=center;verticalAlign=middle;resizable=0;points=[];" parent="qN1Ej4JGg5tZJFdWOdp4-268" vertex="1" connectable="0">
          <mxGeometry x="0.7191" y="-1" relative="1" as="geometry">
            <mxPoint as="offset" />
          </mxGeometry>
        </mxCell>
        <mxCell id="vqnwjUkODfAe8_d5qlSY-1" value="" style="shape=link;html=1;rounded=0;" edge="1" parent="1">
          <mxGeometry width="100" relative="1" as="geometry">
            <mxPoint x="1605" y="252.5" as="sourcePoint" />
            <mxPoint x="1705" y="252.5" as="targetPoint" />
          </mxGeometry>
        </mxCell>
        <mxCell id="vqnwjUkODfAe8_d5qlSY-4" value="Ingrediente&lt;br&gt;Repository" style="edgeLabel;html=1;align=center;verticalAlign=middle;resizable=0;points=[];" vertex="1" connectable="0" parent="vqnwjUkODfAe8_d5qlSY-1">
          <mxGeometry x="-0.08" y="-2" relative="1" as="geometry">
            <mxPoint as="offset" />
          </mxGeometry>
        </mxCell>
        <mxCell id="vqnwjUkODfAe8_d5qlSY-2" style="edgeStyle=orthogonalEdgeStyle;rounded=0;orthogonalLoop=1;jettySize=auto;html=1;exitX=0;exitY=0.5;exitDx=0;exitDy=0;entryX=0.973;entryY=0.238;entryDx=0;entryDy=0;entryPerimeter=0;" edge="1" parent="1" source="qN1Ej4JGg5tZJFdWOdp4-115" target="qN1Ej4JGg5tZJFdWOdp4-126">
          <mxGeometry relative="1" as="geometry" />
        </mxCell>
        <mxCell id="vqnwjUkODfAe8_d5qlSY-3" style="edgeStyle=orthogonalEdgeStyle;rounded=0;orthogonalLoop=1;jettySize=auto;html=1;exitX=0;exitY=0.5;exitDx=0;exitDy=0;" edge="1" parent="1" source="qN1Ej4JGg5tZJFdWOdp4-117" target="qN1Ej4JGg5tZJFdWOdp4-126">
          <mxGeometry relative="1" as="geometry" />
        </mxCell>
        <mxCell id="vqnwjUkODfAe8_d5qlSY-5" value="" style="swimlane;startSize=0;" vertex="1" parent="1">
          <mxGeometry x="1603" y="234" width="102" height="48" as="geometry">
            <mxRectangle x="1603" y="234" width="104" height="44" as="alternateBounds" />
          </mxGeometry>
        </mxCell>
        <mxCell id="vqnwjUkODfAe8_d5qlSY-6" value="" style="endArrow=classic;startArrow=classic;html=1;rounded=0;" edge="1" parent="1">
          <mxGeometry width="50" height="50" relative="1" as="geometry">
            <mxPoint x="1713" y="248" as="sourcePoint" />
            <mxPoint x="1834" y="248" as="targetPoint" />
          </mxGeometry>
        </mxCell>
        <mxCell id="vqnwjUkODfAe8_d5qlSY-7" value="Request&lt;br style=&quot;font-size: 11px;&quot;&gt;&lt;span style=&quot;font-size: 11px; background-color: rgb(24, 20, 29);&quot;&gt;JSON&lt;/span&gt;" style="text;html=1;align=center;verticalAlign=middle;resizable=0;points=[];autosize=1;strokeColor=none;fillColor=none;" vertex="1" parent="1">
          <mxGeometry x="1714" y="216" width="63" height="41" as="geometry" />
        </mxCell>
        <mxCell id="vqnwjUkODfAe8_d5qlSY-8" value="Response&lt;br style=&quot;font-size: 11px;&quot;&gt;&lt;span style=&quot;font-size: 11px; background-color: rgb(24, 20, 29);&quot;&gt;JSON&lt;/span&gt;" style="text;html=1;align=center;verticalAlign=middle;resizable=0;points=[];autosize=1;strokeColor=none;fillColor=none;" vertex="1" parent="1">
          <mxGeometry x="1763" y="240" width="72" height="41" as="geometry" />
        </mxCell>
        <mxCell id="vqnwjUkODfAe8_d5qlSY-9" style="edgeStyle=orthogonalEdgeStyle;rounded=0;orthogonalLoop=1;jettySize=auto;html=1;exitX=0;exitY=0.5;exitDx=0;exitDy=0;entryX=0.973;entryY=0.042;entryDx=0;entryDy=0;entryPerimeter=0;" edge="1" parent="1" source="qN1Ej4JGg5tZJFdWOdp4-111" target="qN1Ej4JGg5tZJFdWOdp4-126">
          <mxGeometry relative="1" as="geometry">
            <mxPoint x="1831" y="301" as="targetPoint" />
            <Array as="points">
              <mxPoint x="1826" y="257" />
              <mxPoint x="1826" y="300" />
            </Array>
          </mxGeometry>
        </mxCell>
        <mxCell id="vqnwjUkODfAe8_d5qlSY-10" value="Request&lt;br&gt;JSON" style="edgeLabel;html=1;align=center;verticalAlign=middle;resizable=0;points=[];" vertex="1" connectable="0" parent="vqnwjUkODfAe8_d5qlSY-9">
          <mxGeometry x="0.7099" y="-2" relative="1" as="geometry">
            <mxPoint as="offset" />
          </mxGeometry>
        </mxCell>
        <mxCell id="vqnwjUkODfAe8_d5qlSY-11" value="" style="endArrow=classic;html=1;rounded=0;entryX=0.508;entryY=1.122;entryDx=0;entryDy=0;entryPerimeter=0;" edge="1" parent="1" target="vqnwjUkODfAe8_d5qlSY-7">
          <mxGeometry width="50" height="50" relative="1" as="geometry">
            <mxPoint x="1844" y="281" as="sourcePoint" />
            <mxPoint x="1715" y="281" as="targetPoint" />
            <Array as="points">
              <mxPoint x="1747" y="283" />
            </Array>
          </mxGeometry>
        </mxCell>
        <mxCell id="vqnwjUkODfAe8_d5qlSY-12" style="edgeStyle=orthogonalEdgeStyle;rounded=0;orthogonalLoop=1;jettySize=auto;html=1;exitX=0;exitY=0.5;exitDx=0;exitDy=0;" edge="1" parent="1" source="qN1Ej4JGg5tZJFdWOdp4-113">
          <mxGeometry relative="1" as="geometry">
            <mxPoint x="1578" y="340" as="targetPoint" />
            <Array as="points">
              <mxPoint x="1702" y="287" />
              <mxPoint x="1702" y="288" />
              <mxPoint x="1692" y="288" />
              <mxPoint x="1692" y="333" />
              <mxPoint x="1694" y="333" />
            </Array>
          </mxGeometry>
        </mxCell>
        <mxCell id="vqnwjUkODfAe8_d5qlSY-13" value="" style="shape=link;html=1;rounded=0;" edge="1" parent="1">
          <mxGeometry width="100" relative="1" as="geometry">
            <mxPoint x="2960" y="444" as="sourcePoint" />
            <mxPoint x="3060" y="444" as="targetPoint" />
          </mxGeometry>
        </mxCell>
        <mxCell id="vqnwjUkODfAe8_d5qlSY-14" value="Ingrediente&lt;br&gt;Repository" style="edgeLabel;html=1;align=center;verticalAlign=middle;resizable=0;points=[];" vertex="1" connectable="0" parent="vqnwjUkODfAe8_d5qlSY-13">
          <mxGeometry x="0.1" y="-2" relative="1" as="geometry">
            <mxPoint as="offset" />
          </mxGeometry>
        </mxCell>
        <mxCell id="vqnwjUkODfAe8_d5qlSY-17" style="edgeStyle=orthogonalEdgeStyle;rounded=0;orthogonalLoop=1;jettySize=auto;html=1;exitX=0.25;exitY=0;exitDx=0;exitDy=0;entryX=-0.008;entryY=0.233;entryDx=0;entryDy=0;entryPerimeter=0;" edge="1" parent="1" source="vqnwjUkODfAe8_d5qlSY-15" target="qN1Ej4JGg5tZJFdWOdp4-228">
          <mxGeometry relative="1" as="geometry">
            <mxPoint x="2986" y="240" as="targetPoint" />
            <Array as="points">
              <mxPoint x="2986" y="245" />
            </Array>
          </mxGeometry>
        </mxCell>
        <mxCell id="vqnwjUkODfAe8_d5qlSY-20" value="Response_DB" style="edgeLabel;html=1;align=center;verticalAlign=middle;resizable=0;points=[];" vertex="1" connectable="0" parent="vqnwjUkODfAe8_d5qlSY-17">
          <mxGeometry x="-0.671" y="-1" relative="1" as="geometry">
            <mxPoint x="13" as="offset" />
          </mxGeometry>
        </mxCell>
        <mxCell id="vqnwjUkODfAe8_d5qlSY-15" value="" style="swimlane;startSize=0;" vertex="1" parent="1">
          <mxGeometry x="2960" y="432" width="103" height="27" as="geometry" />
        </mxCell>
        <mxCell id="vqnwjUkODfAe8_d5qlSY-16" style="edgeStyle=orthogonalEdgeStyle;rounded=0;orthogonalLoop=1;jettySize=auto;html=1;exitX=0;exitY=0.5;exitDx=0;exitDy=0;entryX=0;entryY=0;entryDx=0;entryDy=0;" edge="1" parent="1" source="qN1Ej4JGg5tZJFdWOdp4-228" target="vqnwjUkODfAe8_d5qlSY-15">
          <mxGeometry relative="1" as="geometry" />
        </mxCell>
        <mxCell id="vqnwjUkODfAe8_d5qlSY-19" value="Reqest_DB" style="edgeLabel;html=1;align=center;verticalAlign=middle;resizable=0;points=[];" vertex="1" connectable="0" parent="vqnwjUkODfAe8_d5qlSY-16">
          <mxGeometry x="0.4483" y="-3" relative="1" as="geometry">
            <mxPoint as="offset" />
          </mxGeometry>
        </mxCell>
        <mxCell id="vqnwjUkODfAe8_d5qlSY-18" value="" style="endArrow=classic;html=1;rounded=0;exitX=-0.028;exitY=0.8;exitDx=0;exitDy=0;exitPerimeter=0;" edge="1" parent="1" source="qN1Ej4JGg5tZJFdWOdp4-228">
          <mxGeometry width="50" height="50" relative="1" as="geometry">
            <mxPoint x="3010" y="245" as="sourcePoint" />
            <mxPoint x="2721" y="358" as="targetPoint" />
            <Array as="points">
              <mxPoint x="2721" y="245" />
            </Array>
          </mxGeometry>
        </mxCell>
        <mxCell id="vqnwjUkODfAe8_d5qlSY-21" value="Request" style="edgeLabel;html=1;align=center;verticalAlign=middle;resizable=0;points=[];" vertex="1" connectable="0" parent="vqnwjUkODfAe8_d5qlSY-18">
          <mxGeometry x="0.0799" y="2" relative="1" as="geometry">
            <mxPoint as="offset" />
          </mxGeometry>
        </mxCell>
        <mxCell id="vqnwjUkODfAe8_d5qlSY-22" value="" style="endArrow=classic;html=1;rounded=0;" edge="1" parent="1">
          <mxGeometry width="50" height="50" relative="1" as="geometry">
            <mxPoint x="2984" y="280" as="sourcePoint" />
            <mxPoint x="3019" y="280" as="targetPoint" />
          </mxGeometry>
        </mxCell>
        <mxCell id="vqnwjUkODfAe8_d5qlSY-23" value="" style="endArrow=none;html=1;rounded=0;" edge="1" parent="1">
          <mxGeometry width="50" height="50" relative="1" as="geometry">
            <mxPoint x="2960" y="288" as="sourcePoint" />
            <mxPoint x="3010" y="286" as="targetPoint" />
          </mxGeometry>
        </mxCell>
        <mxCell id="vqnwjUkODfAe8_d5qlSY-24" style="edgeStyle=orthogonalEdgeStyle;rounded=0;orthogonalLoop=1;jettySize=auto;html=1;exitX=0;exitY=0.5;exitDx=0;exitDy=0;" edge="1" parent="1" source="qN1Ej4JGg5tZJFdWOdp4-230">
          <mxGeometry relative="1" as="geometry">
            <mxPoint x="2663" y="356" as="targetPoint" />
          </mxGeometry>
        </mxCell>
        <mxCell id="vqnwjUkODfAe8_d5qlSY-28" value="Request" style="edgeLabel;html=1;align=center;verticalAlign=middle;resizable=0;points=[];" vertex="1" connectable="0" parent="vqnwjUkODfAe8_d5qlSY-24">
          <mxGeometry x="0.1503" y="-3" relative="1" as="geometry">
            <mxPoint as="offset" />
          </mxGeometry>
        </mxCell>
        <mxCell id="vqnwjUkODfAe8_d5qlSY-40" value="" style="group" vertex="1" connectable="0" parent="1">
          <mxGeometry x="4686" y="13" width="1149" height="768" as="geometry" />
        </mxCell>
        <object placeholders="1" c4Name="AtendimentoController" c4Type="JSON" c4Description="Controller responsavel pelo trafego de informação" label="&lt;font style=&quot;font-size: 16px&quot;&gt;&lt;b&gt;%c4Name%&lt;/b&gt;&lt;/font&gt;&lt;div&gt;[%c4Type%]&lt;/div&gt;&lt;br&gt;&lt;div&gt;&lt;font style=&quot;font-size: 11px&quot;&gt;&lt;font color=&quot;#cccccc&quot;&gt;%c4Description%&lt;/font&gt;&lt;/div&gt;" id="vqnwjUkODfAe8_d5qlSY-41">
          <mxCell style="rounded=1;whiteSpace=wrap;html=1;labelBackgroundColor=none;fillColor=#1061B0;fontColor=#ffffff;align=center;arcSize=10;strokeColor=#0D5091;metaEdit=1;resizable=0;points=[[0.25,0,0],[0.5,0,0],[0.75,0,0],[1,0.25,0],[1,0.5,0],[1,0.75,0],[0.75,1,0],[0.5,1,0],[0.25,1,0],[0,0.75,0],[0,0.5,0],[0,0.25,0]];" vertex="1" parent="vqnwjUkODfAe8_d5qlSY-40">
            <mxGeometry y="149" width="240" height="120" as="geometry" />
          </mxCell>
        </object>
        <object placeholders="1" c4Name="ProdutoService" c4Type="JSON" c4Application="Service" label="&lt;font style=&quot;font-size: 16px&quot;&gt;&lt;b&gt;&lt;div style=&quot;text-align: left&quot;&gt;%c4Name%&lt;/div&gt;&lt;/b&gt;&lt;/font&gt;&lt;div style=&quot;text-align: left&quot;&gt;[%c4Application%]&lt;/div&gt;" id="vqnwjUkODfAe8_d5qlSY-42">
          <mxCell style="rounded=1;fontSize=11;whiteSpace=wrap;html=1;dashed=1;arcSize=20;fillColor=none;strokeColor=#666666;fontColor=#333333;labelBackgroundColor=none;align=left;verticalAlign=bottom;labelBorderColor=none;spacingTop=0;spacing=10;dashPattern=8 4;metaEdit=1;rotatable=0;perimeter=rectanglePerimeter;noLabel=0;labelPadding=0;allowArrows=0;connectable=0;expand=0;recursiveResize=0;editable=1;pointerEvents=0;absoluteArcSize=1;points=[[0.25,0,0],[0.5,0,0],[0.75,0,0],[1,0.25,0],[1,0.5,0],[1,0.75,0],[0.75,1,0],[0.5,1,0],[0.25,1,0],[0,0.75,0],[0,0.5,0],[0,0.25,0]];" vertex="1" parent="vqnwjUkODfAe8_d5qlSY-40">
            <mxGeometry x="269" width="860" height="760" as="geometry" />
          </mxCell>
        </object>
        <mxCell id="vqnwjUkODfAe8_d5qlSY-43" style="edgeStyle=orthogonalEdgeStyle;rounded=0;orthogonalLoop=1;jettySize=auto;html=1;exitX=0;exitY=0.75;exitDx=0;exitDy=0;exitPerimeter=0;entryX=0.5;entryY=0;entryDx=0;entryDy=0;entryPerimeter=0;" edge="1" parent="vqnwjUkODfAe8_d5qlSY-40" source="vqnwjUkODfAe8_d5qlSY-45" target="vqnwjUkODfAe8_d5qlSY-41">
          <mxGeometry relative="1" as="geometry">
            <mxPoint x="114" y="101" as="targetPoint" />
            <Array as="points">
              <mxPoint x="136" y="101" />
              <mxPoint x="136" y="102" />
              <mxPoint x="120" y="102" />
            </Array>
          </mxGeometry>
        </mxCell>
        <mxCell id="vqnwjUkODfAe8_d5qlSY-44" value="Response&lt;br&gt;JSON" style="edgeLabel;html=1;align=center;verticalAlign=middle;resizable=0;points=[];" vertex="1" connectable="0" parent="vqnwjUkODfAe8_d5qlSY-43">
          <mxGeometry x="-0.1366" y="3" relative="1" as="geometry">
            <mxPoint x="-70" y="-8" as="offset" />
          </mxGeometry>
        </mxCell>
        <object placeholders="1" c4Name="PodutoService" c4Type="JSON" c4Description="Service responsavel pelo Processamento e retorno da informação" label="&lt;font style=&quot;font-size: 16px&quot;&gt;&lt;b&gt;%c4Name%&lt;/b&gt;&lt;/font&gt;&lt;div&gt;[%c4Type%]&lt;/div&gt;&lt;br&gt;&lt;div&gt;&lt;font style=&quot;font-size: 11px&quot;&gt;&lt;font color=&quot;#cccccc&quot;&gt;%c4Description%&lt;/font&gt;&lt;/div&gt;" id="vqnwjUkODfAe8_d5qlSY-45">
          <mxCell style="rounded=1;whiteSpace=wrap;html=1;labelBackgroundColor=none;fillColor=#1061B0;fontColor=#ffffff;align=center;arcSize=10;strokeColor=#0D5091;metaEdit=1;resizable=0;points=[[0.25,0,0],[0.5,0,0],[0.75,0,0],[1,0.25,0],[1,0.5,0],[1,0.75,0],[0.75,1,0],[0.5,1,0],[0.25,1,0],[0,0.75,0],[0,0.5,0],[0,0.25,0]];" vertex="1" parent="vqnwjUkODfAe8_d5qlSY-40">
            <mxGeometry x="299" y="11" width="240" height="120" as="geometry" />
          </mxCell>
        </object>
        <mxCell id="vqnwjUkODfAe8_d5qlSY-46" style="edgeStyle=orthogonalEdgeStyle;rounded=0;orthogonalLoop=1;jettySize=auto;html=1;exitX=0.25;exitY=0;exitDx=0;exitDy=0;exitPerimeter=0;entryX=0;entryY=0.25;entryDx=0;entryDy=0;entryPerimeter=0;" edge="1" parent="vqnwjUkODfAe8_d5qlSY-40" source="vqnwjUkODfAe8_d5qlSY-41" target="vqnwjUkODfAe8_d5qlSY-45">
          <mxGeometry relative="1" as="geometry">
            <mxPoint x="60" y="11" as="targetPoint" />
            <Array as="points">
              <mxPoint x="60" y="31" />
              <mxPoint x="61" y="31" />
              <mxPoint x="61" y="41" />
            </Array>
          </mxGeometry>
        </mxCell>
        <mxCell id="vqnwjUkODfAe8_d5qlSY-47" value="Request&lt;br&gt;JSON" style="edgeLabel;html=1;align=center;verticalAlign=middle;resizable=0;points=[];" vertex="1" connectable="0" parent="vqnwjUkODfAe8_d5qlSY-46">
          <mxGeometry x="-0.4005" y="2" relative="1" as="geometry">
            <mxPoint as="offset" />
          </mxGeometry>
        </mxCell>
        <mxCell id="vqnwjUkODfAe8_d5qlSY-48" style="edgeStyle=orthogonalEdgeStyle;rounded=0;orthogonalLoop=1;jettySize=auto;html=1;exitX=0.5;exitY=0;exitDx=0;exitDy=0;entryX=1;entryY=0.25;entryDx=0;entryDy=0;entryPerimeter=0;" edge="1" parent="vqnwjUkODfAe8_d5qlSY-40" source="vqnwjUkODfAe8_d5qlSY-52" target="vqnwjUkODfAe8_d5qlSY-45">
          <mxGeometry relative="1" as="geometry">
            <mxPoint x="751" y="20" as="targetPoint" />
            <Array as="points">
              <mxPoint x="751" y="35" />
              <mxPoint x="752" y="35" />
              <mxPoint x="752" y="41" />
            </Array>
          </mxGeometry>
        </mxCell>
        <mxCell id="vqnwjUkODfAe8_d5qlSY-49" value="Response&lt;br&gt;JSON" style="edgeLabel;html=1;align=center;verticalAlign=middle;resizable=0;points=[];" vertex="1" connectable="0" parent="vqnwjUkODfAe8_d5qlSY-48">
          <mxGeometry x="-0.4257" relative="1" as="geometry">
            <mxPoint as="offset" />
          </mxGeometry>
        </mxCell>
        <mxCell id="vqnwjUkODfAe8_d5qlSY-50" style="edgeStyle=orthogonalEdgeStyle;rounded=0;orthogonalLoop=1;jettySize=auto;html=1;exitX=0;exitY=0.75;exitDx=0;exitDy=0;" edge="1" parent="vqnwjUkODfAe8_d5qlSY-40" source="vqnwjUkODfAe8_d5qlSY-52" target="vqnwjUkODfAe8_d5qlSY-74">
          <mxGeometry relative="1" as="geometry">
            <mxPoint x="427" y="246" as="targetPoint" />
            <Array as="points">
              <mxPoint x="473" y="246" />
              <mxPoint x="473" y="323" />
            </Array>
          </mxGeometry>
        </mxCell>
        <mxCell id="vqnwjUkODfAe8_d5qlSY-51" value="Request&lt;br&gt;JSON" style="edgeLabel;html=1;align=center;verticalAlign=middle;resizable=0;points=[];" vertex="1" connectable="0" parent="vqnwjUkODfAe8_d5qlSY-50">
          <mxGeometry x="0.2587" y="2" relative="1" as="geometry">
            <mxPoint as="offset" />
          </mxGeometry>
        </mxCell>
        <mxCell id="vqnwjUkODfAe8_d5qlSY-52" value="Metodos" style="shape=table;startSize=30;container=1;collapsible=0;childLayout=tableLayout;fontSize=16;align=left;verticalAlign=top;fillColor=none;strokeColor=none;fontColor=#4D4D4D;fontStyle=1;spacingLeft=6;spacing=0;resizable=0;" vertex="1" parent="vqnwjUkODfAe8_d5qlSY-40">
          <mxGeometry x="661" y="111" width="180" height="180" as="geometry" />
        </mxCell>
        <mxCell id="vqnwjUkODfAe8_d5qlSY-53" value="" style="shape=tableRow;horizontal=0;startSize=0;swimlaneHead=0;swimlaneBody=0;strokeColor=inherit;top=0;left=0;bottom=0;right=0;collapsible=0;dropTarget=0;fillColor=none;points=[[0,0.5],[1,0.5]];portConstraint=eastwest;fontSize=12;" vertex="1" parent="vqnwjUkODfAe8_d5qlSY-52">
          <mxGeometry y="30" width="180" height="30" as="geometry" />
        </mxCell>
        <mxCell id="vqnwjUkODfAe8_d5qlSY-54" value="&lt;div style=&quot;font-family: &amp;quot;JetBrains Mono&amp;quot;, monospace;&quot;&gt;ListarProdutos&lt;/div&gt;" style="shape=partialRectangle;html=1;whiteSpace=wrap;connectable=0;strokeColor=inherit;overflow=hidden;fillColor=#1E4074;top=0;left=0;bottom=0;right=0;pointerEvents=1;fontSize=12;align=left;fontColor=#FFFFFF;gradientColor=none;spacingLeft=10;spacingRight=4;" vertex="1" parent="vqnwjUkODfAe8_d5qlSY-53">
          <mxGeometry width="180" height="30" as="geometry">
            <mxRectangle width="180" height="30" as="alternateBounds" />
          </mxGeometry>
        </mxCell>
        <mxCell id="vqnwjUkODfAe8_d5qlSY-55" value="" style="shape=tableRow;horizontal=0;startSize=0;swimlaneHead=0;swimlaneBody=0;strokeColor=inherit;top=0;left=0;bottom=0;right=0;collapsible=0;dropTarget=0;fillColor=none;points=[[0,0.5],[1,0.5]];portConstraint=eastwest;fontSize=12;" vertex="1" parent="vqnwjUkODfAe8_d5qlSY-52">
          <mxGeometry y="60" width="180" height="30" as="geometry" />
        </mxCell>
        <mxCell id="vqnwjUkODfAe8_d5qlSY-56" value="&lt;div style=&quot;font-family: &amp;quot;JetBrains Mono&amp;quot;, monospace;&quot;&gt;BuscarProdutoPorId&lt;/div&gt;" style="shape=partialRectangle;html=1;whiteSpace=wrap;connectable=0;strokeColor=inherit;overflow=hidden;fillColor=#3162AF;top=0;left=0;bottom=0;right=0;pointerEvents=1;fontSize=12;align=left;fontColor=#FFFFFF;gradientColor=none;spacingLeft=10;spacingRight=4;" vertex="1" parent="vqnwjUkODfAe8_d5qlSY-55">
          <mxGeometry width="180" height="30" as="geometry">
            <mxRectangle width="180" height="30" as="alternateBounds" />
          </mxGeometry>
        </mxCell>
        <mxCell id="vqnwjUkODfAe8_d5qlSY-57" value="" style="shape=tableRow;horizontal=0;startSize=0;swimlaneHead=0;swimlaneBody=0;strokeColor=inherit;top=0;left=0;bottom=0;right=0;collapsible=0;dropTarget=0;fillColor=none;points=[[0,0.5],[1,0.5]];portConstraint=eastwest;fontSize=12;" vertex="1" parent="vqnwjUkODfAe8_d5qlSY-52">
          <mxGeometry y="90" width="180" height="30" as="geometry" />
        </mxCell>
        <mxCell id="vqnwjUkODfAe8_d5qlSY-58" value="&lt;div style=&quot;font-family: &amp;quot;JetBrains Mono&amp;quot;, monospace;&quot;&gt;AlterarDadosProduto&lt;/div&gt;" style="shape=partialRectangle;html=1;whiteSpace=wrap;connectable=0;strokeColor=inherit;overflow=hidden;fillColor=#52a2d8;top=0;left=0;bottom=0;right=0;pointerEvents=1;fontSize=12;align=left;fontColor=#FFFFFF;gradientColor=none;spacingLeft=10;spacingRight=4;" vertex="1" parent="vqnwjUkODfAe8_d5qlSY-57">
          <mxGeometry width="180" height="30" as="geometry">
            <mxRectangle width="180" height="30" as="alternateBounds" />
          </mxGeometry>
        </mxCell>
        <mxCell id="vqnwjUkODfAe8_d5qlSY-59" value="" style="shape=tableRow;horizontal=0;startSize=0;swimlaneHead=0;swimlaneBody=0;strokeColor=inherit;top=0;left=0;bottom=0;right=0;collapsible=0;dropTarget=0;fillColor=none;points=[[0,0.5],[1,0.5]];portConstraint=eastwest;fontSize=12;" vertex="1" parent="vqnwjUkODfAe8_d5qlSY-52">
          <mxGeometry y="120" width="180" height="30" as="geometry" />
        </mxCell>
        <mxCell id="vqnwjUkODfAe8_d5qlSY-60" value="&lt;div style=&quot;font-family: &amp;quot;JetBrains Mono&amp;quot;, monospace;&quot;&gt;AdicionarEstoque&lt;/div&gt;" style="shape=partialRectangle;html=1;whiteSpace=wrap;connectable=0;strokeColor=inherit;overflow=hidden;fillColor=#7dbef2;top=0;left=0;bottom=0;right=0;pointerEvents=1;fontSize=12;align=left;fontColor=#FFFFFF;gradientColor=none;spacingLeft=10;spacingRight=4;" vertex="1" parent="vqnwjUkODfAe8_d5qlSY-59">
          <mxGeometry width="180" height="30" as="geometry">
            <mxRectangle width="180" height="30" as="alternateBounds" />
          </mxGeometry>
        </mxCell>
        <mxCell id="vqnwjUkODfAe8_d5qlSY-61" value="" style="shape=tableRow;horizontal=0;startSize=0;swimlaneHead=0;swimlaneBody=0;strokeColor=inherit;top=0;left=0;bottom=0;right=0;collapsible=0;dropTarget=0;fillColor=none;points=[[0,0.5],[1,0.5]];portConstraint=eastwest;fontSize=12;" vertex="1" parent="vqnwjUkODfAe8_d5qlSY-52">
          <mxGeometry y="150" width="180" height="30" as="geometry" />
        </mxCell>
        <mxCell id="vqnwjUkODfAe8_d5qlSY-62" value="&lt;div style=&quot;font-family: &amp;quot;JetBrains Mono&amp;quot;, monospace;&quot;&gt;DeletarProduto&lt;/div&gt;" style="shape=partialRectangle;html=1;whiteSpace=wrap;connectable=0;strokeColor=inherit;overflow=hidden;fillColor=#6b6477;top=0;left=0;bottom=0;right=0;pointerEvents=1;fontSize=12;align=left;fontColor=#FFFFFF;gradientColor=none;spacingLeft=10;spacingRight=4;" vertex="1" parent="vqnwjUkODfAe8_d5qlSY-61">
          <mxGeometry width="180" height="30" as="geometry">
            <mxRectangle width="180" height="30" as="alternateBounds" />
          </mxGeometry>
        </mxCell>
        <mxCell id="vqnwjUkODfAe8_d5qlSY-63" style="edgeStyle=orthogonalEdgeStyle;rounded=0;orthogonalLoop=1;jettySize=auto;html=1;exitX=1;exitY=0.75;exitDx=0;exitDy=0;exitPerimeter=0;entryX=0;entryY=0;entryDx=0;entryDy=0;" edge="1" parent="vqnwjUkODfAe8_d5qlSY-40" source="vqnwjUkODfAe8_d5qlSY-45" target="vqnwjUkODfAe8_d5qlSY-52">
          <mxGeometry relative="1" as="geometry" />
        </mxCell>
        <mxCell id="vqnwjUkODfAe8_d5qlSY-64" value="Request&lt;br&gt;JSON" style="edgeLabel;html=1;align=center;verticalAlign=middle;resizable=0;points=[];" vertex="1" connectable="0" parent="vqnwjUkODfAe8_d5qlSY-63">
          <mxGeometry x="-0.3684" relative="1" as="geometry">
            <mxPoint as="offset" />
          </mxGeometry>
        </mxCell>
        <mxCell id="vqnwjUkODfAe8_d5qlSY-65" style="edgeStyle=orthogonalEdgeStyle;rounded=0;orthogonalLoop=1;jettySize=auto;html=1;exitX=0;exitY=0.5;exitDx=0;exitDy=0;" edge="1" parent="vqnwjUkODfAe8_d5qlSY-40" source="vqnwjUkODfAe8_d5qlSY-53">
          <mxGeometry relative="1" as="geometry" />
        </mxCell>
        <mxCell id="vqnwjUkODfAe8_d5qlSY-66" value="Request&lt;br&gt;JSON" style="edgeLabel;html=1;align=center;verticalAlign=middle;resizable=0;points=[];" vertex="1" connectable="0" parent="vqnwjUkODfAe8_d5qlSY-65">
          <mxGeometry x="-0.6157" y="-1" relative="1" as="geometry">
            <mxPoint as="offset" />
          </mxGeometry>
        </mxCell>
        <mxCell id="vqnwjUkODfAe8_d5qlSY-67" style="edgeStyle=orthogonalEdgeStyle;rounded=0;orthogonalLoop=1;jettySize=auto;html=1;exitX=0;exitY=0.5;exitDx=0;exitDy=0;entryX=0.034;entryY=0;entryDx=0;entryDy=0;entryPerimeter=0;" edge="1" parent="vqnwjUkODfAe8_d5qlSY-40" source="vqnwjUkODfAe8_d5qlSY-55">
          <mxGeometry relative="1" as="geometry" />
        </mxCell>
        <mxCell id="vqnwjUkODfAe8_d5qlSY-68" value="Request&lt;br&gt;JSON" style="edgeLabel;html=1;align=center;verticalAlign=middle;resizable=0;points=[];" vertex="1" connectable="0" parent="vqnwjUkODfAe8_d5qlSY-67">
          <mxGeometry x="-0.3543" y="1" relative="1" as="geometry">
            <mxPoint as="offset" />
          </mxGeometry>
        </mxCell>
        <mxCell id="vqnwjUkODfAe8_d5qlSY-69" style="edgeStyle=orthogonalEdgeStyle;rounded=0;orthogonalLoop=1;jettySize=auto;html=1;exitX=0;exitY=0.5;exitDx=0;exitDy=0;entryX=0.995;entryY=0.187;entryDx=0;entryDy=0;entryPerimeter=0;" edge="1" parent="vqnwjUkODfAe8_d5qlSY-40" source="vqnwjUkODfAe8_d5qlSY-61">
          <mxGeometry relative="1" as="geometry" />
        </mxCell>
        <mxCell id="vqnwjUkODfAe8_d5qlSY-70" value="Request&lt;br&gt;JSON" style="edgeLabel;html=1;align=center;verticalAlign=middle;resizable=0;points=[];" vertex="1" connectable="0" parent="vqnwjUkODfAe8_d5qlSY-69">
          <mxGeometry x="-0.4183" y="2" relative="1" as="geometry">
            <mxPoint as="offset" />
          </mxGeometry>
        </mxCell>
        <object placeholders="1" c4Type="Relationship" id="vqnwjUkODfAe8_d5qlSY-71">
          <mxCell style="endArrow=blockThin;html=1;fontSize=10;fontColor=#404040;strokeWidth=1;endFill=1;strokeColor=#828282;elbow=vertical;metaEdit=1;endSize=14;startSize=14;jumpStyle=arc;jumpSize=16;rounded=0;edgeStyle=orthogonalEdgeStyle;exitX=0.355;exitY=1.129;exitDx=0;exitDy=0;exitPerimeter=0;" edge="1" parent="vqnwjUkODfAe8_d5qlSY-40" target="vqnwjUkODfAe8_d5qlSY-52">
            <mxGeometry width="240" relative="1" as="geometry">
              <mxPoint x="420.9950000000001" y="391.99036363636367" as="sourcePoint" />
              <mxPoint x="772.01" y="104" as="targetPoint" />
              <Array as="points">
                <mxPoint x="421" y="455" />
                <mxPoint x="1022" y="455" />
                <mxPoint x="1022" y="43" />
                <mxPoint x="772" y="43" />
              </Array>
            </mxGeometry>
          </mxCell>
        </object>
        <mxCell id="vqnwjUkODfAe8_d5qlSY-72" value="Response&lt;br&gt;JSON" style="edgeLabel;html=1;align=center;verticalAlign=middle;resizable=0;points=[];" vertex="1" connectable="0" parent="vqnwjUkODfAe8_d5qlSY-71">
          <mxGeometry x="0.7191" y="-1" relative="1" as="geometry">
            <mxPoint as="offset" />
          </mxGeometry>
        </mxCell>
        <mxCell id="vqnwjUkODfAe8_d5qlSY-73" value="" style="group" vertex="1" connectable="0" parent="vqnwjUkODfAe8_d5qlSY-40">
          <mxGeometry x="325" y="255" width="137.46" height="184" as="geometry" />
        </mxCell>
        <mxCell id="vqnwjUkODfAe8_d5qlSY-74" value="" style="image;sketch=0;aspect=fixed;html=1;points=[];align=center;fontSize=12;image=img/lib/mscae/Database_General.svg;" vertex="1" parent="vqnwjUkODfAe8_d5qlSY-73">
          <mxGeometry x="16.007024299065467" width="103.03380484909364" height="135.57079585407058" as="geometry" />
        </mxCell>
        <mxCell id="vqnwjUkODfAe8_d5qlSY-75" value="DB_Restaurante" style="text;html=1;align=center;verticalAlign=middle;resizable=0;points=[];autosize=1;strokeColor=none;fillColor=none;" vertex="1" parent="vqnwjUkODfAe8_d5qlSY-73">
          <mxGeometry y="147.75757575757572" width="107" height="26" as="geometry" />
        </mxCell>
        <mxCell id="vqnwjUkODfAe8_d5qlSY-76" style="edgeStyle=orthogonalEdgeStyle;rounded=0;orthogonalLoop=1;jettySize=auto;html=1;exitX=0;exitY=0.5;exitDx=0;exitDy=0;" edge="1" parent="vqnwjUkODfAe8_d5qlSY-40" source="vqnwjUkODfAe8_d5qlSY-53" target="vqnwjUkODfAe8_d5qlSY-74">
          <mxGeometry relative="1" as="geometry" />
        </mxCell>
        <mxCell id="vqnwjUkODfAe8_d5qlSY-77" value="Request&lt;br style=&quot;font-size: 12px; background-color: rgb(27, 29, 30);&quot;&gt;&lt;span style=&quot;font-size: 12px; background-color: rgb(27, 29, 30);&quot;&gt;JSON&lt;/span&gt;" style="edgeLabel;html=1;align=center;verticalAlign=middle;resizable=0;points=[];" vertex="1" connectable="0" parent="vqnwjUkODfAe8_d5qlSY-76">
          <mxGeometry x="-0.6735" y="-2" relative="1" as="geometry">
            <mxPoint as="offset" />
          </mxGeometry>
        </mxCell>
        <mxCell id="vqnwjUkODfAe8_d5qlSY-78" style="edgeStyle=orthogonalEdgeStyle;rounded=0;orthogonalLoop=1;jettySize=auto;html=1;exitX=0;exitY=0.5;exitDx=0;exitDy=0;entryX=-0.01;entryY=0.044;entryDx=0;entryDy=0;entryPerimeter=0;" edge="1" parent="vqnwjUkODfAe8_d5qlSY-40" source="vqnwjUkODfAe8_d5qlSY-55" target="vqnwjUkODfAe8_d5qlSY-74">
          <mxGeometry relative="1" as="geometry" />
        </mxCell>
        <mxCell id="vqnwjUkODfAe8_d5qlSY-79" value="Request&lt;br style=&quot;font-size: 12px; background-color: rgb(27, 29, 30);&quot;&gt;&lt;span style=&quot;font-size: 12px; background-color: rgb(27, 29, 30);&quot;&gt;JSON&lt;/span&gt;" style="edgeLabel;html=1;align=center;verticalAlign=middle;resizable=0;points=[];" vertex="1" connectable="0" parent="vqnwjUkODfAe8_d5qlSY-78">
          <mxGeometry x="-0.5991" y="2" relative="1" as="geometry">
            <mxPoint as="offset" />
          </mxGeometry>
        </mxCell>
        <mxCell id="vqnwjUkODfAe8_d5qlSY-80" value="Request&lt;br style=&quot;font-size: 12px; background-color: rgb(27, 29, 30);&quot;&gt;&lt;span style=&quot;font-size: 12px; background-color: rgb(27, 29, 30);&quot;&gt;JSON&lt;/span&gt;" style="edgeStyle=orthogonalEdgeStyle;rounded=0;orthogonalLoop=1;jettySize=auto;html=1;exitX=0;exitY=0.5;exitDx=0;exitDy=0;entryX=1;entryY=0.715;entryDx=0;entryDy=0;entryPerimeter=0;" edge="1" parent="vqnwjUkODfAe8_d5qlSY-40" source="vqnwjUkODfAe8_d5qlSY-61" target="vqnwjUkODfAe8_d5qlSY-74">
          <mxGeometry relative="1" as="geometry">
            <mxPoint x="584" y="424" as="targetPoint" />
            <Array as="points">
              <mxPoint x="585" y="276" />
              <mxPoint x="585" y="352" />
            </Array>
          </mxGeometry>
        </mxCell>
        <mxCell id="vqnwjUkODfAe8_d5qlSY-88" style="edgeStyle=orthogonalEdgeStyle;rounded=0;orthogonalLoop=1;jettySize=auto;html=1;exitX=0;exitY=0.5;exitDx=0;exitDy=0;" edge="1" parent="vqnwjUkODfAe8_d5qlSY-40" source="vqnwjUkODfAe8_d5qlSY-57">
          <mxGeometry relative="1" as="geometry">
            <mxPoint x="411" y="252" as="targetPoint" />
          </mxGeometry>
        </mxCell>
        <mxCell id="vqnwjUkODfAe8_d5qlSY-89" value="Request&lt;br&gt;JSON" style="edgeLabel;html=1;align=center;verticalAlign=middle;resizable=0;points=[];" vertex="1" connectable="0" parent="vqnwjUkODfAe8_d5qlSY-88">
          <mxGeometry x="0.422" y="-3" relative="1" as="geometry">
            <mxPoint as="offset" />
          </mxGeometry>
        </mxCell>
        <mxCell id="vqnwjUkODfAe8_d5qlSY-94" value="" style="group" vertex="1" connectable="0" parent="1">
          <mxGeometry x="5859" y="18" width="1149" height="768" as="geometry" />
        </mxCell>
        <object placeholders="1" c4Name="AtendimentoController" c4Type="JSON" c4Description="Controller responsavel pelo trafego de informação" label="&lt;font style=&quot;font-size: 16px&quot;&gt;&lt;b&gt;%c4Name%&lt;/b&gt;&lt;/font&gt;&lt;div&gt;[%c4Type%]&lt;/div&gt;&lt;br&gt;&lt;div&gt;&lt;font style=&quot;font-size: 11px&quot;&gt;&lt;font color=&quot;#cccccc&quot;&gt;%c4Description%&lt;/font&gt;&lt;/div&gt;" id="vqnwjUkODfAe8_d5qlSY-95">
          <mxCell style="rounded=1;whiteSpace=wrap;html=1;labelBackgroundColor=none;fillColor=#1061B0;fontColor=#ffffff;align=center;arcSize=10;strokeColor=#0D5091;metaEdit=1;resizable=0;points=[[0.25,0,0],[0.5,0,0],[0.75,0,0],[1,0.25,0],[1,0.5,0],[1,0.75,0],[0.75,1,0],[0.5,1,0],[0.25,1,0],[0,0.75,0],[0,0.5,0],[0,0.25,0]];" vertex="1" parent="vqnwjUkODfAe8_d5qlSY-94">
            <mxGeometry y="149" width="240" height="120" as="geometry" />
          </mxCell>
        </object>
        <object placeholders="1" c4Name="NotaService" c4Type="JSON" c4Application="Service" label="&lt;font style=&quot;font-size: 16px&quot;&gt;&lt;b&gt;&lt;div style=&quot;text-align: left&quot;&gt;%c4Name%&lt;/div&gt;&lt;/b&gt;&lt;/font&gt;&lt;div style=&quot;text-align: left&quot;&gt;[%c4Application%]&lt;/div&gt;" id="vqnwjUkODfAe8_d5qlSY-96">
          <mxCell style="rounded=1;fontSize=11;whiteSpace=wrap;html=1;dashed=1;arcSize=20;fillColor=none;strokeColor=#666666;fontColor=#333333;labelBackgroundColor=none;align=left;verticalAlign=bottom;labelBorderColor=none;spacingTop=0;spacing=10;dashPattern=8 4;metaEdit=1;rotatable=0;perimeter=rectanglePerimeter;noLabel=0;labelPadding=0;allowArrows=0;connectable=0;expand=0;recursiveResize=0;editable=1;pointerEvents=0;absoluteArcSize=1;points=[[0.25,0,0],[0.5,0,0],[0.75,0,0],[1,0.25,0],[1,0.5,0],[1,0.75,0],[0.75,1,0],[0.5,1,0],[0.25,1,0],[0,0.75,0],[0,0.5,0],[0,0.25,0]];" vertex="1" parent="vqnwjUkODfAe8_d5qlSY-94">
            <mxGeometry x="269" width="860" height="760" as="geometry" />
          </mxCell>
        </object>
        <mxCell id="vqnwjUkODfAe8_d5qlSY-97" style="edgeStyle=orthogonalEdgeStyle;rounded=0;orthogonalLoop=1;jettySize=auto;html=1;exitX=0;exitY=0.75;exitDx=0;exitDy=0;exitPerimeter=0;entryX=0.5;entryY=0;entryDx=0;entryDy=0;entryPerimeter=0;" edge="1" parent="vqnwjUkODfAe8_d5qlSY-94" source="vqnwjUkODfAe8_d5qlSY-99" target="vqnwjUkODfAe8_d5qlSY-95">
          <mxGeometry relative="1" as="geometry">
            <mxPoint x="114" y="101" as="targetPoint" />
            <Array as="points">
              <mxPoint x="136" y="101" />
              <mxPoint x="136" y="102" />
              <mxPoint x="120" y="102" />
            </Array>
          </mxGeometry>
        </mxCell>
        <mxCell id="vqnwjUkODfAe8_d5qlSY-98" value="Response&lt;br&gt;JSON" style="edgeLabel;html=1;align=center;verticalAlign=middle;resizable=0;points=[];" vertex="1" connectable="0" parent="vqnwjUkODfAe8_d5qlSY-97">
          <mxGeometry x="-0.1366" y="3" relative="1" as="geometry">
            <mxPoint x="-70" y="-8" as="offset" />
          </mxGeometry>
        </mxCell>
        <object placeholders="1" c4Name="NotaService" c4Type="JSON" c4Description="Service responsavel pelo Processamento e retorno da informação" label="&lt;font style=&quot;font-size: 16px&quot;&gt;&lt;b&gt;%c4Name%&lt;/b&gt;&lt;/font&gt;&lt;div&gt;[%c4Type%]&lt;/div&gt;&lt;br&gt;&lt;div&gt;&lt;font style=&quot;font-size: 11px&quot;&gt;&lt;font color=&quot;#cccccc&quot;&gt;%c4Description%&lt;/font&gt;&lt;/div&gt;" id="vqnwjUkODfAe8_d5qlSY-99">
          <mxCell style="rounded=1;whiteSpace=wrap;html=1;labelBackgroundColor=none;fillColor=#1061B0;fontColor=#ffffff;align=center;arcSize=10;strokeColor=#0D5091;metaEdit=1;resizable=0;points=[[0.25,0,0],[0.5,0,0],[0.75,0,0],[1,0.25,0],[1,0.5,0],[1,0.75,0],[0.75,1,0],[0.5,1,0],[0.25,1,0],[0,0.75,0],[0,0.5,0],[0,0.25,0]];" vertex="1" parent="vqnwjUkODfAe8_d5qlSY-94">
            <mxGeometry x="299" y="11" width="240" height="120" as="geometry" />
          </mxCell>
        </object>
        <mxCell id="vqnwjUkODfAe8_d5qlSY-100" style="edgeStyle=orthogonalEdgeStyle;rounded=0;orthogonalLoop=1;jettySize=auto;html=1;exitX=0.25;exitY=0;exitDx=0;exitDy=0;exitPerimeter=0;entryX=0;entryY=0.25;entryDx=0;entryDy=0;entryPerimeter=0;" edge="1" parent="vqnwjUkODfAe8_d5qlSY-94" source="vqnwjUkODfAe8_d5qlSY-95" target="vqnwjUkODfAe8_d5qlSY-99">
          <mxGeometry relative="1" as="geometry">
            <mxPoint x="60" y="11" as="targetPoint" />
            <Array as="points">
              <mxPoint x="60" y="31" />
              <mxPoint x="61" y="31" />
              <mxPoint x="61" y="41" />
            </Array>
          </mxGeometry>
        </mxCell>
        <mxCell id="vqnwjUkODfAe8_d5qlSY-101" value="Request&lt;br&gt;JSON" style="edgeLabel;html=1;align=center;verticalAlign=middle;resizable=0;points=[];" vertex="1" connectable="0" parent="vqnwjUkODfAe8_d5qlSY-100">
          <mxGeometry x="-0.4005" y="2" relative="1" as="geometry">
            <mxPoint as="offset" />
          </mxGeometry>
        </mxCell>
        <mxCell id="vqnwjUkODfAe8_d5qlSY-102" style="edgeStyle=orthogonalEdgeStyle;rounded=0;orthogonalLoop=1;jettySize=auto;html=1;exitX=0.5;exitY=0;exitDx=0;exitDy=0;entryX=1;entryY=0.25;entryDx=0;entryDy=0;entryPerimeter=0;" edge="1" parent="vqnwjUkODfAe8_d5qlSY-94" source="vqnwjUkODfAe8_d5qlSY-106" target="vqnwjUkODfAe8_d5qlSY-99">
          <mxGeometry relative="1" as="geometry">
            <mxPoint x="751" y="20" as="targetPoint" />
            <Array as="points">
              <mxPoint x="751" y="35" />
              <mxPoint x="752" y="35" />
              <mxPoint x="752" y="41" />
            </Array>
          </mxGeometry>
        </mxCell>
        <mxCell id="vqnwjUkODfAe8_d5qlSY-103" value="Response&lt;br&gt;JSON" style="edgeLabel;html=1;align=center;verticalAlign=middle;resizable=0;points=[];" vertex="1" connectable="0" parent="vqnwjUkODfAe8_d5qlSY-102">
          <mxGeometry x="-0.4257" relative="1" as="geometry">
            <mxPoint as="offset" />
          </mxGeometry>
        </mxCell>
        <mxCell id="vqnwjUkODfAe8_d5qlSY-104" style="edgeStyle=orthogonalEdgeStyle;rounded=0;orthogonalLoop=1;jettySize=auto;html=1;exitX=0;exitY=0.5;exitDx=0;exitDy=0;" edge="1" parent="vqnwjUkODfAe8_d5qlSY-94" source="vqnwjUkODfAe8_d5qlSY-113" target="vqnwjUkODfAe8_d5qlSY-128">
          <mxGeometry relative="1" as="geometry">
            <mxPoint x="427" y="246" as="targetPoint" />
            <Array as="points">
              <mxPoint x="473" y="246" />
              <mxPoint x="473" y="323" />
            </Array>
          </mxGeometry>
        </mxCell>
        <mxCell id="vqnwjUkODfAe8_d5qlSY-105" value="Request&lt;br&gt;JSON" style="edgeLabel;html=1;align=center;verticalAlign=middle;resizable=0;points=[];" vertex="1" connectable="0" parent="vqnwjUkODfAe8_d5qlSY-104">
          <mxGeometry x="0.2587" y="2" relative="1" as="geometry">
            <mxPoint as="offset" />
          </mxGeometry>
        </mxCell>
        <mxCell id="vqnwjUkODfAe8_d5qlSY-106" value="Metodos" style="shape=table;startSize=30;container=1;collapsible=0;childLayout=tableLayout;fontSize=16;align=left;verticalAlign=top;fillColor=none;strokeColor=none;fontColor=#4D4D4D;fontStyle=1;spacingLeft=6;spacing=0;resizable=0;" vertex="1" parent="vqnwjUkODfAe8_d5qlSY-94">
          <mxGeometry x="661" y="111" width="180" height="150" as="geometry" />
        </mxCell>
        <mxCell id="vqnwjUkODfAe8_d5qlSY-107" value="" style="shape=tableRow;horizontal=0;startSize=0;swimlaneHead=0;swimlaneBody=0;strokeColor=inherit;top=0;left=0;bottom=0;right=0;collapsible=0;dropTarget=0;fillColor=none;points=[[0,0.5],[1,0.5]];portConstraint=eastwest;fontSize=12;" vertex="1" parent="vqnwjUkODfAe8_d5qlSY-106">
          <mxGeometry y="30" width="180" height="30" as="geometry" />
        </mxCell>
        <mxCell id="vqnwjUkODfAe8_d5qlSY-108" value="&lt;div style=&quot;font-family: &amp;quot;JetBrains Mono&amp;quot;, monospace;&quot;&gt;&lt;div style=&quot;&quot;&gt;ListarNotas&lt;/div&gt;&lt;/div&gt;" style="shape=partialRectangle;html=1;whiteSpace=wrap;connectable=0;strokeColor=inherit;overflow=hidden;fillColor=#1E4074;top=0;left=0;bottom=0;right=0;pointerEvents=1;fontSize=12;align=left;fontColor=#FFFFFF;gradientColor=none;spacingLeft=10;spacingRight=4;" vertex="1" parent="vqnwjUkODfAe8_d5qlSY-107">
          <mxGeometry width="180" height="30" as="geometry">
            <mxRectangle width="180" height="30" as="alternateBounds" />
          </mxGeometry>
        </mxCell>
        <mxCell id="vqnwjUkODfAe8_d5qlSY-109" value="" style="shape=tableRow;horizontal=0;startSize=0;swimlaneHead=0;swimlaneBody=0;strokeColor=inherit;top=0;left=0;bottom=0;right=0;collapsible=0;dropTarget=0;fillColor=none;points=[[0,0.5],[1,0.5]];portConstraint=eastwest;fontSize=12;" vertex="1" parent="vqnwjUkODfAe8_d5qlSY-106">
          <mxGeometry y="60" width="180" height="30" as="geometry" />
        </mxCell>
        <mxCell id="vqnwjUkODfAe8_d5qlSY-110" value="&lt;div style=&quot;font-family: &amp;quot;JetBrains Mono&amp;quot;, monospace;&quot;&gt;&lt;div style=&quot;&quot;&gt;BuscaNotaPorId&lt;/div&gt;&lt;/div&gt;" style="shape=partialRectangle;html=1;whiteSpace=wrap;connectable=0;strokeColor=inherit;overflow=hidden;fillColor=#3162AF;top=0;left=0;bottom=0;right=0;pointerEvents=1;fontSize=12;align=left;fontColor=#FFFFFF;gradientColor=none;spacingLeft=10;spacingRight=4;" vertex="1" parent="vqnwjUkODfAe8_d5qlSY-109">
          <mxGeometry width="180" height="30" as="geometry">
            <mxRectangle width="180" height="30" as="alternateBounds" />
          </mxGeometry>
        </mxCell>
        <mxCell id="vqnwjUkODfAe8_d5qlSY-111" value="" style="shape=tableRow;horizontal=0;startSize=0;swimlaneHead=0;swimlaneBody=0;strokeColor=inherit;top=0;left=0;bottom=0;right=0;collapsible=0;dropTarget=0;fillColor=none;points=[[0,0.5],[1,0.5]];portConstraint=eastwest;fontSize=12;" vertex="1" parent="vqnwjUkODfAe8_d5qlSY-106">
          <mxGeometry y="90" width="180" height="30" as="geometry" />
        </mxCell>
        <mxCell id="vqnwjUkODfAe8_d5qlSY-112" value="&lt;div style=&quot;font-family: &amp;quot;JetBrains Mono&amp;quot;, monospace;&quot;&gt;&lt;div style=&quot;&quot;&gt;NovaNota&lt;/div&gt;&lt;/div&gt;" style="shape=partialRectangle;html=1;whiteSpace=wrap;connectable=0;strokeColor=inherit;overflow=hidden;fillColor=#52a2d8;top=0;left=0;bottom=0;right=0;pointerEvents=1;fontSize=12;align=left;fontColor=#FFFFFF;gradientColor=none;spacingLeft=10;spacingRight=4;" vertex="1" parent="vqnwjUkODfAe8_d5qlSY-111">
          <mxGeometry width="180" height="30" as="geometry">
            <mxRectangle width="180" height="30" as="alternateBounds" />
          </mxGeometry>
        </mxCell>
        <mxCell id="vqnwjUkODfAe8_d5qlSY-113" value="" style="shape=tableRow;horizontal=0;startSize=0;swimlaneHead=0;swimlaneBody=0;strokeColor=inherit;top=0;left=0;bottom=0;right=0;collapsible=0;dropTarget=0;fillColor=none;points=[[0,0.5],[1,0.5]];portConstraint=eastwest;fontSize=12;" vertex="1" parent="vqnwjUkODfAe8_d5qlSY-106">
          <mxGeometry y="120" width="180" height="30" as="geometry" />
        </mxCell>
        <mxCell id="vqnwjUkODfAe8_d5qlSY-114" value="&lt;div style=&quot;font-family: &amp;quot;JetBrains Mono&amp;quot;, monospace;&quot;&gt;&lt;div style=&quot;&quot;&gt;AlterarNota&lt;/div&gt;&lt;/div&gt;" style="shape=partialRectangle;html=1;whiteSpace=wrap;connectable=0;strokeColor=inherit;overflow=hidden;fillColor=#7dbef2;top=0;left=0;bottom=0;right=0;pointerEvents=1;fontSize=12;align=left;fontColor=#FFFFFF;gradientColor=none;spacingLeft=10;spacingRight=4;" vertex="1" parent="vqnwjUkODfAe8_d5qlSY-113">
          <mxGeometry width="180" height="30" as="geometry">
            <mxRectangle width="180" height="30" as="alternateBounds" />
          </mxGeometry>
        </mxCell>
        <mxCell id="vqnwjUkODfAe8_d5qlSY-117" style="edgeStyle=orthogonalEdgeStyle;rounded=0;orthogonalLoop=1;jettySize=auto;html=1;exitX=1;exitY=0.75;exitDx=0;exitDy=0;exitPerimeter=0;entryX=0;entryY=0;entryDx=0;entryDy=0;" edge="1" parent="vqnwjUkODfAe8_d5qlSY-94" source="vqnwjUkODfAe8_d5qlSY-99" target="vqnwjUkODfAe8_d5qlSY-106">
          <mxGeometry relative="1" as="geometry" />
        </mxCell>
        <mxCell id="vqnwjUkODfAe8_d5qlSY-118" value="Request&lt;br&gt;JSON" style="edgeLabel;html=1;align=center;verticalAlign=middle;resizable=0;points=[];" vertex="1" connectable="0" parent="vqnwjUkODfAe8_d5qlSY-117">
          <mxGeometry x="-0.3684" relative="1" as="geometry">
            <mxPoint as="offset" />
          </mxGeometry>
        </mxCell>
        <mxCell id="vqnwjUkODfAe8_d5qlSY-119" style="edgeStyle=orthogonalEdgeStyle;rounded=0;orthogonalLoop=1;jettySize=auto;html=1;exitX=0;exitY=0.5;exitDx=0;exitDy=0;" edge="1" parent="vqnwjUkODfAe8_d5qlSY-94" source="vqnwjUkODfAe8_d5qlSY-107">
          <mxGeometry relative="1" as="geometry" />
        </mxCell>
        <mxCell id="vqnwjUkODfAe8_d5qlSY-120" value="Request&lt;br&gt;JSON" style="edgeLabel;html=1;align=center;verticalAlign=middle;resizable=0;points=[];" vertex="1" connectable="0" parent="vqnwjUkODfAe8_d5qlSY-119">
          <mxGeometry x="-0.6157" y="-1" relative="1" as="geometry">
            <mxPoint as="offset" />
          </mxGeometry>
        </mxCell>
        <mxCell id="vqnwjUkODfAe8_d5qlSY-121" style="edgeStyle=orthogonalEdgeStyle;rounded=0;orthogonalLoop=1;jettySize=auto;html=1;exitX=0;exitY=0.5;exitDx=0;exitDy=0;entryX=0.034;entryY=0;entryDx=0;entryDy=0;entryPerimeter=0;" edge="1" parent="vqnwjUkODfAe8_d5qlSY-94" source="vqnwjUkODfAe8_d5qlSY-109">
          <mxGeometry relative="1" as="geometry" />
        </mxCell>
        <mxCell id="vqnwjUkODfAe8_d5qlSY-122" value="Request&lt;br&gt;JSON" style="edgeLabel;html=1;align=center;verticalAlign=middle;resizable=0;points=[];" vertex="1" connectable="0" parent="vqnwjUkODfAe8_d5qlSY-121">
          <mxGeometry x="-0.3543" y="1" relative="1" as="geometry">
            <mxPoint as="offset" />
          </mxGeometry>
        </mxCell>
        <object placeholders="1" c4Type="Relationship" id="vqnwjUkODfAe8_d5qlSY-125">
          <mxCell style="endArrow=blockThin;html=1;fontSize=10;fontColor=#404040;strokeWidth=1;endFill=1;strokeColor=#828282;elbow=vertical;metaEdit=1;endSize=14;startSize=14;jumpStyle=arc;jumpSize=16;rounded=0;edgeStyle=orthogonalEdgeStyle;exitX=0.355;exitY=1.129;exitDx=0;exitDy=0;exitPerimeter=0;" edge="1" parent="vqnwjUkODfAe8_d5qlSY-94" target="vqnwjUkODfAe8_d5qlSY-106">
            <mxGeometry width="240" relative="1" as="geometry">
              <mxPoint x="420.9950000000001" y="391.99036363636367" as="sourcePoint" />
              <mxPoint x="772.01" y="104" as="targetPoint" />
              <Array as="points">
                <mxPoint x="421" y="455" />
                <mxPoint x="1022" y="455" />
                <mxPoint x="1022" y="43" />
                <mxPoint x="772" y="43" />
              </Array>
            </mxGeometry>
          </mxCell>
        </object>
        <mxCell id="vqnwjUkODfAe8_d5qlSY-126" value="Response&lt;br&gt;JSON" style="edgeLabel;html=1;align=center;verticalAlign=middle;resizable=0;points=[];" vertex="1" connectable="0" parent="vqnwjUkODfAe8_d5qlSY-125">
          <mxGeometry x="0.7191" y="-1" relative="1" as="geometry">
            <mxPoint as="offset" />
          </mxGeometry>
        </mxCell>
        <mxCell id="vqnwjUkODfAe8_d5qlSY-127" value="" style="group" vertex="1" connectable="0" parent="vqnwjUkODfAe8_d5qlSY-94">
          <mxGeometry x="325" y="255" width="137.46" height="184" as="geometry" />
        </mxCell>
        <mxCell id="vqnwjUkODfAe8_d5qlSY-128" value="" style="image;sketch=0;aspect=fixed;html=1;points=[];align=center;fontSize=12;image=img/lib/mscae/Database_General.svg;" vertex="1" parent="vqnwjUkODfAe8_d5qlSY-127">
          <mxGeometry x="16.007024299065467" width="103.03380484909364" height="135.57079585407058" as="geometry" />
        </mxCell>
        <mxCell id="vqnwjUkODfAe8_d5qlSY-129" value="DB_Restaurante" style="text;html=1;align=center;verticalAlign=middle;resizable=0;points=[];autosize=1;strokeColor=none;fillColor=none;" vertex="1" parent="vqnwjUkODfAe8_d5qlSY-127">
          <mxGeometry y="147.75757575757572" width="107" height="26" as="geometry" />
        </mxCell>
        <mxCell id="vqnwjUkODfAe8_d5qlSY-130" style="edgeStyle=orthogonalEdgeStyle;rounded=0;orthogonalLoop=1;jettySize=auto;html=1;exitX=0;exitY=0.5;exitDx=0;exitDy=0;" edge="1" parent="vqnwjUkODfAe8_d5qlSY-94" source="vqnwjUkODfAe8_d5qlSY-107" target="vqnwjUkODfAe8_d5qlSY-128">
          <mxGeometry relative="1" as="geometry" />
        </mxCell>
        <mxCell id="vqnwjUkODfAe8_d5qlSY-131" value="Request&lt;br style=&quot;font-size: 12px; background-color: rgb(27, 29, 30);&quot;&gt;&lt;span style=&quot;font-size: 12px; background-color: rgb(27, 29, 30);&quot;&gt;JSON&lt;/span&gt;" style="edgeLabel;html=1;align=center;verticalAlign=middle;resizable=0;points=[];" vertex="1" connectable="0" parent="vqnwjUkODfAe8_d5qlSY-130">
          <mxGeometry x="-0.6735" y="-2" relative="1" as="geometry">
            <mxPoint as="offset" />
          </mxGeometry>
        </mxCell>
        <mxCell id="vqnwjUkODfAe8_d5qlSY-132" style="edgeStyle=orthogonalEdgeStyle;rounded=0;orthogonalLoop=1;jettySize=auto;html=1;exitX=0;exitY=0.5;exitDx=0;exitDy=0;entryX=-0.01;entryY=0.044;entryDx=0;entryDy=0;entryPerimeter=0;" edge="1" parent="vqnwjUkODfAe8_d5qlSY-94" source="vqnwjUkODfAe8_d5qlSY-109" target="vqnwjUkODfAe8_d5qlSY-128">
          <mxGeometry relative="1" as="geometry" />
        </mxCell>
        <mxCell id="vqnwjUkODfAe8_d5qlSY-133" value="Request&lt;br style=&quot;font-size: 12px; background-color: rgb(27, 29, 30);&quot;&gt;&lt;span style=&quot;font-size: 12px; background-color: rgb(27, 29, 30);&quot;&gt;JSON&lt;/span&gt;" style="edgeLabel;html=1;align=center;verticalAlign=middle;resizable=0;points=[];" vertex="1" connectable="0" parent="vqnwjUkODfAe8_d5qlSY-132">
          <mxGeometry x="-0.5991" y="2" relative="1" as="geometry">
            <mxPoint as="offset" />
          </mxGeometry>
        </mxCell>
        <mxCell id="vqnwjUkODfAe8_d5qlSY-135" style="edgeStyle=orthogonalEdgeStyle;rounded=0;orthogonalLoop=1;jettySize=auto;html=1;exitX=0;exitY=0.5;exitDx=0;exitDy=0;" edge="1" parent="vqnwjUkODfAe8_d5qlSY-94" source="vqnwjUkODfAe8_d5qlSY-111">
          <mxGeometry relative="1" as="geometry">
            <mxPoint x="411" y="252" as="targetPoint" />
          </mxGeometry>
        </mxCell>
        <mxCell id="vqnwjUkODfAe8_d5qlSY-136" value="Request&lt;br&gt;JSON" style="edgeLabel;html=1;align=center;verticalAlign=middle;resizable=0;points=[];" vertex="1" connectable="0" parent="vqnwjUkODfAe8_d5qlSY-135">
          <mxGeometry x="0.422" y="-3" relative="1" as="geometry">
            <mxPoint as="offset" />
          </mxGeometry>
        </mxCell>
        <mxCell id="vqnwjUkODfAe8_d5qlSY-137" value="" style="shape=link;html=1;rounded=0;" edge="1" parent="vqnwjUkODfAe8_d5qlSY-94">
          <mxGeometry width="100" relative="1" as="geometry">
            <mxPoint x="565" y="398" as="sourcePoint" />
            <mxPoint x="665" y="398" as="targetPoint" />
          </mxGeometry>
        </mxCell>
        <mxCell id="vqnwjUkODfAe8_d5qlSY-138" value="Fornecedor&lt;br&gt;Repository" style="edgeLabel;html=1;align=center;verticalAlign=middle;resizable=0;points=[];" vertex="1" connectable="0" parent="vqnwjUkODfAe8_d5qlSY-137">
          <mxGeometry x="-0.04" y="-2" relative="1" as="geometry">
            <mxPoint as="offset" />
          </mxGeometry>
        </mxCell>
        <mxCell id="vqnwjUkODfAe8_d5qlSY-143" style="edgeStyle=orthogonalEdgeStyle;rounded=0;orthogonalLoop=1;jettySize=auto;html=1;exitX=0.25;exitY=0;exitDx=0;exitDy=0;" edge="1" parent="vqnwjUkODfAe8_d5qlSY-94" source="vqnwjUkODfAe8_d5qlSY-139">
          <mxGeometry relative="1" as="geometry">
            <mxPoint x="659" y="206" as="targetPoint" />
            <Array as="points">
              <mxPoint x="590" y="228" />
              <mxPoint x="590" y="228" />
            </Array>
          </mxGeometry>
        </mxCell>
        <mxCell id="vqnwjUkODfAe8_d5qlSY-144" value="Response_DB&lt;br&gt;JSON" style="edgeLabel;html=1;align=center;verticalAlign=middle;resizable=0;points=[];" vertex="1" connectable="0" parent="vqnwjUkODfAe8_d5qlSY-143">
          <mxGeometry x="-0.5868" y="-1" relative="1" as="geometry">
            <mxPoint x="24" as="offset" />
          </mxGeometry>
        </mxCell>
        <mxCell id="vqnwjUkODfAe8_d5qlSY-139" value="" style="swimlane;startSize=0;" vertex="1" parent="vqnwjUkODfAe8_d5qlSY-94">
          <mxGeometry x="565" y="379" width="101" height="41" as="geometry" />
        </mxCell>
        <mxCell id="vqnwjUkODfAe8_d5qlSY-140" value="" style="endArrow=classic;html=1;rounded=0;entryX=0.109;entryY=0.024;entryDx=0;entryDy=0;entryPerimeter=0;exitX=0;exitY=0.75;exitDx=0;exitDy=0;" edge="1" parent="vqnwjUkODfAe8_d5qlSY-94" source="vqnwjUkODfAe8_d5qlSY-106" target="vqnwjUkODfAe8_d5qlSY-139">
          <mxGeometry width="50" height="50" relative="1" as="geometry">
            <mxPoint x="576" y="221" as="sourcePoint" />
            <mxPoint x="576" y="370" as="targetPoint" />
            <Array as="points">
              <mxPoint x="576" y="232" />
            </Array>
          </mxGeometry>
        </mxCell>
        <mxCell id="vqnwjUkODfAe8_d5qlSY-141" value="Request_DB&lt;br&gt;JSON" style="edgeLabel;html=1;align=center;verticalAlign=middle;resizable=0;points=[];" vertex="1" connectable="0" parent="vqnwjUkODfAe8_d5qlSY-140">
          <mxGeometry x="0.2118" y="1" relative="1" as="geometry">
            <mxPoint x="-21" as="offset" />
          </mxGeometry>
        </mxCell>
        <mxCell id="vqnwjUkODfAe8_d5qlSY-145" value="" style="group" vertex="1" connectable="0" parent="1">
          <mxGeometry x="7023" y="18" width="1149" height="768" as="geometry" />
        </mxCell>
        <object placeholders="1" c4Name="AtendimentoController" c4Type="JSON" c4Description="Controller responsavel pelo trafego de informação" label="&lt;font style=&quot;font-size: 16px&quot;&gt;&lt;b&gt;%c4Name%&lt;/b&gt;&lt;/font&gt;&lt;div&gt;[%c4Type%]&lt;/div&gt;&lt;br&gt;&lt;div&gt;&lt;font style=&quot;font-size: 11px&quot;&gt;&lt;font color=&quot;#cccccc&quot;&gt;%c4Description%&lt;/font&gt;&lt;/div&gt;" id="vqnwjUkODfAe8_d5qlSY-146">
          <mxCell style="rounded=1;whiteSpace=wrap;html=1;labelBackgroundColor=none;fillColor=#1061B0;fontColor=#ffffff;align=center;arcSize=10;strokeColor=#0D5091;metaEdit=1;resizable=0;points=[[0.25,0,0],[0.5,0,0],[0.75,0,0],[1,0.25,0],[1,0.5,0],[1,0.75,0],[0.75,1,0],[0.5,1,0],[0.25,1,0],[0,0.75,0],[0,0.5,0],[0,0.25,0]];" vertex="1" parent="vqnwjUkODfAe8_d5qlSY-145">
            <mxGeometry y="149" width="240" height="120" as="geometry" />
          </mxCell>
        </object>
        <object placeholders="1" c4Name="FornecedorService" c4Type="JSON" c4Application="Service" label="&lt;font style=&quot;font-size: 16px&quot;&gt;&lt;b&gt;&lt;div style=&quot;text-align: left&quot;&gt;%c4Name%&lt;/div&gt;&lt;/b&gt;&lt;/font&gt;&lt;div style=&quot;text-align: left&quot;&gt;[%c4Application%]&lt;/div&gt;" id="vqnwjUkODfAe8_d5qlSY-147">
          <mxCell style="rounded=1;fontSize=11;whiteSpace=wrap;html=1;dashed=1;arcSize=20;fillColor=none;strokeColor=#666666;fontColor=#333333;labelBackgroundColor=none;align=left;verticalAlign=bottom;labelBorderColor=none;spacingTop=0;spacing=10;dashPattern=8 4;metaEdit=1;rotatable=0;perimeter=rectanglePerimeter;noLabel=0;labelPadding=0;allowArrows=0;connectable=0;expand=0;recursiveResize=0;editable=1;pointerEvents=0;absoluteArcSize=1;points=[[0.25,0,0],[0.5,0,0],[0.75,0,0],[1,0.25,0],[1,0.5,0],[1,0.75,0],[0.75,1,0],[0.5,1,0],[0.25,1,0],[0,0.75,0],[0,0.5,0],[0,0.25,0]];" vertex="1" parent="vqnwjUkODfAe8_d5qlSY-145">
            <mxGeometry x="269" width="860" height="760" as="geometry" />
          </mxCell>
        </object>
        <mxCell id="vqnwjUkODfAe8_d5qlSY-148" style="edgeStyle=orthogonalEdgeStyle;rounded=0;orthogonalLoop=1;jettySize=auto;html=1;exitX=0;exitY=0.75;exitDx=0;exitDy=0;exitPerimeter=0;entryX=0.5;entryY=0;entryDx=0;entryDy=0;entryPerimeter=0;" edge="1" parent="vqnwjUkODfAe8_d5qlSY-145" source="vqnwjUkODfAe8_d5qlSY-150" target="vqnwjUkODfAe8_d5qlSY-146">
          <mxGeometry relative="1" as="geometry">
            <mxPoint x="114" y="101" as="targetPoint" />
            <Array as="points">
              <mxPoint x="136" y="101" />
              <mxPoint x="136" y="102" />
              <mxPoint x="120" y="102" />
            </Array>
          </mxGeometry>
        </mxCell>
        <mxCell id="vqnwjUkODfAe8_d5qlSY-149" value="Response&lt;br&gt;JSON" style="edgeLabel;html=1;align=center;verticalAlign=middle;resizable=0;points=[];" vertex="1" connectable="0" parent="vqnwjUkODfAe8_d5qlSY-148">
          <mxGeometry x="-0.1366" y="3" relative="1" as="geometry">
            <mxPoint x="-70" y="-8" as="offset" />
          </mxGeometry>
        </mxCell>
        <object placeholders="1" c4Name="FornecedorService" c4Type="JSON" c4Description="Service responsavel pelo Processamento e retorno da informação" label="&lt;font style=&quot;font-size: 16px&quot;&gt;&lt;b&gt;%c4Name%&lt;/b&gt;&lt;/font&gt;&lt;div&gt;[%c4Type%]&lt;/div&gt;&lt;br&gt;&lt;div&gt;&lt;font style=&quot;font-size: 11px&quot;&gt;&lt;font color=&quot;#cccccc&quot;&gt;%c4Description%&lt;/font&gt;&lt;/div&gt;" id="vqnwjUkODfAe8_d5qlSY-150">
          <mxCell style="rounded=1;whiteSpace=wrap;html=1;labelBackgroundColor=none;fillColor=#1061B0;fontColor=#ffffff;align=center;arcSize=10;strokeColor=#0D5091;metaEdit=1;resizable=0;points=[[0.25,0,0],[0.5,0,0],[0.75,0,0],[1,0.25,0],[1,0.5,0],[1,0.75,0],[0.75,1,0],[0.5,1,0],[0.25,1,0],[0,0.75,0],[0,0.5,0],[0,0.25,0]];" vertex="1" parent="vqnwjUkODfAe8_d5qlSY-145">
            <mxGeometry x="299" y="11" width="240" height="120" as="geometry" />
          </mxCell>
        </object>
        <mxCell id="vqnwjUkODfAe8_d5qlSY-151" style="edgeStyle=orthogonalEdgeStyle;rounded=0;orthogonalLoop=1;jettySize=auto;html=1;exitX=0.25;exitY=0;exitDx=0;exitDy=0;exitPerimeter=0;entryX=0;entryY=0.25;entryDx=0;entryDy=0;entryPerimeter=0;" edge="1" parent="vqnwjUkODfAe8_d5qlSY-145" source="vqnwjUkODfAe8_d5qlSY-146" target="vqnwjUkODfAe8_d5qlSY-150">
          <mxGeometry relative="1" as="geometry">
            <mxPoint x="60" y="11" as="targetPoint" />
            <Array as="points">
              <mxPoint x="60" y="31" />
              <mxPoint x="61" y="31" />
              <mxPoint x="61" y="41" />
            </Array>
          </mxGeometry>
        </mxCell>
        <mxCell id="vqnwjUkODfAe8_d5qlSY-152" value="Request&lt;br&gt;JSON" style="edgeLabel;html=1;align=center;verticalAlign=middle;resizable=0;points=[];" vertex="1" connectable="0" parent="vqnwjUkODfAe8_d5qlSY-151">
          <mxGeometry x="-0.4005" y="2" relative="1" as="geometry">
            <mxPoint as="offset" />
          </mxGeometry>
        </mxCell>
        <mxCell id="vqnwjUkODfAe8_d5qlSY-153" style="edgeStyle=orthogonalEdgeStyle;rounded=0;orthogonalLoop=1;jettySize=auto;html=1;exitX=0.5;exitY=0;exitDx=0;exitDy=0;entryX=1;entryY=0.25;entryDx=0;entryDy=0;entryPerimeter=0;" edge="1" parent="vqnwjUkODfAe8_d5qlSY-145" source="vqnwjUkODfAe8_d5qlSY-157" target="vqnwjUkODfAe8_d5qlSY-150">
          <mxGeometry relative="1" as="geometry">
            <mxPoint x="751" y="20" as="targetPoint" />
            <Array as="points">
              <mxPoint x="751" y="35" />
              <mxPoint x="752" y="35" />
              <mxPoint x="752" y="41" />
            </Array>
          </mxGeometry>
        </mxCell>
        <mxCell id="vqnwjUkODfAe8_d5qlSY-154" value="Response&lt;br&gt;JSON" style="edgeLabel;html=1;align=center;verticalAlign=middle;resizable=0;points=[];" vertex="1" connectable="0" parent="vqnwjUkODfAe8_d5qlSY-153">
          <mxGeometry x="-0.4257" relative="1" as="geometry">
            <mxPoint as="offset" />
          </mxGeometry>
        </mxCell>
        <mxCell id="vqnwjUkODfAe8_d5qlSY-155" style="edgeStyle=orthogonalEdgeStyle;rounded=0;orthogonalLoop=1;jettySize=auto;html=1;exitX=0;exitY=0.75;exitDx=0;exitDy=0;" edge="1" parent="vqnwjUkODfAe8_d5qlSY-145" source="vqnwjUkODfAe8_d5qlSY-157" target="vqnwjUkODfAe8_d5qlSY-179">
          <mxGeometry relative="1" as="geometry">
            <mxPoint x="427" y="246" as="targetPoint" />
            <Array as="points">
              <mxPoint x="473" y="246" />
              <mxPoint x="473" y="323" />
            </Array>
          </mxGeometry>
        </mxCell>
        <mxCell id="vqnwjUkODfAe8_d5qlSY-156" value="Request&lt;br&gt;JSON" style="edgeLabel;html=1;align=center;verticalAlign=middle;resizable=0;points=[];" vertex="1" connectable="0" parent="vqnwjUkODfAe8_d5qlSY-155">
          <mxGeometry x="0.2587" y="2" relative="1" as="geometry">
            <mxPoint as="offset" />
          </mxGeometry>
        </mxCell>
        <mxCell id="vqnwjUkODfAe8_d5qlSY-157" value="Metodos" style="shape=table;startSize=30;container=1;collapsible=0;childLayout=tableLayout;fontSize=16;align=left;verticalAlign=top;fillColor=none;strokeColor=none;fontColor=#4D4D4D;fontStyle=1;spacingLeft=6;spacing=0;resizable=0;" vertex="1" parent="vqnwjUkODfAe8_d5qlSY-145">
          <mxGeometry x="661" y="111" width="180" height="240" as="geometry" />
        </mxCell>
        <mxCell id="vqnwjUkODfAe8_d5qlSY-158" value="" style="shape=tableRow;horizontal=0;startSize=0;swimlaneHead=0;swimlaneBody=0;strokeColor=inherit;top=0;left=0;bottom=0;right=0;collapsible=0;dropTarget=0;fillColor=none;points=[[0,0.5],[1,0.5]];portConstraint=eastwest;fontSize=12;" vertex="1" parent="vqnwjUkODfAe8_d5qlSY-157">
          <mxGeometry y="30" width="180" height="30" as="geometry" />
        </mxCell>
        <mxCell id="vqnwjUkODfAe8_d5qlSY-159" value="&lt;div style=&quot;font-family: &amp;quot;JetBrains Mono&amp;quot;, monospace;&quot;&gt;&lt;div style=&quot;&quot;&gt;listarFornecedor&lt;/div&gt;&lt;/div&gt;" style="shape=partialRectangle;html=1;whiteSpace=wrap;connectable=0;strokeColor=inherit;overflow=hidden;fillColor=#1E4074;top=0;left=0;bottom=0;right=0;pointerEvents=1;fontSize=12;align=left;fontColor=#FFFFFF;gradientColor=none;spacingLeft=10;spacingRight=4;" vertex="1" parent="vqnwjUkODfAe8_d5qlSY-158">
          <mxGeometry width="180" height="30" as="geometry">
            <mxRectangle width="180" height="30" as="alternateBounds" />
          </mxGeometry>
        </mxCell>
        <mxCell id="vqnwjUkODfAe8_d5qlSY-160" value="" style="shape=tableRow;horizontal=0;startSize=0;swimlaneHead=0;swimlaneBody=0;strokeColor=inherit;top=0;left=0;bottom=0;right=0;collapsible=0;dropTarget=0;fillColor=none;points=[[0,0.5],[1,0.5]];portConstraint=eastwest;fontSize=12;" vertex="1" parent="vqnwjUkODfAe8_d5qlSY-157">
          <mxGeometry y="60" width="180" height="30" as="geometry" />
        </mxCell>
        <mxCell id="vqnwjUkODfAe8_d5qlSY-161" value="&lt;div style=&quot;font-family: &amp;quot;JetBrains Mono&amp;quot;, monospace;&quot;&gt;&lt;div style=&quot;&quot;&gt;BuscarFornecedorPorId&lt;/div&gt;&lt;/div&gt;" style="shape=partialRectangle;html=1;whiteSpace=wrap;connectable=0;strokeColor=inherit;overflow=hidden;fillColor=#3162AF;top=0;left=0;bottom=0;right=0;pointerEvents=1;fontSize=12;align=left;fontColor=#FFFFFF;gradientColor=none;spacingLeft=10;spacingRight=4;" vertex="1" parent="vqnwjUkODfAe8_d5qlSY-160">
          <mxGeometry width="180" height="30" as="geometry">
            <mxRectangle width="180" height="30" as="alternateBounds" />
          </mxGeometry>
        </mxCell>
        <mxCell id="vqnwjUkODfAe8_d5qlSY-162" value="" style="shape=tableRow;horizontal=0;startSize=0;swimlaneHead=0;swimlaneBody=0;strokeColor=inherit;top=0;left=0;bottom=0;right=0;collapsible=0;dropTarget=0;fillColor=none;points=[[0,0.5],[1,0.5]];portConstraint=eastwest;fontSize=12;" vertex="1" parent="vqnwjUkODfAe8_d5qlSY-157">
          <mxGeometry y="90" width="180" height="30" as="geometry" />
        </mxCell>
        <mxCell id="vqnwjUkODfAe8_d5qlSY-163" value="&lt;div style=&quot;font-family: &amp;quot;JetBrains Mono&amp;quot;, monospace;&quot;&gt;&lt;div style=&quot;&quot;&gt;NovoFonecedor&lt;/div&gt;&lt;/div&gt;" style="shape=partialRectangle;html=1;whiteSpace=wrap;connectable=0;strokeColor=inherit;overflow=hidden;fillColor=#52a2d8;top=0;left=0;bottom=0;right=0;pointerEvents=1;fontSize=12;align=left;fontColor=#FFFFFF;gradientColor=none;spacingLeft=10;spacingRight=4;" vertex="1" parent="vqnwjUkODfAe8_d5qlSY-162">
          <mxGeometry width="180" height="30" as="geometry">
            <mxRectangle width="180" height="30" as="alternateBounds" />
          </mxGeometry>
        </mxCell>
        <mxCell id="vqnwjUkODfAe8_d5qlSY-164" value="" style="shape=tableRow;horizontal=0;startSize=0;swimlaneHead=0;swimlaneBody=0;strokeColor=inherit;top=0;left=0;bottom=0;right=0;collapsible=0;dropTarget=0;fillColor=none;points=[[0,0.5],[1,0.5]];portConstraint=eastwest;fontSize=12;" vertex="1" parent="vqnwjUkODfAe8_d5qlSY-157">
          <mxGeometry y="120" width="180" height="30" as="geometry" />
        </mxCell>
        <mxCell id="vqnwjUkODfAe8_d5qlSY-165" value="&lt;div style=&quot;font-family: &amp;quot;JetBrains Mono&amp;quot;, monospace;&quot;&gt;&lt;div style=&quot;&quot;&gt;AlterarDados&lt;/div&gt;&lt;/div&gt;" style="shape=partialRectangle;html=1;whiteSpace=wrap;connectable=0;strokeColor=inherit;overflow=hidden;fillColor=#7dbef2;top=0;left=0;bottom=0;right=0;pointerEvents=1;fontSize=12;align=left;fontColor=#FFFFFF;gradientColor=none;spacingLeft=10;spacingRight=4;" vertex="1" parent="vqnwjUkODfAe8_d5qlSY-164">
          <mxGeometry width="180" height="30" as="geometry">
            <mxRectangle width="180" height="30" as="alternateBounds" />
          </mxGeometry>
        </mxCell>
        <mxCell id="vqnwjUkODfAe8_d5qlSY-166" value="" style="shape=tableRow;horizontal=0;startSize=0;swimlaneHead=0;swimlaneBody=0;strokeColor=inherit;top=0;left=0;bottom=0;right=0;collapsible=0;dropTarget=0;fillColor=none;points=[[0,0.5],[1,0.5]];portConstraint=eastwest;fontSize=12;" vertex="1" parent="vqnwjUkODfAe8_d5qlSY-157">
          <mxGeometry y="150" width="180" height="30" as="geometry" />
        </mxCell>
        <mxCell id="vqnwjUkODfAe8_d5qlSY-167" value="&lt;div style=&quot;font-family: &amp;quot;JetBrains Mono&amp;quot;, monospace;&quot;&gt;&lt;div style=&quot;&quot;&gt;AlterarEndereco&lt;/div&gt;&lt;/div&gt;" style="shape=partialRectangle;html=1;whiteSpace=wrap;connectable=0;strokeColor=inherit;overflow=hidden;fillColor=#6b6477;top=0;left=0;bottom=0;right=0;pointerEvents=1;fontSize=12;align=left;fontColor=#FFFFFF;gradientColor=none;spacingLeft=10;spacingRight=4;" vertex="1" parent="vqnwjUkODfAe8_d5qlSY-166">
          <mxGeometry width="180" height="30" as="geometry">
            <mxRectangle width="180" height="30" as="alternateBounds" />
          </mxGeometry>
        </mxCell>
        <mxCell id="vqnwjUkODfAe8_d5qlSY-188" value="" style="shape=tableRow;horizontal=0;startSize=0;swimlaneHead=0;swimlaneBody=0;strokeColor=inherit;top=0;left=0;bottom=0;right=0;collapsible=0;dropTarget=0;fillColor=none;points=[[0,0.5],[1,0.5]];portConstraint=eastwest;fontSize=12;" vertex="1" parent="vqnwjUkODfAe8_d5qlSY-157">
          <mxGeometry y="180" width="180" height="30" as="geometry" />
        </mxCell>
        <mxCell id="vqnwjUkODfAe8_d5qlSY-189" value="&lt;div style=&quot;font-family: &amp;quot;JetBrains Mono&amp;quot;, monospace;&quot;&gt;&lt;div style=&quot;&quot;&gt;&lt;div style=&quot;&quot;&gt;AlterarContato&lt;/div&gt;&lt;/div&gt;&lt;/div&gt;" style="shape=partialRectangle;html=1;whiteSpace=wrap;connectable=0;strokeColor=inherit;overflow=hidden;fillColor=#6b6477;top=0;left=0;bottom=0;right=0;pointerEvents=1;fontSize=12;align=left;fontColor=#FFFFFF;gradientColor=none;spacingLeft=10;spacingRight=4;" vertex="1" parent="vqnwjUkODfAe8_d5qlSY-188">
          <mxGeometry width="180" height="30" as="geometry">
            <mxRectangle width="180" height="30" as="alternateBounds" />
          </mxGeometry>
        </mxCell>
        <mxCell id="vqnwjUkODfAe8_d5qlSY-190" value="" style="shape=tableRow;horizontal=0;startSize=0;swimlaneHead=0;swimlaneBody=0;strokeColor=inherit;top=0;left=0;bottom=0;right=0;collapsible=0;dropTarget=0;fillColor=none;points=[[0,0.5],[1,0.5]];portConstraint=eastwest;fontSize=12;" vertex="1" parent="vqnwjUkODfAe8_d5qlSY-157">
          <mxGeometry y="210" width="180" height="30" as="geometry" />
        </mxCell>
        <mxCell id="vqnwjUkODfAe8_d5qlSY-191" value="&lt;div style=&quot;font-family: &amp;quot;JetBrains Mono&amp;quot;, monospace;&quot;&gt;&lt;div style=&quot;&quot;&gt;&lt;div style=&quot;&quot;&gt;DeletarFornecedorPorId&lt;/div&gt;&lt;/div&gt;&lt;/div&gt;" style="shape=partialRectangle;html=1;whiteSpace=wrap;connectable=0;strokeColor=inherit;overflow=hidden;fillColor=#6b6477;top=0;left=0;bottom=0;right=0;pointerEvents=1;fontSize=12;align=left;fontColor=#FFFFFF;gradientColor=none;spacingLeft=10;spacingRight=4;" vertex="1" parent="vqnwjUkODfAe8_d5qlSY-190">
          <mxGeometry width="180" height="30" as="geometry">
            <mxRectangle width="180" height="30" as="alternateBounds" />
          </mxGeometry>
        </mxCell>
        <mxCell id="vqnwjUkODfAe8_d5qlSY-168" style="edgeStyle=orthogonalEdgeStyle;rounded=0;orthogonalLoop=1;jettySize=auto;html=1;exitX=1;exitY=0.75;exitDx=0;exitDy=0;exitPerimeter=0;entryX=0;entryY=0;entryDx=0;entryDy=0;" edge="1" parent="vqnwjUkODfAe8_d5qlSY-145" source="vqnwjUkODfAe8_d5qlSY-150" target="vqnwjUkODfAe8_d5qlSY-157">
          <mxGeometry relative="1" as="geometry" />
        </mxCell>
        <mxCell id="vqnwjUkODfAe8_d5qlSY-169" value="Request&lt;br&gt;JSON" style="edgeLabel;html=1;align=center;verticalAlign=middle;resizable=0;points=[];" vertex="1" connectable="0" parent="vqnwjUkODfAe8_d5qlSY-168">
          <mxGeometry x="-0.3684" relative="1" as="geometry">
            <mxPoint as="offset" />
          </mxGeometry>
        </mxCell>
        <mxCell id="vqnwjUkODfAe8_d5qlSY-170" style="edgeStyle=orthogonalEdgeStyle;rounded=0;orthogonalLoop=1;jettySize=auto;html=1;exitX=0;exitY=0.5;exitDx=0;exitDy=0;" edge="1" parent="vqnwjUkODfAe8_d5qlSY-145" source="vqnwjUkODfAe8_d5qlSY-158">
          <mxGeometry relative="1" as="geometry" />
        </mxCell>
        <mxCell id="vqnwjUkODfAe8_d5qlSY-171" value="Request&lt;br&gt;JSON" style="edgeLabel;html=1;align=center;verticalAlign=middle;resizable=0;points=[];" vertex="1" connectable="0" parent="vqnwjUkODfAe8_d5qlSY-170">
          <mxGeometry x="-0.6157" y="-1" relative="1" as="geometry">
            <mxPoint as="offset" />
          </mxGeometry>
        </mxCell>
        <mxCell id="vqnwjUkODfAe8_d5qlSY-172" style="edgeStyle=orthogonalEdgeStyle;rounded=0;orthogonalLoop=1;jettySize=auto;html=1;exitX=0;exitY=0.5;exitDx=0;exitDy=0;entryX=0.034;entryY=0;entryDx=0;entryDy=0;entryPerimeter=0;" edge="1" parent="vqnwjUkODfAe8_d5qlSY-145" source="vqnwjUkODfAe8_d5qlSY-160">
          <mxGeometry relative="1" as="geometry" />
        </mxCell>
        <mxCell id="vqnwjUkODfAe8_d5qlSY-173" value="Request&lt;br&gt;JSON" style="edgeLabel;html=1;align=center;verticalAlign=middle;resizable=0;points=[];" vertex="1" connectable="0" parent="vqnwjUkODfAe8_d5qlSY-172">
          <mxGeometry x="-0.3543" y="1" relative="1" as="geometry">
            <mxPoint as="offset" />
          </mxGeometry>
        </mxCell>
        <mxCell id="vqnwjUkODfAe8_d5qlSY-174" style="edgeStyle=orthogonalEdgeStyle;rounded=0;orthogonalLoop=1;jettySize=auto;html=1;exitX=0;exitY=0.5;exitDx=0;exitDy=0;entryX=0.995;entryY=0.187;entryDx=0;entryDy=0;entryPerimeter=0;" edge="1" parent="vqnwjUkODfAe8_d5qlSY-145" source="vqnwjUkODfAe8_d5qlSY-166">
          <mxGeometry relative="1" as="geometry" />
        </mxCell>
        <mxCell id="vqnwjUkODfAe8_d5qlSY-175" value="Request&lt;br&gt;JSON" style="edgeLabel;html=1;align=center;verticalAlign=middle;resizable=0;points=[];" vertex="1" connectable="0" parent="vqnwjUkODfAe8_d5qlSY-174">
          <mxGeometry x="-0.4183" y="2" relative="1" as="geometry">
            <mxPoint as="offset" />
          </mxGeometry>
        </mxCell>
        <object placeholders="1" c4Type="Relationship" id="vqnwjUkODfAe8_d5qlSY-176">
          <mxCell style="endArrow=blockThin;html=1;fontSize=10;fontColor=#404040;strokeWidth=1;endFill=1;strokeColor=#828282;elbow=vertical;metaEdit=1;endSize=14;startSize=14;jumpStyle=arc;jumpSize=16;rounded=0;edgeStyle=orthogonalEdgeStyle;exitX=0.355;exitY=1.129;exitDx=0;exitDy=0;exitPerimeter=0;" edge="1" parent="vqnwjUkODfAe8_d5qlSY-145" target="vqnwjUkODfAe8_d5qlSY-157">
            <mxGeometry width="240" relative="1" as="geometry">
              <mxPoint x="420.9950000000001" y="391.99036363636367" as="sourcePoint" />
              <mxPoint x="772.01" y="104" as="targetPoint" />
              <Array as="points">
                <mxPoint x="421" y="455" />
                <mxPoint x="1022" y="455" />
                <mxPoint x="1022" y="43" />
                <mxPoint x="772" y="43" />
              </Array>
            </mxGeometry>
          </mxCell>
        </object>
        <mxCell id="vqnwjUkODfAe8_d5qlSY-177" value="Response&lt;br&gt;JSON" style="edgeLabel;html=1;align=center;verticalAlign=middle;resizable=0;points=[];" vertex="1" connectable="0" parent="vqnwjUkODfAe8_d5qlSY-176">
          <mxGeometry x="0.7191" y="-1" relative="1" as="geometry">
            <mxPoint as="offset" />
          </mxGeometry>
        </mxCell>
        <mxCell id="vqnwjUkODfAe8_d5qlSY-178" value="" style="group" vertex="1" connectable="0" parent="vqnwjUkODfAe8_d5qlSY-145">
          <mxGeometry x="325" y="255" width="137.46" height="184" as="geometry" />
        </mxCell>
        <mxCell id="vqnwjUkODfAe8_d5qlSY-179" value="" style="image;sketch=0;aspect=fixed;html=1;points=[];align=center;fontSize=12;image=img/lib/mscae/Database_General.svg;" vertex="1" parent="vqnwjUkODfAe8_d5qlSY-178">
          <mxGeometry x="16.007024299065467" width="103.03380484909364" height="135.57079585407058" as="geometry" />
        </mxCell>
        <mxCell id="vqnwjUkODfAe8_d5qlSY-180" value="DB_Restaurante" style="text;html=1;align=center;verticalAlign=middle;resizable=0;points=[];autosize=1;strokeColor=none;fillColor=none;" vertex="1" parent="vqnwjUkODfAe8_d5qlSY-178">
          <mxGeometry y="147.75757575757572" width="107" height="26" as="geometry" />
        </mxCell>
        <mxCell id="vqnwjUkODfAe8_d5qlSY-181" style="edgeStyle=orthogonalEdgeStyle;rounded=0;orthogonalLoop=1;jettySize=auto;html=1;exitX=0;exitY=0.5;exitDx=0;exitDy=0;" edge="1" parent="vqnwjUkODfAe8_d5qlSY-145" source="vqnwjUkODfAe8_d5qlSY-158" target="vqnwjUkODfAe8_d5qlSY-179">
          <mxGeometry relative="1" as="geometry" />
        </mxCell>
        <mxCell id="vqnwjUkODfAe8_d5qlSY-182" value="Request&lt;br style=&quot;font-size: 12px; background-color: rgb(27, 29, 30);&quot;&gt;&lt;span style=&quot;font-size: 12px; background-color: rgb(27, 29, 30);&quot;&gt;JSON&lt;/span&gt;" style="edgeLabel;html=1;align=center;verticalAlign=middle;resizable=0;points=[];" vertex="1" connectable="0" parent="vqnwjUkODfAe8_d5qlSY-181">
          <mxGeometry x="-0.6735" y="-2" relative="1" as="geometry">
            <mxPoint as="offset" />
          </mxGeometry>
        </mxCell>
        <mxCell id="vqnwjUkODfAe8_d5qlSY-183" style="edgeStyle=orthogonalEdgeStyle;rounded=0;orthogonalLoop=1;jettySize=auto;html=1;exitX=0;exitY=0.5;exitDx=0;exitDy=0;entryX=-0.01;entryY=0.044;entryDx=0;entryDy=0;entryPerimeter=0;" edge="1" parent="vqnwjUkODfAe8_d5qlSY-145" source="vqnwjUkODfAe8_d5qlSY-160" target="vqnwjUkODfAe8_d5qlSY-179">
          <mxGeometry relative="1" as="geometry" />
        </mxCell>
        <mxCell id="vqnwjUkODfAe8_d5qlSY-184" value="Request&lt;br style=&quot;font-size: 12px; background-color: rgb(27, 29, 30);&quot;&gt;&lt;span style=&quot;font-size: 12px; background-color: rgb(27, 29, 30);&quot;&gt;JSON&lt;/span&gt;" style="edgeLabel;html=1;align=center;verticalAlign=middle;resizable=0;points=[];" vertex="1" connectable="0" parent="vqnwjUkODfAe8_d5qlSY-183">
          <mxGeometry x="-0.5991" y="2" relative="1" as="geometry">
            <mxPoint as="offset" />
          </mxGeometry>
        </mxCell>
        <mxCell id="vqnwjUkODfAe8_d5qlSY-185" value="Request&lt;br style=&quot;font-size: 12px; background-color: rgb(27, 29, 30);&quot;&gt;&lt;span style=&quot;font-size: 12px; background-color: rgb(27, 29, 30);&quot;&gt;JSON&lt;/span&gt;" style="edgeStyle=orthogonalEdgeStyle;rounded=0;orthogonalLoop=1;jettySize=auto;html=1;exitX=0;exitY=0.5;exitDx=0;exitDy=0;entryX=1;entryY=0.715;entryDx=0;entryDy=0;entryPerimeter=0;" edge="1" parent="vqnwjUkODfAe8_d5qlSY-145" source="vqnwjUkODfAe8_d5qlSY-166" target="vqnwjUkODfAe8_d5qlSY-179">
          <mxGeometry relative="1" as="geometry">
            <mxPoint x="584" y="424" as="targetPoint" />
            <Array as="points">
              <mxPoint x="585" y="276" />
              <mxPoint x="585" y="352" />
            </Array>
          </mxGeometry>
        </mxCell>
        <mxCell id="vqnwjUkODfAe8_d5qlSY-186" style="edgeStyle=orthogonalEdgeStyle;rounded=0;orthogonalLoop=1;jettySize=auto;html=1;exitX=0;exitY=0.5;exitDx=0;exitDy=0;" edge="1" parent="vqnwjUkODfAe8_d5qlSY-145" source="vqnwjUkODfAe8_d5qlSY-162">
          <mxGeometry relative="1" as="geometry">
            <mxPoint x="411" y="252" as="targetPoint" />
          </mxGeometry>
        </mxCell>
        <mxCell id="vqnwjUkODfAe8_d5qlSY-187" value="Request&lt;br&gt;JSON" style="edgeLabel;html=1;align=center;verticalAlign=middle;resizable=0;points=[];" vertex="1" connectable="0" parent="vqnwjUkODfAe8_d5qlSY-186">
          <mxGeometry x="0.422" y="-3" relative="1" as="geometry">
            <mxPoint as="offset" />
          </mxGeometry>
        </mxCell>
      </root>
    </mxGraphModel>
  </diagram>
</mxfile>
